<svg width="24" height="24" viewBox="0 0 24 24" fill="none" xmlns="http://www.w3.org/2000/svg">
<path d="M23.6383 14.9029C22.0356 21.3315 15.5244 25.2438 9.09503 23.6407C2.66833 22.0381 -1.24401 15.5265 0.359382 9.09837C1.96137 2.66903 8.47253 -1.24361 14.8999 0.359081C21.3289 1.96177 25.241 8.47405 23.6381 14.903L23.6382 14.9029H23.6383Z" fill="#F7931A"/>
<path d="M17.3062 10.2724C17.545 8.67545 16.3292 7.81704 14.6667 7.24439L15.206 5.0812L13.8892 4.75308L13.3642 6.85932C13.018 6.77298 12.6625 6.69163 12.3092 6.61098L12.838 4.49084L11.522 4.16272L10.9824 6.32521C10.6959 6.25998 10.4146 6.19552 10.1416 6.1276L10.1431 6.1208L8.32723 5.66734L7.97694 7.07376C7.97694 7.07376 8.9539 7.29771 8.93331 7.31149C9.46654 7.44458 9.56297 7.79756 9.54695 8.07735L8.9326 10.5417C8.96932 10.5511 9.01695 10.5646 9.0695 10.5857C9.02557 10.5748 8.97882 10.5628 8.93032 10.5512L8.0692 14.0035C8.00404 14.1655 7.83863 14.4086 7.46582 14.3163C7.47902 14.3354 6.50875 14.0775 6.50875 14.0775L5.85498 15.5848L7.56858 16.0119C7.88737 16.0919 8.19977 16.1755 8.50741 16.2542L7.96251 18.4422L9.27779 18.7703L9.81741 16.6055C10.1767 16.7031 10.5254 16.7931 10.8668 16.8779L10.329 19.0324L11.6459 19.3606L12.1907 17.1767C14.4361 17.6016 16.1245 17.4303 16.8352 15.3993C17.4078 13.7641 16.8067 12.8209 15.6254 12.2059C16.4858 12.0075 17.1338 11.4416 17.3066 10.2726L17.3062 10.2723L17.3062 10.2724ZM14.2976 14.4912C13.8906 16.1264 11.1375 15.2425 10.2449 15.0208L10.968 12.1221C11.8605 12.3449 14.7229 12.7859 14.2977 14.4912H14.2976ZM14.7048 10.2487C14.3336 11.7361 12.0421 10.9804 11.2988 10.7951L11.9544 8.16615C12.6977 8.35144 15.0915 8.69727 14.7049 10.2487H14.7048Z" fill="white"/>
</svg>
