<svg width="32" height="32" viewBox="0 0 32 32" fill="none" xmlns="http://www.w3.org/2000/svg">
<path d="M31.1523 16C31.1523 24.3684 24.3684 31.1523 16 31.1523C7.63158 31.1523 0.847656 24.3684 0.847656 16C0.847656 7.63158 7.63158 0.847656 16 0.847656C24.3684 0.847656 31.1523 7.63158 31.1523 16Z" fill="white" stroke="url(#paint0_linear_315_1827)"/>
<path d="M24.2407 10.99C23.9617 10.7697 23.6291 10.4689 23.0228 10.3937C22.454 10.3185 21.8746 10.6999 21.4828 10.9524C21.0912 11.2048 20.3508 11.9461 20.045 12.1716C19.7391 12.3972 18.9557 12.6067 17.6949 13.3641C16.4339 14.1214 11.487 17.3013 11.487 17.3013L12.7747 17.3174L7.03367 20.277H7.60777L6.78149 20.9054C6.78149 20.9054 7.5112 21.0988 8.12286 20.712V20.8893C8.12286 20.8893 14.9584 18.1928 16.2784 18.8911L15.4735 19.1275C15.5433 19.1275 16.8418 19.2134 16.8418 19.2134C16.8733 19.4826 16.9636 19.7415 17.1065 19.9718C17.2493 20.2019 17.441 20.3979 17.6681 20.5455C18.4514 21.0612 18.4674 21.3459 18.4674 21.3459C18.4674 21.3459 18.0597 21.5123 18.0597 21.7218C18.0597 21.7218 18.6606 21.5392 19.2187 21.5554C19.5728 21.5687 19.9241 21.6247 20.2649 21.7218C20.2649 21.7218 20.222 21.4962 19.68 21.3459C19.1382 21.1954 18.6016 20.6046 18.3387 20.2824C18.1776 20.0772 18.0727 19.8336 18.0342 19.5756C17.9956 19.3176 18.0247 19.054 18.1187 18.8106C18.3065 18.3218 18.9611 18.0533 20.3131 17.355C21.9068 16.5278 22.2716 15.9154 22.497 15.4374C22.7223 14.9593 23.055 14.0087 23.2427 13.5628C23.4788 12.9881 23.7685 12.6819 24.01 12.4993C24.2515 12.3167 25.3245 11.9138 25.3245 11.9138C25.3245 11.9138 24.5037 11.1995 24.2407 10.99Z" fill="url(#paint1_linear_315_1827)"/>
<defs>
<linearGradient id="paint0_linear_315_1827" x1="33.5283" y1="97.6" x2="67.522" y2="79.504" gradientUnits="userSpaceOnUse">
<stop stop-color="#FF4C3B"/>
<stop offset="1" stop-color="#E40C5B"/>
</linearGradient>
<linearGradient id="paint1_linear_315_1827" x1="26.2102" y1="44.9642" x2="40.5902" y2="32.4443" gradientUnits="userSpaceOnUse">
<stop stop-color="#FF4C3B"/>
<stop offset="1" stop-color="#E40C5B"/>
</linearGradient>
</defs>
</svg>
