<svg width="32" height="32" viewBox="0 0 32 32" fill="none" xmlns="http://www.w3.org/2000/svg">
<rect x="0.500016" y="0.5" width="31" height="31" rx="15.5" transform="matrix(1 0 3.1526e-05 1 -1.5763e-05 0)" fill="white" stroke="#EEEEEE"/>
<g clip-path="url(#clip0_10_10037)">
<path d="M15.9991 8.45331C18.5409 8.45331 20.6015 7.23254 20.6015 5.72665C20.6015 4.22076 18.5409 3 15.9991 3C13.4573 3 11.3967 4.22076 11.3967 5.72665C11.3967 7.23254 13.4573 8.45331 15.9991 8.45331Z" fill="#E6007A"/>
<path d="M15.9991 28.9982C18.5409 28.9982 20.6015 27.7774 20.6015 26.2715C20.6015 24.7656 18.5409 23.5449 15.9991 23.5449C13.4573 23.5449 11.3967 24.7656 11.3967 26.2715C11.3967 27.7774 13.4573 28.9982 15.9991 28.9982Z" fill="#E6007A"/>
<path d="M9.58542 12.2276C10.8563 9.98536 10.8481 7.55684 9.56699 6.80339C8.28591 6.04993 6.21711 7.25686 4.9462 9.49914C3.67529 11.7414 3.68354 14.1699 4.96463 14.9234C6.24571 15.6768 8.31451 14.4699 9.58542 12.2276Z" fill="#E6007A"/>
<path d="M27.0501 22.4988C28.321 20.2565 28.3134 17.8284 27.0332 17.0755C25.753 16.3225 23.6849 17.5299 22.414 19.7722C21.1431 22.0144 21.1506 24.4425 22.4308 25.1955C23.7111 25.9484 25.7791 24.7411 27.0501 22.4988Z" fill="#E6007A"/>
<path d="M9.56748 25.1949C10.8486 24.4414 10.8568 22.0129 9.58591 19.7707C8.315 17.5284 6.2462 16.3214 4.96512 17.0749C3.68403 17.8284 3.67578 20.2569 4.94669 22.4991C6.2176 24.7414 8.2864 25.9484 9.56748 25.1949Z" fill="#E6007A"/>
<path d="M27.0343 14.924C28.3145 14.171 28.3221 11.7429 27.0512 9.50064C25.7802 7.25837 23.7121 6.05103 22.4319 6.80397C21.1517 7.55692 21.1442 9.98502 22.4151 12.2273C23.686 14.4696 25.7541 15.6769 27.0343 14.924Z" fill="#E6007A"/>
</g>
<circle cx="24" cy="24" r="7.5" fill="#FFE0F5" stroke="white"/>
<path d="M24.1059 28C23.502 28 22.9686 27.9042 22.5059 27.7127C22.0431 27.5138 21.6784 27.2339 21.4118 26.8729C21.1451 26.5046 21.0078 26.0589 21 25.5359H22.5882C22.6039 25.8969 22.7412 26.2026 23 26.453C23.2667 26.6961 23.6314 26.8177 24.0941 26.8177C24.4941 26.8177 24.8118 26.7293 25.0471 26.5525C25.2824 26.3683 25.4 26.1252 25.4 25.8232C25.4 25.5064 25.2941 25.2597 25.0824 25.0829C24.8784 24.9061 24.6039 24.7624 24.2588 24.6519C23.9137 24.5414 23.5451 24.4236 23.1529 24.2983C22.5176 24.0921 22.0314 23.8269 21.6941 23.5028C21.3647 23.1786 21.2 22.7477 21.2 22.2099C21.1922 21.7532 21.3059 21.3628 21.5412 21.0387C21.7843 20.7072 22.1137 20.453 22.5294 20.2762C22.9451 20.0921 23.4235 20 23.9647 20C24.5137 20 24.9961 20.0921 25.4118 20.2762C25.8353 20.4604 26.1647 20.7182 26.4 21.0497C26.6431 21.3812 26.7725 21.7753 26.7882 22.232H25.1765C25.1686 21.9595 25.0549 21.7201 24.8353 21.5138C24.6235 21.3002 24.3255 21.1934 23.9412 21.1934C23.6118 21.186 23.3333 21.2634 23.1059 21.4254C22.8863 21.5801 22.7765 21.8085 22.7765 22.1105C22.7765 22.3683 22.8627 22.5746 23.0353 22.7293C23.2078 22.8766 23.4431 23.0018 23.7412 23.105C24.0392 23.2081 24.3804 23.3186 24.7647 23.4365C25.1725 23.5691 25.5451 23.7238 25.8824 23.9006C26.2196 24.0773 26.4902 24.3131 26.6941 24.6077C26.898 24.895 27 25.267 27 25.7238C27 26.1289 26.8902 26.5046 26.6706 26.8508C26.451 27.1971 26.1255 27.477 25.6941 27.6906C25.2627 27.8969 24.7333 28 24.1059 28Z" fill="#EF18AC"/>
<defs>
<clipPath id="clip0_10_10037">
<rect width="24" height="26" fill="white" transform="translate(4 3)"/>
</clipPath>
</defs>
</svg>
