<svg width="32" height="32" viewBox="0 0 32 32" fill="none" xmlns="http://www.w3.org/2000/svg">
<path d="M0 16C0 24.8366 7.16344 32 16 32C24.8366 32 32 24.8366 32 16C32 7.16344 24.8366 0 16 0C7.16344 0 0 7.16344 0 16Z" fill="black"/>
<path d="M27.1345 9.22909C26.7563 8.9309 26.3054 8.52363 25.4836 8.42181C24.7126 8.31999 23.9272 8.83636 23.3963 9.17818C22.8654 9.51999 21.8617 10.5236 21.4472 10.8291C21.0326 11.1345 19.9708 11.4182 18.2617 12.4436C16.5526 13.4691 9.84718 17.7746 9.84718 17.7746L11.5926 17.7964L3.81081 21.8036H4.58899L3.46899 22.6546C3.46899 22.6546 4.45809 22.9164 5.28718 22.3927V22.6327C5.28718 22.6327 14.5526 18.9818 16.3417 19.9273L15.2508 20.2473C15.3454 20.2473 17.1054 20.3636 17.1054 20.3636C17.1481 20.7281 17.2706 21.0787 17.4642 21.3904C17.6577 21.7021 17.9176 21.9674 18.2254 22.1673C19.2872 22.8655 19.309 23.2509 19.309 23.2509C19.309 23.2509 18.7563 23.4764 18.7563 23.76C18.7563 23.76 19.5708 23.5127 20.3272 23.5346C20.8072 23.5528 21.2834 23.6285 21.7454 23.76C21.7454 23.76 21.6872 23.4546 20.9526 23.2509C20.2181 23.0473 19.4908 22.2473 19.1345 21.8109C18.9162 21.5332 18.7739 21.2034 18.7216 20.854C18.6694 20.5046 18.7089 20.1477 18.8363 19.8182C19.0908 19.1564 19.9781 18.7927 21.8108 17.8473C23.9708 16.7273 24.4654 15.8982 24.7708 15.2509C25.0763 14.6036 25.5272 13.3164 25.7817 12.7127C26.1017 11.9345 26.4945 11.52 26.8217 11.2727C27.149 11.0255 28.6036 10.48 28.6036 10.48C28.6036 10.48 27.4908 9.51272 27.1345 9.22909Z" fill="white"/>
<circle cx="24" cy="24" r="7.5" fill="#FFE0F5" stroke="white"/>
<path d="M24.1059 28C23.502 28 22.9686 27.9042 22.5059 27.7127C22.0431 27.5138 21.6784 27.2339 21.4118 26.8729C21.1451 26.5046 21.0078 26.0589 21 25.5359H22.5882C22.6039 25.8969 22.7412 26.2026 23 26.453C23.2667 26.6961 23.6314 26.8177 24.0941 26.8177C24.4941 26.8177 24.8118 26.7293 25.0471 26.5525C25.2824 26.3683 25.4 26.1252 25.4 25.8232C25.4 25.5064 25.2941 25.2597 25.0824 25.0829C24.8784 24.9061 24.6039 24.7624 24.2588 24.6519C23.9137 24.5414 23.5451 24.4236 23.1529 24.2983C22.5176 24.0921 22.0314 23.8269 21.6941 23.5028C21.3647 23.1786 21.2 22.7477 21.2 22.2099C21.1922 21.7532 21.3059 21.3628 21.5412 21.0387C21.7843 20.7072 22.1137 20.453 22.5294 20.2762C22.9451 20.0921 23.4235 20 23.9647 20C24.5137 20 24.9961 20.0921 25.4118 20.2762C25.8353 20.4604 26.1647 20.7182 26.4 21.0497C26.6431 21.3812 26.7725 21.7753 26.7882 22.232H25.1765C25.1686 21.9595 25.0549 21.7201 24.8353 21.5138C24.6235 21.3002 24.3255 21.1934 23.9412 21.1934C23.6118 21.186 23.3333 21.2634 23.1059 21.4254C22.8863 21.5801 22.7765 21.8085 22.7765 22.1105C22.7765 22.3683 22.8627 22.5746 23.0353 22.7293C23.2078 22.8766 23.4431 23.0018 23.7412 23.105C24.0392 23.2081 24.3804 23.3186 24.7647 23.4365C25.1725 23.5691 25.5451 23.7238 25.8824 23.9006C26.2196 24.0773 26.4902 24.3131 26.6941 24.6077C26.898 24.895 27 25.267 27 25.7238C27 26.1289 26.8902 26.5046 26.6706 26.8508C26.451 27.1971 26.1255 27.477 25.6941 27.6906C25.2627 27.8969 24.7333 28 24.1059 28Z" fill="#EF18AC"/>
</svg>
