<svg width="32" height="32" viewBox="0 0 32 32" fill="none" xmlns="http://www.w3.org/2000/svg">
<circle cx="16" cy="16.0004" r="16" fill="#00A478"/>
<path d="M13.7713 15.1331V11.3321H8.61597V8.00031H23.0221V11.379H17.8667V15.1331H13.7713Z" fill="white"/>
<path fill-rule="evenodd" clip-rule="evenodd" d="M6.3999 15.5555C6.3999 14.2885 10.5435 13.2561 15.6988 13.2561C20.8542 13.2561 24.9978 14.2885 24.9978 15.5555C24.9978 16.8225 20.8542 17.8549 15.6988 17.8549C10.5435 17.8549 6.3999 16.8225 6.3999 15.5555ZM24.2268 15.5558C23.8896 15.0865 21.0951 13.6318 15.6988 13.6318C10.3025 13.6318 7.50801 15.0396 7.17075 15.5558C7.50801 16.025 10.3025 16.7289 15.6988 16.7289C21.1432 16.7289 23.8896 16.025 24.2268 15.5558Z" fill="white"/>
<path d="M17.8676 16.3064V13.6786C17.1931 13.6316 16.4704 13.5847 15.7477 13.5847C15.0731 13.5847 14.4468 13.5847 13.8204 13.6316V16.2595C14.3986 16.2595 15.0731 16.3064 15.7477 16.3064C16.4704 16.3534 17.1931 16.3534 17.8676 16.3064Z" fill="white"/>
<path d="M15.6986 17.8552C15.0241 17.8552 14.3977 17.8552 13.7714 17.8083V24.8003H17.8186V17.7614C17.144 17.8083 16.4213 17.8552 15.6986 17.8552Z" fill="white"/>
</svg>
