<svg width="96" height="40" viewBox="0 0 96 40" fill="none" xmlns="http://www.w3.org/2000/svg">
<g clip-path="url(#clip0_15_1430)">
<path d="M6.72565 15.6046C6.72565 14.5678 7.57632 14.1691 8.98525 14.1691C11.0056 14.1691 13.5576 14.7805 15.578 15.8704V9.62326C13.3715 8.746 11.1917 8.40042 8.98525 8.40042C3.58878 8.40042 0 11.2183 0 15.9236C0 23.2606 10.1018 22.091 10.1018 25.2544C10.1018 26.4773 9.03842 26.876 7.54974 26.876C5.3433 26.876 2.52544 25.9722 0.29242 24.7493V31.0762C2.76469 32.1396 5.26355 32.5915 7.54974 32.5915C13.0791 32.5915 16.8806 29.8534 16.8806 25.0949C16.854 17.173 6.72565 18.5819 6.72565 15.6046ZM24.6962 3.0837L18.2098 4.46604L18.1832 25.7595C18.1832 29.6939 21.134 32.5915 25.0683 32.5915C27.2482 32.5915 28.8432 32.1927 29.7205 31.7142V26.3178C28.8698 26.6633 24.6696 27.8862 24.6696 23.9518V14.5146H29.7205V8.85234H24.6696L24.6962 3.0837ZM37.988 10.8195L37.5626 8.85234H31.8206V32.113H38.4665V16.3489C40.0349 14.302 42.6933 14.6741 43.5173 14.9666V8.85234C42.6667 8.53333 39.5564 7.94849 37.988 10.8195ZM45.1389 8.85234H51.8114V32.113H45.1389V8.85234ZM45.1389 6.83198L51.8114 5.39647V0L45.1389 1.40893V6.83198ZM65.6881 8.40042C63.0829 8.40042 61.4081 9.62326 60.4777 10.4739L60.1321 8.82575H54.2837V39.8222L60.9296 38.4133L60.9562 30.8901C61.9132 31.5813 63.3221 32.5649 65.6615 32.5649C70.4199 32.5649 74.7531 28.7369 74.7531 20.3099C74.7265 12.6006 70.3402 8.40042 65.6881 8.40042ZM64.093 26.7165C62.5246 26.7165 61.5942 26.1583 60.9562 25.4671L60.9296 15.6046C61.6208 14.8336 62.5778 14.302 64.093 14.302C66.5121 14.302 68.1869 17.0135 68.1869 20.496C68.1869 24.0582 66.5387 26.7165 64.093 26.7165ZM95.7009 20.5757C95.7009 13.7703 92.4046 8.40042 86.1043 8.40042C79.7774 8.40042 75.9493 13.7703 75.9493 20.5225C75.9493 28.5242 80.4685 32.5649 86.9549 32.5649C90.1184 32.5649 92.5109 31.8471 94.3186 30.837V25.5203C92.5109 26.4241 90.4374 26.9823 87.8056 26.9823C85.227 26.9823 82.9408 26.0785 82.6484 22.9416H95.6478C95.6478 22.5961 95.7009 21.2137 95.7009 20.5757ZM82.5686 18.0503C82.5686 15.0463 84.4029 13.7969 86.0777 13.7969C87.6993 13.7969 89.4272 15.0463 89.4272 18.0503H82.5686Z" fill="#2D3766"/>
</g>
<defs>
<clipPath id="clip0_15_1430">
<rect width="95.7009" height="40" fill="white"/>
</clipPath>
</defs>
</svg>
