<svg id="Layer_1" data-name="Layer 1" xmlns="http://www.w3.org/2000/svg" viewBox="0 0 32 32"><path d="M16,0A16,16,0,1,0,27.29,4.67,16,16,0,0,0,16,0Zm1.87,21.78c-1,1-1.89,2-2.89,2.88A5.1,5.1,0,0,1,12.45,26a5,5,0,0,1-2.85-.19A5,5,0,0,1,7.2,24.3,5.09,5.09,0,0,1,6,21.71,5.19,5.19,0,0,1,7.47,17c1.31-1.34,2.62-2.67,4-3.95a5.34,5.34,0,0,1,4.31-1.4,5.2,5.2,0,0,1,2.18.78,5.35,5.35,0,0,1,1.65,1.63.27.27,0,0,1,.07.08.52.52,0,0,1,0,.11.36.36,0,0,1,0,.11.22.22,0,0,1-.07.09c-.53.51-1,1-1.55,1.54a.2.2,0,0,0-.09.09c-.21.16-.23.16-.33-.09a2.66,2.66,0,0,0-4.39-.87c-1.29,1.23-2.57,2.48-3.82,3.74A2.67,2.67,0,0,0,8.7,21.5a2.78,2.78,0,0,0,.75,1.21,2.63,2.63,0,0,0,1.26.65,2.45,2.45,0,0,0,1.37-.06,2.49,2.49,0,0,0,1.15-.75l1.19-1.1a.28.28,0,0,1,.11-.08.22.22,0,0,1,.14,0,6.62,6.62,0,0,0,3.21.34S17.87,21.77,17.85,21.78Zm6.65-6.65L20.74,18.9a5.4,5.4,0,0,1-7.57,0,5.58,5.58,0,0,1-.73-.95l0-.05s0,0,0-.07,0,0,0-.07l0-.06c.54-.53,1.1-1.1,1.61-1.59.27-.24.29-.24.42.09a2.68,2.68,0,0,0,.77,1,2.77,2.77,0,0,0,1.16.55,2.73,2.73,0,0,0,1.27-.06,2.55,2.55,0,0,0,1.11-.65l3.83-3.83a2.66,2.66,0,0,0,.87-1.85,2.68,2.68,0,0,0-2.56-2.8A2.62,2.62,0,0,0,19,9.27c-.48.44-.92.91-1.37,1.36a.16.16,0,0,1-.1.08.2.2,0,0,1-.13,0,6.49,6.49,0,0,0-3.21-.34h-.07v-.08c1-1,1.93-2,3-2.93a5.12,5.12,0,0,1,5.42-1.09,5.08,5.08,0,0,1,3.55,4.22,5.15,5.15,0,0,1-1.56,4.65Z" fill="#a7a7a7"/></svg>