<svg width="35" height="35" viewBox="0 0 35 35" fill="none" xmlns="http://www.w3.org/2000/svg">
<circle cx="17.5" cy="17.5" r="16.75" stroke="#F5F5F5" stroke-width="1.5"/>
<path d="M18.7338 9.1875V9.85547C21.4672 10.3008 23.5931 12.6387 23.5931 15.4219V16.6836C23.5931 18.3535 24.1626 19.9863 25.2255 21.3223L25.795 21.9902C26.0228 22.2871 26.0607 22.6582 25.9089 22.9551C25.757 23.252 25.4533 23.4375 25.1117 23.4375H9.92631C9.54667 23.4375 9.24297 23.252 9.09111 22.9551C8.93926 22.6582 8.97722 22.2871 9.205 21.9902L9.77445 21.3223C10.8374 19.9863 11.4448 18.3535 11.4448 16.6836V15.4219C11.4448 12.6387 13.5328 10.3008 16.3042 9.85547V9.1875C16.3042 8.55664 16.8356 8 17.519 8C18.1644 8 18.7338 8.55664 18.7338 9.1875ZM17.2153 11.5625C15.0134 11.5625 13.2671 13.3066 13.2671 15.4219V16.6836C13.2671 18.4648 12.7356 20.1719 11.7485 21.6563H23.2515C22.2644 20.1719 21.7709 18.4648 21.7709 16.6836V15.4219C21.7709 13.3066 19.9866 11.5625 17.8227 11.5625H17.2153ZM19.9486 24.625C19.9486 25.2559 19.6829 25.8867 19.2273 26.332C18.7718 26.7773 18.1264 27 17.519 27C16.8736 27 16.2282 26.7773 15.7727 26.332C15.3171 25.8867 15.0893 25.2559 15.0893 24.625H19.9486Z" fill="#F5F5F5"/>
<path d="M28 8.98558C28 9.1875 27.8413 9.33173 27.6538 9.33173H25.3462V11.6394C25.3462 11.8413 25.1875 12 25 12C24.7981 12 24.6538 11.8413 24.6538 11.6394V9.33173H22.3462C22.1442 9.33173 22 9.1875 22 9C22 8.79808 22.1442 8.63942 22.3462 8.63942H24.6538V6.33173C24.6538 6.14423 24.7981 6 25 6C25.1875 6 25.3462 6.14423 25.3462 6.33173V8.63942H27.6538C27.8413 8.63942 28 8.79808 28 8.98558Z" fill="#F5F5F5"/>
</svg>
