<svg id="Layer_1" data-name="Layer 1" xmlns="http://www.w3.org/2000/svg" xmlns:xlink="http://www.w3.org/1999/xlink" viewBox="0 0 32 32"><defs><clipPath id="clip-path"><rect x="0.04" width="31.93" height="32.25" fill="none"/></clipPath></defs><g clip-path="url(#clip-path)"><path d="M32,25.35A6.65,6.65,0,0,1,25.37,32Q16,32,6.63,32A6.63,6.63,0,0,1,.06,25.42Q0,16,.06,6.63A6.62,6.62,0,0,1,6.74,0H25.26a6.12,6.12,0,0,1,1.21.11A6.66,6.66,0,0,1,32,6.79V16C32,19.11,32,22.23,32,25.35ZM16,30.65h9.26A5.27,5.27,0,0,0,30.58,26a18.84,18.84,0,0,0,0-2.38V6.78a5.25,5.25,0,0,0-5.38-5.43q-9.22,0-18.44,0A5.3,5.3,0,0,0,1.39,6.77V25.22A5.3,5.3,0,0,0,6,30.6a5.37,5.37,0,0,0,.9,0Z" fill="#0091ff"/><path d="M8.19,26.65A4,4,0,0,1,4,22.49V6.84A4,4,0,0,1,8.19,2.67H23.84A4,4,0,0,1,28,6.81v15.7a4,4,0,0,1-4.12,4.14H8.19ZM5.38,22.48A2.67,2.67,0,0,0,8.2,25.32H23.82a2.65,2.65,0,0,0,2.81-2.84c0-5.19,0-10.39,0-15.58A2.82,2.82,0,0,0,23.72,4Q16,4,8.26,4A2.79,2.79,0,0,0,5.37,6.86c0,2.6,0,5.2,0,7.81Z" fill="#0091ff"/><path d="M17.54,13.93c.23.23.63.43.62.71s-.43.46-.63.71-.29.17-.46,0q-1.87-1.9-3.78-3.79c-.18-.17-.17-.27,0-.44,1.11-1.09,2.2-2.2,3.3-3.3.23-.23.47-.63.71-.63s.49.44.76.66.14.25,0,.39L16,10.34c-.08.08-.2.14-.22.32h6.06c.86,0,.86,0,.86.86,0,.54.08.48-.49.48H15.62C16.31,12.69,16.93,13.3,17.54,13.93Z" fill="#0091ff"/></g></svg>