<svg id="Layer_1" data-name="Layer 1" xmlns="http://www.w3.org/2000/svg" xmlns:xlink="http://www.w3.org/1999/xlink" viewBox="0 0 32 32"><defs><clipPath id="clip-path"><rect x="0.04" width="31.93" height="32.25" fill="none"/></clipPath></defs><g clip-path="url(#clip-path)"><path d="M0,16V6.79A6.66,6.66,0,0,1,5.53.11,6.12,6.12,0,0,1,6.74,0H25.26a6.62,6.62,0,0,1,6.68,6.63q0,9.41,0,18.79A6.63,6.63,0,0,1,25.37,32Q16,32,6.63,32A6.65,6.65,0,0,1,.05,25.35C0,22.23,0,19.11,0,16ZM16,30.65h9.14a5.37,5.37,0,0,0,.9,0,5.3,5.3,0,0,0,4.57-5.38V6.77A5.3,5.3,0,0,0,25.2,1.35q-9.21,0-18.44,0A5.25,5.25,0,0,0,1.38,6.78V23.6a18.84,18.84,0,0,0,0,2.38,5.27,5.27,0,0,0,5.32,4.66Z" fill="#0091ff"/><path d="M16,26.65H8.15A4,4,0,0,1,4,22.51V6.81A4,4,0,0,1,8.16,2.67H23.81A4,4,0,0,1,28,6.84V22.49a4,4,0,0,1-4.15,4.16Zm10.64-12c0-2.61,0-5.21,0-7.81A2.79,2.79,0,0,0,23.74,4Q16,4,8.28,4A2.82,2.82,0,0,0,5.35,6.9c0,5.19,0,10.39,0,15.58a2.65,2.65,0,0,0,2.81,2.84H23.8a2.67,2.67,0,0,0,2.82-2.84Z" fill="#0091ff"/><path d="M16.38,12H9.84c-.57,0-.48.06-.49-.48,0-.86,0-.86.86-.86h6.06c0-.18-.14-.24-.22-.32-.7-.7-1.4-1.41-2.11-2.11-.14-.14-.17-.24,0-.39s.46-.66.76-.66.48.4.71.63c1.1,1.1,2.19,2.21,3.3,3.3.17.17.18.27,0,.44q-1.91,1.89-3.78,3.79c-.17.18-.28.23-.46,0s-.62-.43-.63-.71.39-.48.62-.71C15.07,13.3,15.69,12.69,16.38,12Z" fill="#0091ff"/></g></svg>