<svg width="19" height="15" viewBox="0 0 19 15" fill="none" xmlns="http://www.w3.org/2000/svg">
<path d="M5.58744 0.150262L5.63053 0.145062L5.6974 0.14209L5.75312 0.144318L5.84673 0.156949L5.92919 0.179237L6.01166 0.211926L6.08447 0.250559L6.16173 0.305536L6.22265 0.359771L10.3088 4.44592C10.4421 4.57962 10.5194 4.75902 10.5252 4.94769C10.5309 5.13636 10.4647 5.32015 10.3398 5.46173C10.215 5.6033 10.0409 5.69206 9.85303 5.70996C9.66513 5.72786 9.47746 5.67356 9.32813 5.5581L9.2583 5.49644L6.44033 2.67922V14.2579C6.44012 14.4473 6.36762 14.6294 6.23762 14.7671C6.10763 14.9048 5.92997 14.9876 5.74094 14.9987C5.5519 15.0098 5.36576 14.9483 5.22056 14.8268C5.07535 14.7053 4.98203 14.5329 4.95966 14.3448L4.95446 14.2579V2.67922L2.1365 5.49644C2.00857 5.62435 1.83836 5.7012 1.65781 5.71255C1.47726 5.7239 1.29877 5.66899 1.15582 5.5581L1.08599 5.49644C0.958069 5.36851 0.881226 5.1983 0.869873 5.01775C0.85852 4.8372 0.913438 4.6587 1.02432 4.51576L1.08599 4.44592L5.17214 0.359771C5.19807 0.333744 5.22589 0.309658 5.25535 0.287706L5.33707 0.234957L5.42177 0.194838L5.49978 0.168835L5.58744 0.150262ZM13.8697 0.14209C14.0517 0.142114 14.2273 0.208921 14.3633 0.329841C14.4993 0.450761 14.5862 0.617383 14.6074 0.798103L14.6126 0.885027V12.4637L17.4306 9.64648L17.5004 9.58482C17.6434 9.47401 17.8219 9.41916 18.0024 9.43055C18.1829 9.44194 18.353 9.51879 18.4809 9.64668C18.6088 9.77457 18.6857 9.94473 18.697 10.1252C18.7084 10.3057 18.6536 10.4842 18.5428 10.6272L18.4811 10.697L14.395 14.7832L14.3623 14.8136L14.3118 14.8552L14.23 14.908L14.1453 14.9481L14.0673 14.9741L13.9804 14.9927L13.9135 15.0001H13.8259L13.7813 14.9956L13.6966 14.9808L13.6156 14.9563L13.5554 14.931L13.4826 14.8924L13.4113 14.8426C13.3879 14.8241 13.3655 14.8043 13.3444 14.7832L9.2583 10.697L9.19663 10.6272C9.09554 10.4969 9.04068 10.3366 9.04068 10.1717C9.04068 10.0068 9.09554 9.84661 9.19663 9.71632L9.2583 9.64648L9.32813 9.58482C9.45842 9.48373 9.61864 9.42886 9.78355 9.42886C9.94846 9.42886 10.1087 9.48373 10.239 9.58482L10.3088 9.64648L13.1268 12.4637V0.885027L13.132 0.798103C13.1533 0.617383 13.2401 0.450761 13.3761 0.329841C13.5121 0.208921 13.6877 0.142114 13.8697 0.14209Z" fill="#7C7C7C"/>
</svg>
