<svg id="Layer_1" data-name="Layer 1" xmlns="http://www.w3.org/2000/svg" viewBox="0 0 32 32"><path d="M14.76,16l-.43-.1-.95,3.81.34.08c1.42.38,4.5,1.19,5-.78S16.22,16.35,14.76,16Z" fill="#f7931a"/><path d="M16,10.81l-.35-.08-.86,3.46.29.07c1.17.31,3.73,1,4.18-.79S17.21,11.08,16,10.81Z" fill="#f7931a"/><path d="M16,0A16,16,0,1,0,32,16,16,16,0,0,0,16,0ZM22.66,13.5A2.76,2.76,0,0,1,20.45,16c1.55.81,2.35,2,1.59,4.19-.93,2.67-3.15,2.9-6.1,2.34l-.72,2.87L13.49,25l.71-2.84c-.45-.11-.91-.22-1.38-.35l-.7,2.84-1.73-.43.71-2.87-.49-.13h0L9.87,21l-2.25-.56.85-2s1.28.34,1.26.31a.63.63,0,0,0,.79-.41l1.14-4.54.12,0h.06l-.18-.06.81-3.24a.91.91,0,0,0-.81-1S10.4,9.3,10.4,9.3l.47-1.85L13.25,8h0l1.1.26.71-2.84,1.73.43L16.1,8.69,17.48,9l.69-2.76,1.73.43-.71,2.84C21.38,10.27,23,11.4,22.66,13.5Z" fill="#f7931a"/><path d="M19.19,9.52l.71-2.84-1.73-.43L17.48,9,16.1,8.69l.69-2.79-1.73-.43-.71,2.84-1.1-.26h0l-2.38-.59L10.4,9.3s1.29.29,1.26.31a.91.91,0,0,1,.81,1l-.81,3.24.18.06h-.06l-.12,0L10.52,18.4a.63.63,0,0,1-.79.41s-1.26-.31-1.26-.31l-.85,2L9.87,21l.74.19h0l.49.13-.71,2.87,1.73.43.7-2.84c.47.13.93.24,1.38.35L13.49,25l1.73.43.72-2.87c3,.56,5.17.33,6.1-2.34.76-2.15,0-3.38-1.59-4.19a2.76,2.76,0,0,0,2.21-2.54C23,11.4,21.38,10.27,19.19,9.52ZM18.71,19c-.49,2-3.57,1.16-5,.78l-.34-.08.95-3.81.43.1C16.22,16.35,19.21,17,18.71,19Zm.53-5.57c-.45,1.79-3,1.1-4.18.79l-.29-.07.86-3.46.35.08C17.21,11.08,19.7,11.64,19.24,13.47Z" fill="#fff"/></svg>