<svg id="Layer_1" data-name="Layer 1" xmlns="http://www.w3.org/2000/svg" viewBox="0 0 32 32"><path d="M14.35,2.73a3.34,3.34,0,0,0-.53-1.15A3,3,0,0,0,11.3.29q-3.95,0-7.91,0A3,3,0,0,0,2,.62a3.32,3.32,0,0,0-1.1.94,3.19,3.19,0,0,0-.62,2c0,1.79,0,3.58,0,5.37h0v5.62a2.89,2.89,0,0,0,.6,1.72,3.15,3.15,0,0,0,1.53,1.14,3.26,3.26,0,0,0,1.11.17h7.61a3.24,3.24,0,0,0,1.46-.32,3.17,3.17,0,0,0,1.82-2.93q0-5.41,0-10.83A3.4,3.4,0,0,0,14.35,2.73Zm-3.3,11.68H3.65c-.23,0-.23,0-.23-.23V3.69c0-.26,0-.28.28-.28H11c.24,0,.24,0,.24.25V14.2C11.26,14.36,11.23,14.41,11.05,14.41Z" fill="#0091ff"/><path d="M31.5,16.43a3.29,3.29,0,0,0-.87-1.21,3.08,3.08,0,0,0-2.12-.8h-7a6.11,6.11,0,0,0-1.35.06,4,4,0,0,0-.69.24,2.83,2.83,0,0,0-.8.52,2.86,2.86,0,0,0-1,2.12c0,2.29,0,4.57,0,6.86v4.61a2.34,2.34,0,0,0,.12.64,3.29,3.29,0,0,0,2.14,2.13,3.05,3.05,0,0,0,.95.11c2.56,0,5.12,0,7.68,0a3.31,3.31,0,0,0,1.42-.28A2.91,2.91,0,0,0,31,30.58a3,3,0,0,0,.71-1.83c0-.24,0-.47,0-.71v-5c0-1.77,0-3.55,0-5.33A3.22,3.22,0,0,0,31.5,16.43Zm-2.91,6.64v5.25c0,.25,0,.27-.27.27H21c-.25,0-.26,0-.26-.26V17.81c0-.23,0-.23.22-.23h7.4c.25,0,.25,0,.25.24Z" fill="#0091ff"/><path d="M19.22,10.9a3.27,3.27,0,0,0,1.71.4h7.25a5.2,5.2,0,0,0,1.18-.13,2.94,2.94,0,0,0,1.28-.68,3,3,0,0,0,1.05-2.16c0-1.62,0-3.24,0-4.86a2.89,2.89,0,0,0-.38-1.56A3,3,0,0,0,28.64.3c-1.33,0-2.66,0-4,0h0c-1.27,0-2.55,0-3.82,0A3.41,3.41,0,0,0,20,.37a3.37,3.37,0,0,0-1.07.49,3,3,0,0,0-1.05,1.26,2.68,2.68,0,0,0-.28,1.11v5A2.9,2.9,0,0,0,18,9.73,3.09,3.09,0,0,0,19.22,10.9Zm1.5-7.25c0-.22,0-.24.24-.24h7.36c.24,0,.27,0,.27.27V7.89c0,.24,0,.25-.25.25H21c-.22,0-.23,0-.23-.23Z" fill="#0091ff"/><path d="M13.68,21.83a3.21,3.21,0,0,0-.83-.69,2.84,2.84,0,0,0-1-.38,4.52,4.52,0,0,0-.82-.05H3.76a4.6,4.6,0,0,0-1.11.11,3,3,0,0,0-.92.4A3,3,0,0,0,.6,22.5a2.44,2.44,0,0,0-.3,1.05c0,1.79,0,3.57,0,5.36a1.81,1.81,0,0,0,.12.57,3.25,3.25,0,0,0,.72,1.23,2.87,2.87,0,0,0,2,1c1.39,0,2.78,0,4.17,0h3.78a3.22,3.22,0,0,0,1.58-.34,3.11,3.11,0,0,0,1.48-1.63,2.86,2.86,0,0,0,.23-1V24a3.49,3.49,0,0,0-.07-.85A3.24,3.24,0,0,0,13.68,21.83Zm-2.41,6.55c0,.16-.06.21-.22.21H3.67c-.22,0-.25,0-.25-.25V24.09c0-.23,0-.24.24-.24H11c.17,0,.23,0,.23.21Q11.26,26.22,11.27,28.38Z" fill="#0091ff"/></svg>