<svg id="Layer_1" data-name="Layer 1" xmlns="http://www.w3.org/2000/svg" viewBox="0 0 32 32"><path d="M24.42,27.61A8,8,0,0,1,20,26.23a11.23,11.23,0,0,1-5.09,1.22H12.62C6.15,27.45.9,21.91.9,15.11S6.15,2.76,12.62,2.76h2.25c6.47,0,11.72,5.54,11.72,12.35,0,1.16-.41,4.07-.53,4.95.46,1.78,1.55,4.33,2.66,4.82l2.38,1-2.4,1a9.9,9.9,0,0,1-3.83.71Zm-4.27-4,.59.48a6,6,0,0,0,4.09,1.33,9.7,9.7,0,0,0,1.23-.07,15.66,15.66,0,0,1-2.18-5l-.05-.21,0-.21c.15-1,.54-3.88.54-4.84,0-5.61-4.28-10.17-9.54-10.17H12.62c-5.26,0-9.54,4.56-9.54,10.17s4.28,10.16,9.54,10.16h2.25A9.07,9.07,0,0,0,19.49,24Z" fill="#0091ff"/></svg>