<svg id="Layer_1" data-name="Layer 1" xmlns="http://www.w3.org/2000/svg" viewBox="0 0 32 32"><path d="M26.57,8.39H23.05c0-1.33.07-2.73.07-4.31A4.08,4.08,0,0,0,19,0h-15A4.08,4.08,0,0,0,0,4.08V19a4.08,4.08,0,0,0,4.08,4.08c1.58,0,3,0,4.33-.07v3.5A5.45,5.45,0,0,0,13.85,32H26.57A5.45,5.45,0,0,0,32,26.55V13.84A5.45,5.45,0,0,0,26.57,8.39ZM8.41,13.84v7.4c-1.32,0-2.74.06-4.33.06A2.26,2.26,0,0,1,1.82,19v-15A2.26,2.26,0,0,1,4.08,1.82H19A2.26,2.26,0,0,1,21.3,4.08c0,1.59,0,3-.06,4.31H13.85A5.45,5.45,0,0,0,8.41,13.84ZM30.2,26.55a3.63,3.63,0,0,1-3.63,3.63H13.85a3.63,3.63,0,0,1-3.63-3.63V13.84a3.64,3.64,0,0,1,3.63-3.63H26.57a3.64,3.64,0,0,1,3.63,3.63Z" fill="#0091ff"/></svg>