<svg id="Layer_1" data-name="Layer 1" xmlns="http://www.w3.org/2000/svg" viewBox="0 0 32 32"><path d="M13.65,13.91A1.45,1.45,0,1,0,15,15.35,1.37,1.37,0,0,0,13.65,13.91Zm4.74,0a1.44,1.44,0,1,0,1.33,1.44A1.38,1.38,0,0,0,18.39,13.91Z" fill="#a7a7a7"/><path d="M24.71,3H7.29A2.68,2.68,0,0,0,4.62,5.68V23.25a2.67,2.67,0,0,0,2.67,2.68H22l-.69-2.4L23,25.07l1.57,1.46L27.38,29V5.68A2.68,2.68,0,0,0,24.71,3Zm-5,17s-.47-.56-.86-1.05a4.15,4.15,0,0,0,2.36-1.55,7.65,7.65,0,0,1-1.5.77,8.44,8.44,0,0,1-1.88.55,9,9,0,0,1-3.37,0,10.43,10.43,0,0,1-1.91-.56,8.73,8.73,0,0,1-.95-.44l-.12-.07-.05,0c-.23-.13-.36-.22-.36-.22a4.06,4.06,0,0,0,2.27,1.53L12.45,20a4.7,4.7,0,0,1-4-2,17.46,17.46,0,0,1,1.87-7.58A6.42,6.42,0,0,1,14,9.06l.13.15a8.79,8.79,0,0,0-3.42,1.71s.29-.16.77-.38a9.86,9.86,0,0,1,2.95-.82l.22,0a10.91,10.91,0,0,1,2.63,0,10.57,10.57,0,0,1,3.91,1.25A8.59,8.59,0,0,0,18,9.27l.18-.21a6.44,6.44,0,0,1,3.66,1.36A17.46,17.46,0,0,1,23.67,18,4.76,4.76,0,0,1,19.69,20Z" fill="#a7a7a7"/></svg>