<svg width="38" height="38" viewBox="0 0 38 38" fill="none" xmlns="http://www.w3.org/2000/svg">
<g clip-path="url(#clip0)">
<circle cx="19" cy="19" r="19" fill="#7C7C7C"/>
<g clip-path="url(#clip1)">
<path d="M28.5604 23.5786V34.9183C28.5604 39.8367 25.6766 42.7815 20.3167 42.7815C14.9256 42.7815 11.9478 39.8364 11.9478 34.9183V23.5786H28.5604Z" fill="black"/>
<path d="M23.5274 25.2289L23.5485 25.0964H23.4183L23.3951 25.2289H23.2772L23.3002 25.0964H23.1504L23.1736 24.962H23.3234L23.3445 24.8398H23.1944L23.2187 24.7065H23.3664L23.3907 24.5674H23.5154L23.488 24.7065H23.6138L23.6392 24.5674H23.7639L23.7396 24.7065H23.8905L23.8672 24.8398H23.715L23.6931 24.962H23.8451L23.8221 25.0964H23.6687L23.6455 25.2289H23.5274ZM23.5837 24.9753L23.6111 24.8264H23.453L23.4257 24.9753H23.5837Z" fill="white"/>
<path d="M24.5369 24.9203C24.5006 25.131 24.3748 25.2444 24.1985 25.2444C24.0087 25.2444 23.9106 25.1132 23.9524 24.8741C23.9901 24.6624 24.1203 24.5522 24.289 24.5522C24.4751 24.5522 24.5801 24.6801 24.5369 24.9203ZM24.1069 24.8905C24.0826 25.0271 24.1145 25.1091 24.2116 25.1091C24.3086 25.1091 24.3606 25.0296 24.3827 24.9006C24.4068 24.7662 24.3748 24.6902 24.2778 24.6902C24.1807 24.6902 24.1301 24.7616 24.1069 24.8905Z" fill="white"/>
<path d="M25.2091 24.9203C25.1727 25.131 25.047 25.2444 24.8703 25.2444C24.6806 25.2444 24.5825 25.1132 24.6243 24.8741C24.6617 24.6624 24.7919 24.5522 24.9606 24.5522C25.1484 24.5522 25.252 24.6801 25.2091 24.9203ZM24.7788 24.8905C24.7547 25.0271 24.7867 25.1091 24.8837 25.1091C24.9808 25.1091 25.0325 25.0296 25.0546 24.9006C25.0789 24.7662 25.047 24.6902 24.9499 24.6902C24.8528 24.6902 24.802 24.7616 24.7788 24.8905Z" fill="white"/>
<path d="M25.8807 24.9203C25.8443 25.131 25.7186 25.2444 25.5422 25.2444C25.3525 25.2444 25.2543 25.1132 25.2962 24.8741C25.3336 24.6624 25.4638 24.5522 25.6324 24.5522C25.8189 24.5522 25.9239 24.6801 25.8807 24.9203ZM25.4506 24.8905C25.4263 25.0271 25.4583 25.1091 25.5553 25.1091C25.6524 25.1091 25.7043 25.0296 25.7262 24.9006C25.7505 24.7662 25.7186 24.6902 25.6215 24.6902C25.5244 24.6902 25.4739 24.7616 25.4506 24.8905Z" fill="white"/>
<path d="M28.574 15.6695V8.71484H8.18115V13.2261H9.51669C9.83777 13.2261 10.1557 13.2893 10.4523 13.4121C10.749 13.5349 11.0185 13.7149 11.2456 13.9418C11.4726 14.1688 11.6527 14.4381 11.7756 14.7346C11.8984 15.0311 11.9617 15.3488 11.9617 15.6697V15.6697C11.9617 20.5882 14.9395 23.5326 20.3306 23.5326C25.6902 23.5324 28.574 20.5876 28.574 15.6695Z" fill="black"/>
<path d="M22.6641 14.8849C22.4553 14.442 22.2117 14.2371 21.5886 14.1854L21.1484 14.1491V13.54L21.4243 13.5747C22.2212 13.6747 22.5337 14.3529 22.7133 14.8226L23.484 13.8608L24.0461 13.9302L22.9105 15.4268C23.1117 15.8752 23.3255 16.0637 23.8302 16.0326L24.0669 16.0181L24.0718 16.5099L23.9387 16.5239C23.3099 16.59 23.0346 15.9361 22.8629 15.4855L21.9539 16.6856L21.1484 16.7676L22.6641 14.8849Z" fill="white"/>
<path d="M17.5398 14.825C17.3429 14.399 17.1256 14.2258 16.6285 14.243L16.3221 14.2536V13.7495L16.511 13.7358C17.1357 13.6913 17.4167 14.3042 17.5884 14.7608L18.4616 13.6279L19.2471 13.5732L17.7864 15.3797C18.0012 15.8685 18.2457 16.1046 18.8993 16.1625L19.2471 16.1934V16.8057L19.0483 16.7806C18.2221 16.6768 17.9157 15.9229 17.736 15.4376L16.9044 16.4685L16.3218 16.397L17.5398 14.825Z" fill="white"/>
</g>
</g>
<defs>
<clipPath id="clip0">
<rect width="38" height="38" fill="white"/>
</clipPath>
<clipPath id="clip1">
<rect width="20.3931" height="34.0874" fill="white" transform="translate(8.18115 8.71436)"/>
</clipPath>
</defs>
</svg>