<svg id="Layer_1" data-name="Layer 1" xmlns="http://www.w3.org/2000/svg" viewBox="0 0 32 32"><path d="M19.22,14.05a3.92,3.92,0,0,0-2.64-1.75,5.69,5.69,0,0,0-1,0,3.84,3.84,0,0,0-.21,7.62,5.35,5.35,0,0,0,1.06,0,3.84,3.84,0,0,0,2.8-5.86Zm8.3-1.29a.47.47,0,0,0-.2-.24c-.06,0-.38,0-3.4,0H20.58l-.08,0a.34.34,0,0,0-.18.24c0,.06,0,1,0,3.37v3.29l.05.08a.42.42,0,0,0,.22.18c.08,0,6.57,0,6.66,0a.39.39,0,0,0,.25-.2l0-.08v-3.3C27.53,14.3,27.52,12.79,27.52,12.76Zm-14.66,6.7c0-.08-3.95-6.87-4-6.89a.16.16,0,0,0-.23,0s-.92,1.57-2,3.45c-1.45,2.5-2,3.41-2,3.46s0,.07,0,.12l.06.06h8l0,0A.18.18,0,0,0,12.86,19.46ZM16,32A16,16,0,1,0,0,16,16,16,0,0,0,16,32Z" fill-rule="evenodd"/></svg>