<?xml version="1.0" encoding="utf-8"?>
<!-- Generator: Adobe Illustrator 26.2.1, SVG Export Plug-In . SVG Version: 6.00 Build 0)  -->
<svg version="1.1" id="Layer_1" xmlns="http://www.w3.org/2000/svg" xmlns:xlink="http://www.w3.org/1999/xlink" x="0px" y="0px"
	 viewBox="0 0 100 100" style="enable-background:new 0 0 100 100;" xml:space="preserve">
<style type="text/css">
	.st0{fill:#003DFF;}
	.st1{fill:#FF92DA;}
	.st2{fill:#FF4300;}
	.st3{fill:#0091FF;}
	.st4{fill:#FF00C7;}
</style>
<g id="a">
</g>
<g id="d">
	<g>
		<path class="st0" d="M100,50.6c0.2-14.2-5.8-28-16.3-37.6c-1.5-1.4-3.1-2.7-4.8-3.9c-2.7-1.9-5.7-3.6-8.8-5
			C44.7-6.9,15.2,4.7,4.2,30C1.4,36.3,0.1,42.9,0,49.4c-0.1,10.1,2.9,20.1,8.4,28.4c0.2,0.3,0.4,0.7,0.7,1c0.9,1.3,1.9,2.6,3,3.8
			c0.5,0.6,1.1,1.2,1.6,1.8c4.5,4.7,9.9,8.6,16.3,11.4c0.5,0.2,1,0.4,1.5,0.6c0.1,0.1,0.3,0.1,0.4,0.2c0.5,0.2,0.9,0.4,1.4,0.5
			c0.1,0,0.1,0,0.2,0.1c0.5,0.2,1,0.4,1.6,0.5c0.1,0,0.2,0.1,0.4,0.1c0.4,0.1,0.9,0.3,1.4,0.4c0.1,0,0.2,0,0.3,0.1
			c0.5,0.1,1.1,0.3,1.6,0.4c0.1,0,0.2,0,0.3,0.1c0.5,0.1,0.9,0.2,1.4,0.3c0.1,0,0.2,0,0.3,0.1c0.5,0.1,1.1,0.2,1.6,0.3
			c0.1,0,0.1,0,0.2,0c0.5,0.1,1,0.1,1.5,0.2c0.1,0,0.2,0,0.3,0c1.1,0.1,2.2,0.2,3.3,0.3c0.1,0,0.1,0,0.2,0c1.1,0.1,2.3,0.1,3.4,0
			c0,0,0.1,0,0.1,0c1.1,0,2.3-0.1,3.4-0.2c0,0,0,0,0.1,0c1.1-0.1,2.3-0.3,3.4-0.4c0.3-0.1,0.6-0.1,0.9-0.2l0,0
			c6.5-1.2,12.8-3.7,18.3-7.3v0c5.4-3.5,10.2-8.1,13.9-13.6c0,0,0,0,0-0.1c0.3-0.5,0.7-1,1-1.5l0,0c0.3-0.5,0.6-0.9,0.8-1.4
			c0.1-0.1,0.1-0.2,0.2-0.3c0.3-0.5,0.6-1,0.8-1.5c0,0,0-0.1,0-0.1c0.2-0.5,0.5-0.9,0.7-1.4c0.1-0.1,0.1-0.3,0.2-0.4
			c0.2-0.5,0.5-1,0.7-1.5l0,0c2.3-5.3,3.7-10.9,4.1-16.4C99.9,52.7,100,51.7,100,50.6L100,50.6z"/>
		<path class="st1" d="M84.6,16.4c-2.2-3.5-5.1-6.5-8.5-9c-1.9-1.2-4-2.3-6.1-3.2C44.7-6.9,15.2,4.7,4.2,30
			C-4.9,50.8,1.3,74.5,18,88.4c2.8,2.1,6,4,9.4,5.6c5.5,2.6,11.9,3.2,17.9,1.9c1.7-0.4,3.6-1.1,4.4-2.7c0.9-1.8,0-3.9-1-5.6
			c-2.8-4.9-6.6-9.1-9.7-13.8c-5.3-8.1-8.3-17.6-10.1-27.2c-1.6-8.3-2.2-17.5,2.6-24.5c0.8-1.1,1.6-2.1,2.8-2.8
			c4-2.4,9.4,0.2,11.8,4.2c2.4,4,2.5,8.9,2.7,13.5c0.6,12.6,2.5,25.5,8.2,36.7c1.8,3.5,4,7,7.1,9.5s7.1,4.1,11,3.5
			c6.4-0.9,12.9-6.7,14.8-12.9c7.4-24-4.1-41.7-4.8-46.2C84.2,24.1,87.7,21.4,84.6,16.4L84.6,16.4z"/>
		<path class="st2" d="M27.7,5.9c-13.8,7.6-22.9,20-25.9,35.4S3.7,73.6,15,84.5c2.7,2.6,5.7,4.9,9.2,6.1s7.4,1.5,10.9,0.1
			c0.7-0.3,1.5-0.7,2-1.4c0.8-1,0.8-2.4,0.6-3.7c-0.4-2.6-1.5-5-2.7-7.4c-4.3-8.9-7.5-17.6-9.8-27.3s-0.5-24.3,5.1-29.9
			c6.7-6.7,17.5-5.3,19.9,12.1c1.6,11.1,14.8,52.2,31.5,38.8c7.8-6.3,9.8-13.1,6.5-28.3c-3.5-16.5-11.2-18.9-10-20.3
			c2.1-2.3,4.3,4.5,5.1-1.2c0.2-1.3-0.1-8.3-9.3-14.4C69.6,4.8,63.4,2,58.3,1.2C48.8-0.3,38,0.2,27.7,5.9L27.7,5.9z"/>
		<path class="st3" d="M26.7,7.3C17,13.2,9.4,22.5,5.6,33.2S1.7,56,5.4,66.7C7.6,72.8,11,78.6,16,82.5c2,1.6,4.7,2.9,7.1,2
			c2.1-0.8,3.4-3.1,3.6-5.3s-0.4-4.5-1-6.7c-2.5-9.1-4.9-18.4-4.6-27.9c0.2-5.2,1.2-10.4,3-15.2c1.5-4.1,3.7-8.2,7.2-10.9
			s8.3-4.1,12.4-2.4c3.4,1.4,5.8,4.5,7.2,7.9c1.4,3.4,1.9,7.1,2.5,10.7c0.8,4.5,1.9,9,4,13s5.4,7.6,9.6,9.3c4.2,1.7,9.4,1.4,13-1.5
			c4.7-3.8,5.4-10.8,3.9-16.7c-0.9-3.6-2.4-7-4.3-10.1c-2.3-3.7-5.3-7-8.3-10.1c-0.9-0.9-1.9-2.2-1.3-3.4c0.7-1.3,2.7-1,3.7,0
			c1,1,1.6,2.5,2.6,3.5s3.1,1.2,3.7-0.1c0.2-0.4,0.2-0.9,0.1-1.4c-0.4-3.1-2.7-5.6-5.1-7.6c-2.5-2-5.3-3.7-8.3-4.9
			C54.4-0.5,38.9-0.2,26.7,7.3L26.7,7.3z"/>
		<path class="st0" d="M27.2,8.5C12.4,18,3.5,36.1,5.1,53.7c0.4,4.5,1.7,9.3,5.4,11.9c0.5,0.3,1,0.6,1.6,0.6c1.3,0,2-1.6,2.3-2.9
			c2-7.9,2.2-16.2,3.7-24.2c1.5-8,4.6-16.2,10.8-21.4c4.3-3.6,10.3-5.5,15.6-3.7c5,1.7,8.4,6.4,11.4,10.7l5.8,8.4
			c1.7,2.4,3.4,4.9,6,6.2c2.6,1.3,6.3,1,7.8-1.5c1.2-1.9,0.8-4.3,0.1-6.4c-1-3.3-2.7-6.4-4.9-9.1c-1.3-1.6-2.8-3.1-3.3-5.1
			c-0.5-2,0.5-4.5,2.5-4.7c0.5-0.1,1,0,1.4-0.3c0.7-0.5,0.4-1.6-0.1-2.3c-3.9-6.1-12-7.6-19.2-7.9C42.6,2,33.6,4.4,27.2,8.5
			L27.2,8.5z"/>
		<path class="st1" d="M95.2,28.7c-0.5-1-1.1-1.9-1.8-2.8c-0.4-0.5-0.8-1-1.3-1.2s-1.3-0.3-1.7,0.1c-0.3,0.3-0.5,0.7-0.6,1
			c-0.3,1.2,0,2.5,0.3,3.7c1.9,7.3,5.3,14.4,5.9,21.9c0.8,10.2-1.3,20-2.4,22.8c0.2-0.2,0.4-0.5,0.6-0.7c0.6-1.1,1.1-2.2,1.7-3.4
			C101.8,56.3,101.1,41.3,95.2,28.7L95.2,28.7z"/>
		<path class="st1" d="M31.3,7.3c-5.5,3.7-10.6,8-14.4,13.5s-6.1,12-5.7,18.6c0.1,1.4,0.6,3.2,2,3.3c1.4,0.1,2.2-1.5,2.6-2.9
			c0.9-3.5,1.2-7.2,2.4-10.6c1.2-3.4,3.1-6.4,5-9.3c1.2-1.9,2.5-3.8,4.2-5.3c2.2-2,5-3.2,8-3.7c3.3-0.6,6.7-0.3,9.8,1
			c3.8,1.6,6.8,4.8,9.4,8.1c1.7,2.2,3.3,4.6,5.4,6.4c2.1,1.9,4.8,3.2,7.6,3.1c0.6,0,1.3-0.2,1.8-0.7c0.9-0.9,0.4-2.4-0.3-3.5
			c-3-4.9-7.9-8.3-13-11.1c-1-0.5-2-1.1-2.6-2s-0.8-2.2,0-3c0.6-0.6,1.5-0.7,2.4-0.9c0.8-0.2,1.8-0.7,1.8-1.5c0-0.4-0.2-0.9-0.4-1.2
			c-1-1.3-2.7-1.6-4.3-1.8C45.2,2.9,36.9,3.5,31.3,7.3L31.3,7.3z"/>
		<path class="st4" d="M55.5,84.6C48.1,71,46.1,55.3,42.6,40.2c-0.6-2.4-1.3-5-3.5-6.2c-0.5-0.3-1-0.4-1.5-0.3
			c-0.5,0.1-0.9,0.5-1.3,1c-2.4,2.9-2.6,7.1-2.2,10.8c1.3,13.3,7.9,25.8,17.3,35.2C52.7,82.1,54.1,83.3,55.5,84.6L55.5,84.6z"/>
	</g>
</g>
</svg>
