<svg id="Layer_1" data-name="Layer 1" xmlns="http://www.w3.org/2000/svg" viewBox="0 0 32 32"><path d="M16.62,15.38h8.5V6.88h-8.5Zm2.64-5.85h3.21v3.21H19.26Z" fill="#0091ff"/><path d="M16.62,25.12h8.5v-8.5h-8.5Zm2.64-5.86h3.21v3.21H19.26Z" fill="#0091ff"/><path d="M6.88,15.38h8.5V6.88H6.88ZM9.53,9.53h3.21v3.21H9.53Z" fill="#0091ff"/><path d="M6.88,25.12h8.5v-8.5H6.88Zm2.65-5.86h3.21v3.21H9.53Z" fill="#0091ff"/><path d="M25.71,1H6.29A5.29,5.29,0,0,0,1,6.29V25.71A5.29,5.29,0,0,0,6.29,31H25.71A5.29,5.29,0,0,0,31,25.71V6.29A5.29,5.29,0,0,0,25.71,1Zm0,26.47H6.29a1.76,1.76,0,0,1-1.76-1.76V6.29A1.76,1.76,0,0,1,6.29,4.53H25.71a1.76,1.76,0,0,1,1.76,1.76V25.71A1.76,1.76,0,0,1,25.71,27.47Z" fill="#0091ff"/></svg>