<svg id="Layer_1" data-name="Layer 1" xmlns="http://www.w3.org/2000/svg" viewBox="0 0 32 32"><rect x="19.7" y="19.7" width="3.64" height="3.64" fill="#0091ff"/><rect x="8.66" y="8.66" width="3.64" height="3.64" fill="#0091ff"/><rect x="8.66" y="19.7" width="3.64" height="3.64" fill="#0091ff"/><rect x="19.7" y="8.66" width="3.64" height="3.64" fill="#0091ff"/><path d="M27,1H5A4,4,0,0,0,1,5V27a4,4,0,0,0,4,4H27a4,4,0,0,0,4-4V5A4,4,0,0,0,27,1ZM15.3,26.34H5.66V16.7H15.3Zm0-11H5.66V5.66H15.3Zm11,11H16.7V16.7h9.64Zm0-11H16.7V5.66h9.64Z" fill="#0091ff"/></svg>