<svg id="Layer_1" data-name="Layer 1" xmlns="http://www.w3.org/2000/svg" viewBox="0 0 32 32"><path d="M16.17,12.71A3.29,3.29,0,1,0,19.46,16,3.29,3.29,0,0,0,16.17,12.71Z" fill="#0091ff"/><path d="M22.75,14.21A1.79,1.79,0,1,0,24.54,16,1.8,1.8,0,0,0,22.75,14.21Z" fill="#0091ff"/><path d="M11.39,16A1.8,1.8,0,1,0,9.6,17.79,1.79,1.79,0,0,0,11.39,16Z" fill="#0091ff"/><path d="M16.17,11.22a1.8,1.8,0,1,0-1.79-1.79A1.79,1.79,0,0,0,16.17,11.22Z" fill="#0091ff"/><path d="M16.17,20.78A1.8,1.8,0,1,0,18,22.57,1.79,1.79,0,0,0,16.17,20.78Z" fill="#0091ff"/><path d="M21,19a1.79,1.79,0,1,0,1.8,1.79A1.79,1.79,0,0,0,21,19Z" fill="#0091ff"/><path d="M21,13a1.79,1.79,0,1,0-1.79-1.79A1.8,1.8,0,0,0,21,13Z" fill="#0091ff"/><path d="M11.39,19a1.79,1.79,0,1,0,1.79,1.79A1.79,1.79,0,0,0,11.39,19Z" fill="#0091ff"/><path d="M11.39,13A1.79,1.79,0,1,0,9.6,11.22,1.79,1.79,0,0,0,11.39,13Z" fill="#0091ff"/><circle cx="20.36" cy="5.84" r="1.2" fill="#0091ff"/><circle cx="20.36" cy="26.16" r="1.2" fill="#0091ff"/><circle cx="6.01" cy="20.18" r="1.2" fill="#0091ff"/><path d="M25.73,19a1.2,1.2,0,0,0,0,2.39,1.2,1.2,0,1,0,0-2.39Z" fill="#0091ff"/><circle cx="11.99" cy="5.84" r="1.2" fill="#0091ff"/><circle cx="11.99" cy="26.16" r="1.2" fill="#0091ff"/><circle cx="6.01" cy="11.82" r="1.2" fill="#0091ff"/><path d="M25.73,13a1.2,1.2,0,1,0-1.19-1.19A1.19,1.19,0,0,0,25.73,13Z" fill="#0091ff"/></svg>