<svg id="Layer_1" data-name="Layer 1" xmlns="http://www.w3.org/2000/svg" viewBox="0 0 32 32"><path d="M0,16A16,16,0,1,1,16,32,16,16,0,0,1,0,16ZM16,7.47c-2.32,0-2.61,0-3.52,0a6.24,6.24,0,0,0-2.07.39,4.43,4.43,0,0,0-2.5,2.5,6.24,6.24,0,0,0-.39,2.07c0,.91,0,1.2,0,3.52s0,2.61,0,3.52a6.24,6.24,0,0,0,.39,2.07,4.43,4.43,0,0,0,2.5,2.5,6.24,6.24,0,0,0,2.07.39c.91,0,1.2.05,3.52.05s2.61,0,3.52-.05a6.24,6.24,0,0,0,2.07-.39,4.43,4.43,0,0,0,2.5-2.5,6.24,6.24,0,0,0,.39-2.07c0-.91.05-1.2.05-3.52s0-2.61-.05-3.52a6.24,6.24,0,0,0-.39-2.07,4.43,4.43,0,0,0-2.5-2.5,6.29,6.29,0,0,0-2.07-.39c-.91,0-1.2,0-3.52,0Z" fill="#a7a7a7" fill-rule="evenodd"/><path d="M15.24,9H16c2.28,0,2.55,0,3.45.05a4.63,4.63,0,0,1,1.58.3A2.85,2.85,0,0,1,22.65,11a4.63,4.63,0,0,1,.3,1.58c0,.9.05,1.17.05,3.45s0,2.55-.05,3.45a4.63,4.63,0,0,1-.3,1.58A2.57,2.57,0,0,1,22,22a2.61,2.61,0,0,1-1,.64,4.69,4.69,0,0,1-1.58.29c-.9,0-1.17,0-3.45,0s-2.55,0-3.45,0A5,5,0,0,1,11,22.65,2.69,2.69,0,0,1,10,22a2.57,2.57,0,0,1-.64-1,4.64,4.64,0,0,1-.3-1.59C9,18.55,9,18.27,9,16s0-2.55.05-3.45A4.76,4.76,0,0,1,9.35,11,2.65,2.65,0,0,1,10,10a2.69,2.69,0,0,1,1-.64,5,5,0,0,1,1.58-.29C13.34,9,13.64,9,15.24,9Zm5.32,1.42a1,1,0,1,0,1,1A1,1,0,0,0,20.56,10.42ZM16,11.62A4.38,4.38,0,1,0,20.38,16,4.38,4.38,0,0,0,16,11.62Z" fill="#a7a7a7" fill-rule="evenodd"/><path d="M16,13.16A2.84,2.84,0,1,1,13.16,16,2.85,2.85,0,0,1,16,13.16Z" fill="#a7a7a7" fill-rule="evenodd"/></svg>