<svg id="Layer_1" data-name="Layer 1" xmlns="http://www.w3.org/2000/svg" viewBox="0 0 32 32"><path d="M16,0A16,16,0,1,0,32,16,16,16,0,0,0,16,0Zm.42,21.52c-.08.22-.33.12-.5.12h-5c-1.66,0-3.33,0-5,0-.5,0-.65-.18-.65-.67,0-3.34,0-6.69,0-10,0-.16-.08-.39.13-.46s.26.14.37.24l6,6,4.35,4.32C16.27,21.22,16.49,21.34,16.42,21.52Zm4.63.13A5.67,5.67,0,0,1,15.38,16a5.65,5.65,0,0,1,3.49-5.24A5.79,5.79,0,0,1,21,10.37a5.64,5.64,0,1,1,0,11.28Z" fill="#fff"/><path d="M21,10.37a5.79,5.79,0,0,0-2.17.43A5.67,5.67,0,0,0,15.38,16,5.67,5.67,0,1,0,21,10.37Z" fill="#5265ff"/><path d="M16.15,21.11,11.8,16.79l-6-6c-.11-.1-.21-.3-.37-.24s-.13.3-.13.46c0,3.34,0,6.69,0,10,0,.49.15.67.65.67,1.66,0,3.33,0,5,0h5c.17,0,.42.1.5-.12S16.27,21.22,16.15,21.11Z" fill="#5265ff"/></svg>