<svg id="Layer_1" data-name="Layer 1" xmlns="http://www.w3.org/2000/svg" viewBox="0 0 32 32"><path d="M32,16A16,16,0,1,1,16,0,16,16,0,0,1,32,16ZM21.05,21.65A5.67,5.67,0,0,1,15.38,16a5.65,5.65,0,0,1,3.49-5.24A5.79,5.79,0,0,1,21,10.37a5.64,5.64,0,1,1,0,11.28Zm-11.51,0h6.51c.15,0,.31,0,.37-.13s-.07-.24-.18-.33l-.09-.08c-.58-.59-1.17-1.17-1.76-1.75-.87-.85-1.73-1.71-2.59-2.57l-6-6-.08-.08c-.08-.1-.17-.2-.29-.16s-.15.21-.14.35a.41.41,0,0,1,0,.11v3.76q0,3.13,0,6.27c0,.49.15.67.65.67C7.13,21.64,8.33,21.64,9.54,21.64Z" fill="#a7a7a7" fill-rule="evenodd"/></svg>