<svg width="20" height="16" viewBox="0 0 20 16" fill="none" xmlns="http://www.w3.org/2000/svg">
<g clip-path="url(#clip0_13606_56106)">
<path d="M19.2505 0H13.2505C12.8385 0 12.2615 0.239 11.9705 0.53L4.53151 7.969C4.39125 8.10992 4.3125 8.30067 4.3125 8.4995C4.3125 8.69833 4.39125 8.88907 4.53151 9.03L10.9705 15.469C11.1114 15.6093 11.3022 15.688 11.501 15.688C11.6998 15.688 11.8906 15.6093 12.0315 15.469L19.4705 8.03C19.7625 7.738 20.0005 7.162 20.0005 6.75V0.75C20 0.55125 19.9208 0.360791 19.7803 0.220253C19.6397 0.079715 19.4493 0.000527891 19.2505 0V0ZM15.5005 6C15.3035 5.99993 15.1084 5.96106 14.9263 5.88559C14.7443 5.81012 14.5789 5.69954 14.4396 5.56016C14.3004 5.42078 14.1899 5.25533 14.1145 5.07325C14.0392 4.89118 14.0004 4.69605 14.0005 4.499C14.0006 4.30195 14.0395 4.10685 14.1149 3.92482C14.1904 3.7428 14.301 3.57742 14.4404 3.43813C14.5797 3.29884 14.7452 3.18837 14.9273 3.11303C15.1093 3.03768 15.3045 2.99893 15.5015 2.999C15.8995 2.99913 16.2811 3.15735 16.5624 3.43884C16.8437 3.72033 17.0016 4.10204 17.0015 4.5C17.0014 4.89796 16.8432 5.27956 16.5617 5.56087C16.2802 5.84217 15.8985 6.00013 15.5005 6V6Z" fill="#A7A7A7"/>
<path d="M2.00051 8.5L10.5005 0H9.25051C8.83851 0 8.26151 0.239 7.97051 0.53L0.531514 7.969C0.391247 8.10992 0.3125 8.30067 0.3125 8.4995C0.3125 8.69833 0.391247 8.88907 0.531514 9.03L6.97051 15.469C7.11144 15.6093 7.30218 15.688 7.50101 15.688C7.69985 15.688 7.89059 15.6093 8.03151 15.469L8.50151 14.999L2.00151 8.499L2.00051 8.5Z" fill="#A7A7A7"/>
</g>
<defs>
<clipPath id="clip0_13606_56106">
<rect width="20" height="16" fill="white"/>
</clipPath>
</defs>
</svg>
