<svg width="34" height="34" viewBox="0 0 34 34" fill="none" xmlns="http://www.w3.org/2000/svg">
<path fill-rule="evenodd" clip-rule="evenodd" d="M6 8.66667C6 8.22464 6.16788 7.80072 6.4667 7.48816C6.76552 7.1756 7.17081 7 7.59341 7H26.7143C27.1369 7 27.5422 7.1756 27.841 7.48816C28.1398 7.80072 28.3077 8.22464 28.3077 8.66667C28.3077 9.10869 28.1398 9.53262 27.841 9.84518C27.5422 10.1577 27.1369 10.3333 26.7143 10.3333H7.59341C7.17081 10.3333 6.76552 10.1577 6.4667 9.84518C6.16788 9.53262 6 9.10869 6 8.66667ZM6 17C6 16.558 6.16788 16.134 6.4667 15.8215C6.76552 15.5089 7.17081 15.3333 7.59341 15.3333H26.7143C27.1369 15.3333 27.5422 15.5089 27.841 15.8215C28.1398 16.134 28.3077 16.558 28.3077 17C28.3077 17.442 28.1398 17.866 27.841 18.1785C27.5422 18.4911 27.1369 18.6667 26.7143 18.6667H7.59341C7.17081 18.6667 6.76552 18.4911 6.4667 18.1785C6.16788 17.866 6 17.442 6 17ZM6 25.3333C6 24.8913 6.16788 24.4674 6.4667 24.1548C6.76552 23.8423 7.17081 23.6667 7.59341 23.6667H26.7143C27.1369 23.6667 27.5422 23.8423 27.841 24.1548C28.1398 24.4674 28.3077 24.8913 28.3077 25.3333C28.3077 25.7754 28.1398 26.1993 27.841 26.5118C27.5422 26.8244 27.1369 27 26.7143 27H7.59341C7.17081 27 6.76552 26.8244 6.4667 26.5118C6.16788 26.1993 6 25.7754 6 25.3333Z" fill="#7C7C7C"/>
</svg>
