<svg width="20" height="20" viewBox="0 0 20 20" fill="none" xmlns="http://www.w3.org/2000/svg">
<path d="M10 20C15.5228 20 20 15.5228 20 10C20 4.47715 15.5228 0 10 0C4.47715 0 0 4.47715 0 10C0 15.5228 4.47715 20 10 20Z" fill="#0CE466"/>
<path fill-rule="evenodd" clip-rule="evenodd" d="M10.0018 11.081C8.85785 11.081 7.92969 10.1537 7.92969 9.00889C7.92969 7.86406 8.85785 6.93683 10.0018 6.93683C11.1457 6.93683 12.0738 7.86406 12.0738 9.00889C12.0738 10.1537 11.1457 11.081 10.0018 11.081ZM9.10085 9.00889C9.10085 9.50664 9.50442 9.90979 10.0018 9.90979C10.4991 9.90979 10.9027 9.50664 10.9027 9.00889C10.9027 8.51114 10.4991 8.10799 10.0018 8.10799C9.50442 8.10799 9.10085 8.51114 9.10085 9.00889Z" fill="black"/>
<path fill-rule="evenodd" clip-rule="evenodd" d="M3.33594 9.01169L7.2999 5.04498H12.7053L16.6693 9.01169L10.0026 15.6756L3.33594 9.01169ZM13.0656 7.56748C11.3814 5.87584 8.62379 5.87584 6.93954 7.5675L5.4981 9.00896L6.93954 10.4504C8.62379 12.142 11.3814 12.142 13.0656 10.4504L14.5071 9.00896L13.0656 7.56748Z" fill="black"/>
</svg>
