<svg id="Layer_1" data-name="Layer 1" xmlns="http://www.w3.org/2000/svg" viewBox="0 0 32 32"><path d="M32,15.25v1.5a.24.24,0,0,0,0,.08,15.14,15.14,0,0,1-.31,2.41A16,16,0,0,1,17.1,32l-.63,0h-.95l-.1,0c-.54,0-1.08-.07-1.62-.14a15.47,15.47,0,0,1-5-1.56A16,16,0,0,1,.18,13.61,15.19,15.19,0,0,1,1.63,9,15.82,15.82,0,0,1,8.85,1.69,15.52,15.52,0,0,1,14.92,0l.6,0h1l.08,0c.54,0,1.09.07,1.62.14a15.61,15.61,0,0,1,5.12,1.61,16,16,0,0,1,8.65,13C32,15,32,15.1,32,15.25ZM12.71,20.57V15.8a4.41,4.41,0,0,1,.22-1.49,1.87,1.87,0,0,1,1.94-1.39,1.55,1.55,0,0,1,1.43.91,2.06,2.06,0,0,1,.17.88c0,1.34,0,2.67,0,4a1.91,1.91,0,0,0,.39,1.1,1.83,1.83,0,0,0,1,.66l.32.08V12.17a.33.33,0,0,0-.08-.19,2.88,2.88,0,0,0-.77-.62A3.77,3.77,0,0,0,15,10.94a3.45,3.45,0,0,0-1.51.52,3.37,3.37,0,0,0-1.11,1.14l-.06.09a2.64,2.64,0,0,0-1.42-1.49,3.72,3.72,0,0,0-1.35-.29,3,3,0,0,0-2.76,1.32l-.17.27a.38.38,0,0,0,0-.12,1.4,1.4,0,0,0-.92-1.21,1.56,1.56,0,0,0-.52-.11H4.22v7.56a2.24,2.24,0,0,0,.11.67,2,2,0,0,0,2.26,1.27V15.73a4.12,4.12,0,0,1,.23-1.43,1.88,1.88,0,0,1,1.95-1.38A1.5,1.5,0,0,1,10.22,14a2.65,2.65,0,0,1,.11.74c0,1.27,0,2.54,0,3.81a2,2,0,0,0,.24,1,1.86,1.86,0,0,0,.77.75,2.37,2.37,0,0,0,1.37.24Zm7.69-8a1.41,1.41,0,0,0-.24-1,1.1,1.1,0,0,0-.42-.35,1.17,1.17,0,0,0-.52-.12V23.23a1.06,1.06,0,0,0,.19.59,1,1,0,0,0,.47.41,1,1,0,0,0,.52.12V19a3.81,3.81,0,0,0,.85.85,4.33,4.33,0,0,0,3.29.77,4.06,4.06,0,0,0,3.29-2.43A5.92,5.92,0,0,0,28,14a4.09,4.09,0,0,0-1.88-2.43A4.64,4.64,0,0,0,23,11a3.72,3.72,0,0,0-2.56,1.57Z"/><path d="M20.27,15.82a4.48,4.48,0,0,1,.63-2.35,2.93,2.93,0,0,1,1-1A3.2,3.2,0,0,1,23.29,12a3.65,3.65,0,0,1,1.9.3,3.08,3.08,0,0,1,1.64,1.89,4.86,4.86,0,0,1,0,3.15,3.15,3.15,0,0,1-3.13,2.28,3.21,3.21,0,0,1-2.41-.94,3.43,3.43,0,0,1-.94-1.91C20.33,16.46,20.3,16.14,20.27,15.82Z"/></svg>