<svg id="Layer_1" data-name="Layer 1" xmlns="http://www.w3.org/2000/svg" viewBox="0 0 32 32"><path d="M8.33,14v8.9h2.45V17.41c0-3.16,1.9-5.06,5.19-5.06s5.24,1.89,5.24,5v5.49h2.46V14L16,9.36Z" fill="#231f20"/><path d="M16,13.84c-2.42,0-3.71,1.23-3.71,3.56v5.49h7.49V17.4C19.74,15.07,18.39,13.84,16,13.84Z" fill="#231f20"/><path d="M16,0A16,16,0,1,0,32,16,16,16,0,0,0,16,0Zm9.14,24.38H6.86V13.15L16,7.62l9.14,5.53Z" fill="#231f20"/><path d="M6.86,13.15V24.38H25.14V13.15L16,7.62Zm12.88,9.74H12.25V17.4c0-2.33,1.29-3.56,3.71-3.56s3.78,1.23,3.78,3.56Zm3.93,0H21.21V17.4c0-3.16-2-5-5.24-5s-5.19,1.9-5.19,5.06V22.9H8.33V14L16,9.36,23.67,14Z" fill="#e4e4e4"/></svg>