<svg id="Layer_1" data-name="Layer 1" xmlns="http://www.w3.org/2000/svg" viewBox="0 0 32 32"><path d="M30.78,24.85a3.18,3.18,0,0,0-.65-1.63,4.2,4.2,0,0,0-.77-.72,7.1,7.1,0,0,1-.74-.66,6.09,6.09,0,0,1-.9-1.16c-.84-1.37-1-3.33-1.27-5.4-.3-2.78-.63-5.93-2.64-8.41a8.08,8.08,0,0,0-4.34-2.75,3.07,3.07,0,0,0,.2-1.06,3.09,3.09,0,0,0-6.18,0,3,3,0,0,0,.19,1A8.06,8.06,0,0,0,9.16,6.87c-2,2.48-2.35,5.64-2.64,8.42-.22,2.07-.43,4-1.29,5.41a5.67,5.67,0,0,1-.87,1.13,9.58,9.58,0,0,1-.76.66,4,4,0,0,0-.78.73,3.14,3.14,0,0,0-.65,1.61,3.24,3.24,0,0,0,.3,1.71,3.07,3.07,0,0,0,1.17,1.3,3,3,0,0,0,1.64.45h6.64A4.11,4.11,0,0,0,12.57,30a4.49,4.49,0,0,0,1.67,1.47,4.88,4.88,0,0,0,2.19.53h0a4.82,4.82,0,0,0,2.18-.51A4.49,4.49,0,0,0,20.32,30,4,4,0,0,0,21,28.3h6.75a3,3,0,0,0,1.58-.45,3,3,0,0,0,1.16-1.29A3.18,3.18,0,0,0,30.78,24.85ZM16.58,2.43a.65.65,0,0,1,.66.63.66.66,0,0,1-1.32,0A.65.65,0,0,1,16.58,2.43Zm1.74,26.23a2.15,2.15,0,0,1-.77.66,2.56,2.56,0,0,1-1.09.25h0a2.41,2.41,0,0,1-1.1-.26,1.91,1.91,0,0,1-.76-.67,1.66,1.66,0,0,1-.18-.35H18.5A1.35,1.35,0,0,1,18.32,28.66Zm2.09-2.79H12.59m-.25,0H5.24a.63.63,0,0,1-.33-.09.62.62,0,0,1-.25-.28.83.83,0,0,1-.07-.41.68.68,0,0,1,.14-.36,2.16,2.16,0,0,1,.36-.32,10.82,10.82,0,0,0,1-.85A8.21,8.21,0,0,0,7.31,22c1.14-1.84,1.38-4.17,1.62-6.42.28-2.56.56-5.22,2.13-7.15.74-.93,2.11-2.18,5.39-2.27,3.33.1,4.71,1.35,5.47,2.28C23.48,10.32,23.76,13,24,15.54c.24,2.25.49,4.58,1.62,6.4a8.52,8.52,0,0,0,1.24,1.61,8.71,8.71,0,0,0,1,.85,2.7,2.7,0,0,1,.36.32.84.84,0,0,1,.15.38.77.77,0,0,1-.07.4.73.73,0,0,1-.26.29.61.61,0,0,1-.3.08H20.58" fill="#0091ff"/></svg>