<svg id="Layer_1" data-name="Layer 1" xmlns="http://www.w3.org/2000/svg" viewBox="0 0 32 32"><path d="M32,14.94v2.15c-.05.4-.09.8-.15,1.2a15.65,15.65,0,0,1-5.44,9.83,15.54,15.54,0,0,1-12.31,3.72A15.32,15.32,0,0,1,4,26.51,15.57,15.57,0,0,1,.14,14.27a15.38,15.38,0,0,1,4-9,15.72,15.72,0,0,1,9.14-5C13.81.16,14.34.11,14.86,0H17.1c.52.06,1,.11,1.55.2A16,16,0,0,1,31.7,13C31.82,13.66,31.88,14.3,32,14.94ZM16,27.6A11.51,11.51,0,1,0,4.53,16.1,11.47,11.47,0,0,0,16,27.6Z" fill="#a7a7a7"/><path d="M10.85,18.14h1.41c.3,0,.32,0,.33.32s0,.29,0,.43a1.08,1.08,0,0,0,.35.6,1.05,1.05,0,0,0,.64.24h1.57c.18,0,.24-.08.24-.25V18.21c0-.16-.05-.23-.21-.21l-.55.05c-.2,0-.25-.05-.19-.25A9.64,9.64,0,0,0,14.55,13a7.1,7.1,0,0,0-.72-1.89c0-.07-.12-.14-.05-.23a.24.24,0,0,1,.23,0l1.07.14c.12,0,.29.09.34-.07a.46.46,0,0,0-.08-.53A.79.79,0,0,1,15,9.7a.71.71,0,0,1,.15-.48.78.78,0,0,1,.88-.28.81.81,0,0,1,.38.28.75.75,0,0,1,0,.95.89.89,0,0,0-.2.62c0,.23.07.33.29.34s.26,0,.39,0a1.27,1.27,0,0,1,1,.48,5.91,5.91,0,0,1,1.37,6,1.93,1.93,0,0,1-.8,1.08.26.26,0,0,1-.38,0A2.61,2.61,0,0,0,16.54,18c-.26,0-.31,0-.31.28s0,.76,0,1.14c0,.21.07.3.29.3h1.85a1,1,0,0,0,1-.69.33.33,0,0,1,.34-.24,7,7,0,0,0,2.87-.7.64.64,0,0,1,.19-.08.2.2,0,0,1,.15,0,.19.19,0,0,1,.1.1.2.2,0,0,1-.07.26l-.08.05a3.45,3.45,0,0,0-1.58,2,8,8,0,0,1-.55,1.23c-.25.44-.48.53-.93.32a1.41,1.41,0,0,0-1.35,0,1.2,1.2,0,0,1-1.2,0,1.41,1.41,0,0,0-1.42,0,1.17,1.17,0,0,1-1.18,0,1.4,1.4,0,0,0-1.41,0,1.23,1.23,0,0,1-.59.15A1.2,1.2,0,0,1,12,22a1.4,1.4,0,0,0-1.4,0c-.31.16-.48.09-.66-.21a6,6,0,0,1-.92-3.34c0-.22.09-.3.3-.29Z" fill="#a7a7a7"/><path d="M13.87,15.69c0,.5,0,1,0,1.5,0,.2-.07.28-.27.28H10.83c-.25,0-.29-.07-.2-.31l1.47-3.81c.06-.14.14-.19.28-.12l1.32.62a.3.3,0,0,1,.17.32Z" fill="#a7a7a7"/></svg>