<svg width="20" height="20" viewBox="0 0 20 20" fill="none" xmlns="http://www.w3.org/2000/svg">
<path d="M20 10C20 15.5225 15.5225 20 10 20C4.47747 20 0 15.5225 0 10C0 4.47747 4.47747 0 10 0C15.5237 0 20 4.47747 20 10Z" fill="#2081E2"/>
<path d="M4.93615 10.336L4.97931 10.2682L7.58071 6.19864C7.61871 6.13904 7.70811 6.14522 7.73686 6.20993C8.17146 7.18393 8.54646 8.39524 8.37078 9.14935C8.29578 9.45962 8.09031 9.87984 7.85913 10.2682C7.82933 10.3247 7.79646 10.3802 7.76153 10.4336C7.74509 10.4583 7.71735 10.4727 7.68755 10.4727H5.01218C4.94026 10.4727 4.89815 10.3946 4.93615 10.336Z" fill="white"/>
<path d="M16.5281 11.0922V11.7364C16.5281 11.7734 16.5055 11.8062 16.4726 11.8206C16.2713 11.9069 15.5819 12.2234 15.2952 12.622C14.5637 13.6402 14.0048 15.096 12.7555 15.096H7.54344C5.69615 15.096 4.19922 13.5939 4.19922 11.7405V11.6809C4.19922 11.6316 4.23929 11.5915 4.28862 11.5915H7.19411C7.25164 11.5915 7.29377 11.6449 7.28864 11.7014C7.26809 11.8905 7.30302 12.0836 7.3924 12.2593C7.56502 12.6097 7.92255 12.8285 8.30886 12.8285H9.74722V11.7056H8.32529C8.25235 11.7056 8.2092 11.6213 8.25133 11.5617C8.26673 11.5381 8.2842 11.5134 8.30269 11.4857C8.43729 11.2946 8.6294 10.9977 8.82051 10.6596C8.95097 10.4316 9.07735 10.1881 9.17906 9.94356C9.19962 9.89938 9.21606 9.85418 9.23249 9.80998C9.26024 9.73191 9.289 9.65896 9.30955 9.58602C9.33009 9.52438 9.34653 9.45964 9.36297 9.39902C9.41126 9.19149 9.43182 8.97162 9.43182 8.74353C9.43182 8.65416 9.42771 8.56067 9.41949 8.47127C9.41537 8.37367 9.40304 8.27607 9.39071 8.17847C9.38249 8.09216 9.36709 8.00689 9.35064 7.91751C9.33009 7.78702 9.30133 7.65758 9.26844 7.52709L9.25715 7.47778C9.23249 7.3884 9.21195 7.30311 9.18317 7.21373C9.10202 6.93324 9.00851 6.65996 8.90989 6.40413C8.87393 6.30242 8.83282 6.20482 8.79173 6.10722C8.73111 5.96029 8.66946 5.82673 8.61297 5.70036C8.5842 5.64282 8.55953 5.59042 8.53489 5.537C8.50715 5.47638 8.47837 5.41578 8.44962 5.35822C8.42906 5.31404 8.40542 5.27296 8.389 5.23187L8.21331 4.9072C8.18864 4.86302 8.22975 4.81062 8.27802 4.82398L9.37735 5.12193H9.38044C9.38249 5.12193 9.38353 5.12296 9.38455 5.12296L9.52942 5.16302L9.68866 5.20822L9.74722 5.22467V4.57124C9.74722 4.25582 9.99997 4 10.3123 4C10.4685 4 10.6102 4.06369 10.712 4.16747C10.8137 4.27124 10.8774 4.41302 10.8774 4.57124V5.54111L10.9945 5.57398C11.0038 5.57707 11.013 5.58118 11.0212 5.58733C11.05 5.60891 11.0911 5.64078 11.1435 5.6798C11.1846 5.71269 11.2288 5.75276 11.2822 5.79384C11.388 5.87913 11.5144 5.98907 11.6531 6.11542C11.69 6.14729 11.726 6.18016 11.7589 6.21304C11.9377 6.37947 12.138 6.57469 12.3291 6.79044C12.3825 6.85104 12.4349 6.91269 12.4884 6.97742C12.5418 7.04318 12.5983 7.10791 12.6476 7.17264C12.7123 7.25893 12.7822 7.34831 12.8428 7.44182C12.8716 7.486 12.9044 7.5312 12.9322 7.57538C13.0103 7.69353 13.0791 7.8158 13.1449 7.93804C13.1726 7.99456 13.2014 8.0562 13.226 8.11682C13.299 8.28018 13.3565 8.44662 13.3935 8.61307C13.4048 8.64902 13.413 8.68807 13.4171 8.723V8.7312C13.4294 8.78053 13.4336 8.83293 13.4377 8.88636C13.4541 9.05689 13.4459 9.22744 13.4089 9.39902C13.3935 9.47198 13.373 9.5408 13.3483 9.61376C13.3236 9.68362 13.299 9.75656 13.2671 9.8254C13.2055 9.9682 13.1325 10.111 13.0462 10.2446C13.0185 10.2939 12.9856 10.3463 12.9527 10.3956C12.9168 10.448 12.8798 10.4973 12.8469 10.5456C12.8017 10.6073 12.7534 10.672 12.7041 10.7295C12.6599 10.7901 12.6147 10.8508 12.5654 10.9042C12.4966 10.9853 12.4308 11.0624 12.362 11.1364C12.3209 11.1847 12.2767 11.234 12.2315 11.2782C12.1873 11.3275 12.1421 11.3716 12.101 11.4127C12.0322 11.4816 11.9746 11.535 11.9264 11.5792L11.8133 11.683C11.7969 11.6973 11.7753 11.7056 11.7527 11.7056H10.8774V12.8285H11.9788C12.2253 12.8285 12.4596 12.7412 12.6486 12.5809C12.7134 12.5244 12.9959 12.2799 13.3298 11.911C13.3411 11.8987 13.3555 11.8895 13.3719 11.8854L16.4141 11.0059C16.4706 10.9894 16.5281 11.0326 16.5281 11.0922Z" fill="white"/>
</svg>
