<svg width="13" height="18" viewBox="0 0 13 18" fill="none" xmlns="http://www.w3.org/2000/svg">
<path d="M4.07997 11.5758H7.41597C7.24797 8.91181 12.096 9.27181 12.096 4.95181C12.096 1.92781 9.79197 0.0078125 6.31197 0.0078125C2.71197 0.0078125 0.455966 2.21581 0.671966 5.55181L4.00797 5.83981C3.76797 4.11181 4.70397 2.98381 6.31197 2.98381C7.60797 2.98381 8.49597 3.77581 8.49597 4.95181C8.49597 7.71181 3.64797 7.39981 4.07997 11.5758ZM5.85597 17.1918C7.03197 17.1918 7.94397 16.3038 7.94397 15.1518C7.94397 13.9758 7.03197 13.0878 5.85597 13.0878C4.67997 13.0878 3.79197 13.9758 3.79197 15.1518C3.79197 16.3038 4.67997 17.1918 5.85597 17.1918Z" fill="#E4E4E4"/>
</svg>
