<svg id="Layer_1" data-name="Layer 1" xmlns="http://www.w3.org/2000/svg" viewBox="0 0 32 32"><path d="M16,0A16,16,0,1,0,32,16,16,16,0,0,0,16,0Zm5.54,26.1a4.65,4.65,0,0,1-4.19-2.73h0a8.48,8.48,0,0,1-2.25.3,8.63,8.63,0,1,1,8.73-8.6,8.41,8.41,0,0,1-3.29,6.73c.62.94,1.28,1.57,2.18,1.57A1.43,1.43,0,0,0,24.17,22h1.29A3.8,3.8,0,0,1,21.54,26.1Z" fill="#a7a7a7" fill-rule="evenodd"/><path d="M15.1,8.12c-3.3,0-4.73,2.35-4.73,6.94S11.8,22,15.1,22a5.07,5.07,0,0,0,1.44-.19c-.68-1.34-1.49-2.7-3-2.7a2,2,0,0,0-.87.18l-.53-1.06a4.62,4.62,0,0,1,3-1,4.43,4.43,0,0,1,4,2.29,10.82,10.82,0,0,0,.74-4.41C19.88,10.47,18.45,8.12,15.1,8.12Z" fill="#a7a7a7" fill-rule="evenodd"/></svg>