<svg width="12" height="12" viewBox="0 0 12 12" fill="none" xmlns="http://www.w3.org/2000/svg">
<path fill-rule="evenodd" clip-rule="evenodd" d="M6 0C2.68629 0 0 2.68629 0 6C0 9.31371 2.68629 12 6 12C9.31371 12 12 9.31371 12 6C12 2.68629 9.31371 0 6 0ZM9.76471 5.87156L6.12046 2.00267L5.64516 2.00222L2 5.87111L2.84705 6.53777C3.87388 5.34711 4.78587 4.14667 5.42682 3.24889L5.50399 3.28533C5.4014 4.36533 5.35011 5.95422 5.35011 7.33644L5.35011 10L6.40282 10L6.40282 7.33644C6.40282 5.95422 6.35153 4.36533 6.26165 3.27333L6.33881 3.24934C6.96704 4.13822 7.90446 5.36133 8.91764 6.53822L9.76471 5.87156Z" fill="#71CB88"/>
</svg>
