<?xml version="1.0" encoding="UTF-8"?><svg id="a" xmlns="http://www.w3.org/2000/svg" viewBox="0 0 1000.11 1000"><path d="M919.38,1000l-175.22-175.5c-80.62,63.03-179.34,97.21-283.29,97.21-123.08,0-238.83-47.94-325.88-134.96C47.94,699.62,0,583.92,0,460.87S47.94,222.07,134.99,134.99C222.04,47.94,337.77,0,460.87,0s238.86,47.94,325.88,134.99,134.96,202.81,134.96,325.88c0,103.78-34.07,202.33-96.99,282.95l175.38,175.66-80.73,80.51ZM460.87,114.03c-92.65,0-179.76,36.08-245.26,101.58-65.5,65.53-101.58,152.64-101.58,245.26s36.08,179.73,101.61,245.26c65.48,65.48,152.58,101.56,245.23,101.56s179.78-36.08,245.26-101.56c65.48-65.53,101.56-152.67,101.56-245.26s-36.08-179.76-101.56-245.26c-65.48-65.5-152.61-101.58-245.26-101.58Z"/></svg>
