<svg id="Layer_1" data-name="Layer 1" xmlns="http://www.w3.org/2000/svg" viewBox="0 0 32 32"><path d="M8.8,31.31a5.65,5.65,0,0,1-5.37-4H0v-3.2H3.43a5.6,5.6,0,1,1,5.37,7.2Zm0-8a2.4,2.4,0,1,0,2.4,2.4A2.39,2.39,0,0,0,8.8,23.31Zm23.2,4H16v-3.2H32Zm-8.8-5.6a5.6,5.6,0,1,1,5.37-7.2H32v3.2H28.57A5.65,5.65,0,0,1,23.2,21.71Zm0-8a2.4,2.4,0,1,0,2.4,2.4A2.39,2.39,0,0,0,23.2,13.71Zm-7.2,4H0v-3.2H16Zm-4-5.6a5.6,5.6,0,1,1,5.37-7.2H32v3.2H17.37A5.65,5.65,0,0,1,12,12.11Zm0-8a2.4,2.4,0,1,0,2.4,2.52V6.51A2.39,2.39,0,0,0,12,4.11Zm-7.2,4H0V4.91H4.8Z" fill="#0091ff"/></svg>