<svg width="20" height="18" viewBox="0 0 20 18" fill="none" xmlns="http://www.w3.org/2000/svg">
<path fill-rule="evenodd" clip-rule="evenodd" d="M19.578 3.99998C19.4053 3.7006 19.1578 3.45111 18.8599 3.27585C18.5619 3.10059 18.2237 3.00554 17.878 2.99998H5.07805L4.49805 0.739976C4.43945 0.521814 4.30871 0.32992 4.12712 0.195548C3.94554 0.0611759 3.72381 -0.00775711 3.49805 -2.38711e-05H1.49805C1.23283 -2.38711e-05 0.978476 0.105333 0.79094 0.292869C0.603404 0.480406 0.498047 0.73476 0.498047 0.999976C0.498047 1.26519 0.603404 1.51955 0.79094 1.70708C0.978476 1.89462 1.23283 1.99998 1.49805 1.99998H2.73805L5.49805 12.26C5.55665 12.4781 5.68739 12.67 5.86897 12.8044C6.05055 12.9388 6.27228 13.0077 6.49805 13H15.498C15.6827 12.9994 15.8636 12.9477 16.0207 12.8507C16.1778 12.7536 16.3049 12.6149 16.388 12.45L19.668 5.88998C19.8102 5.59199 19.8764 5.26345 19.8607 4.93366C19.845 4.60387 19.7479 4.2831 19.578 3.99998ZM5.99805 18C6.82647 18 7.49805 17.3284 7.49805 16.5C7.49805 15.6716 6.82647 15 5.99805 15C5.16962 15 4.49805 15.6716 4.49805 16.5C4.49805 17.3284 5.16962 18 5.99805 18ZM17.498 16.5C17.498 17.3284 16.8265 18 15.998 18C15.1696 18 14.498 17.3284 14.498 16.5C14.498 15.6716 15.1696 15 15.998 15C16.8265 15 17.498 15.6716 17.498 16.5Z" fill="#F5F5F5"/>
</svg>
