<svg width="10" height="14" viewBox="0 0 10 14" fill="none" xmlns="http://www.w3.org/2000/svg">
<path fill-rule="evenodd" clip-rule="evenodd" d="M4.50063 0C4.63324 0 4.76042 0.0526784 4.85419 0.146447C4.94795 0.240215 5.00063 0.367392 5.00063 0.5L5.00063 12.293L8.14663 9.146C8.24052 9.05211 8.36786 8.99937 8.50063 8.99937C8.63341 8.99937 8.76075 9.05211 8.85463 9.146C8.94852 9.23989 9.00126 9.36722 9.00126 9.5C9.00126 9.63278 8.94852 9.76011 8.85463 9.854L4.85463 13.854C4.80819 13.9006 4.75301 13.9375 4.69226 13.9627C4.63152 13.9879 4.5664 14.0009 4.50063 14.0009C4.43486 14.0009 4.36974 13.9879 4.309 13.9627C4.24825 13.9375 4.19308 13.9006 4.14663 13.854L0.146631 9.854C0.0527449 9.76011 -3.1283e-09 9.63278 0 9.5C3.1283e-09 9.36722 0.0527448 9.23989 0.146631 9.146C0.240518 9.05211 0.367856 8.99937 0.500632 8.99937C0.633407 8.99937 0.760745 9.05211 0.854632 9.146L4.00063 12.293L4.00063 0.5C4.00063 0.367392 4.05331 0.240215 4.14708 0.146447C4.24085 0.0526784 4.36802 0 4.50063 0Z" fill="#7C7C7C"/>
</svg>
