<svg width="10" height="14" viewBox="0 0 10 14" fill="none" xmlns="http://www.w3.org/2000/svg">
<path fill-rule="evenodd" clip-rule="evenodd" d="M4.50132 14.0009C4.36871 14.0009 4.24154 13.9482 4.14777 13.8544C4.054 13.7607 4.00132 13.6335 4.00132 13.5009L4.00132 1.70788L0.855323 4.85488C0.761436 4.94877 0.634098 5.00152 0.501323 5.00152C0.368547 5.00152 0.241209 4.94877 0.147323 4.85488C0.0534361 4.761 0.000691279 4.63366 0.000691291 4.50088C0.000691302 4.36811 0.0534362 4.24077 0.147323 4.14688L4.14732 0.146884C4.19377 0.100321 4.24894 0.0633789 4.30969 0.0381723C4.37044 0.0129658 4.43556 -8.98228e-06 4.50132 -8.97653e-06C4.56709 -8.97078e-06 4.63221 0.0129658 4.69296 0.0381723C4.7537 0.0633789 4.80888 0.100321 4.85532 0.146885L8.85532 4.14688C8.94921 4.24077 9.00195 4.36811 9.00195 4.50089C9.00195 4.63366 8.94921 4.761 8.85532 4.85489C8.76144 4.94877 8.6341 5.00152 8.50132 5.00152C8.36855 5.00152 8.24121 4.94877 8.14732 4.85489L5.00132 1.70788L5.00132 13.5009C5.00132 13.6335 4.94864 13.7607 4.85487 13.8544C4.76111 13.9482 4.63393 14.0009 4.50132 14.0009Z" fill="#7C7C7C"/>
</svg>
