<svg width="7" height="16" viewBox="0 0 7 16" fill="none" xmlns="http://www.w3.org/2000/svg">
<path d="M3.278 0.268647C3.29995 0.225116 3.33208 0.188839 3.37108 0.16358C3.41007 0.138321 3.4545 0.125 3.49975 0.125C3.545 0.125 3.58942 0.138321 3.62842 0.16358C3.66741 0.188839 3.69955 0.225116 3.72149 0.268647L6.46818 5.71077C6.48958 5.75323 6.50054 5.80109 6.49998 5.84963C6.49941 5.89817 6.48734 5.94571 6.46496 5.98754C6.44258 6.02938 6.41066 6.06407 6.37235 6.08817C6.33405 6.11228 6.29069 6.12497 6.24656 6.125L0.753441 6.125C0.709311 6.12497 0.665952 6.11228 0.627648 6.08817C0.589344 6.06407 0.557423 6.02938 0.53504 5.98754C0.512656 5.94571 0.500585 5.89817 0.500021 5.84963C0.499456 5.80109 0.510417 5.75323 0.531819 5.71077L3.278 0.268647Z" fill="#A7A7A7"/>
<path d="M3.722 14.9814C3.70005 15.0249 3.66792 15.0612 3.62892 15.0864C3.58993 15.1117 3.5455 15.125 3.50025 15.125C3.455 15.125 3.41058 15.1117 3.37158 15.0864C3.33259 15.0612 3.30045 15.0249 3.27851 14.9814L0.53182 9.53923C0.510417 9.49677 0.499456 9.44891 0.500021 9.40037C0.500586 9.35183 0.512657 9.30429 0.53504 9.26246C0.557424 9.22062 0.589345 9.18593 0.627649 9.16183C0.665952 9.13772 0.709312 9.12503 0.753441 9.125L6.24656 9.125C6.29069 9.12503 6.33405 9.13772 6.37235 9.16183C6.41066 9.18593 6.44258 9.22062 6.46496 9.26246C6.48734 9.30429 6.49941 9.35183 6.49998 9.40037C6.50054 9.44891 6.48958 9.49677 6.46818 9.53923L3.722 14.9814Z" fill="#A7A7A7"/>
</svg>
