<svg width="19" height="16" viewBox="0 0 19 16" fill="none" xmlns="http://www.w3.org/2000/svg">
<path d="M5.58817 0.65014L5.63126 0.64494L5.69813 0.641968L5.75385 0.644196L5.84746 0.656827L5.92993 0.679115L6.01239 0.711804L6.0852 0.750437L6.16246 0.805414L6.22339 0.859649L10.3095 4.9458C10.4428 5.0795 10.5201 5.2589 10.5259 5.44757C10.5317 5.63624 10.4654 5.82003 10.3406 5.9616C10.2157 6.10318 10.0417 6.19193 9.85377 6.20983C9.66586 6.22773 9.47819 6.17344 9.32886 6.05798L9.25903 5.99632L6.44107 3.1791V14.7578C6.44086 14.9471 6.36835 15.1293 6.23836 15.267C6.10837 15.4047 5.9307 15.4875 5.74167 15.4986C5.55263 15.5097 5.3665 15.4482 5.22129 15.3267C5.07608 15.2051 4.98276 15.0327 4.96039 14.8447L4.95519 14.7578V3.1791L2.13723 5.99632C2.0093 6.12423 1.8391 6.20107 1.65854 6.21243C1.47799 6.22378 1.2995 6.16886 1.15655 6.05798L1.08672 5.99632C0.958802 5.86839 0.881959 5.69818 0.870606 5.51763C0.859253 5.33707 0.91417 5.15858 1.02505 5.01564L1.08672 4.9458L5.17287 0.859649C5.19881 0.833622 5.22662 0.809536 5.25608 0.787584L5.3378 0.734835L5.4225 0.694716L5.50051 0.668713L5.58817 0.65014ZM13.8704 0.641968C14.0524 0.641992 14.228 0.708799 14.364 0.829719C14.5 0.950639 14.5869 1.11726 14.6082 1.29798L14.6134 1.3849V12.9636L17.4313 10.1464L17.5012 10.0847C17.6441 9.97389 17.8226 9.91904 18.0031 9.93043C18.1836 9.94182 18.3538 10.0187 18.4817 10.1466C18.6095 10.2744 18.6864 10.4446 18.6978 10.6251C18.7092 10.8056 18.6543 10.9841 18.5435 11.127L18.4818 11.1969L14.3957 15.283L14.363 15.3135L14.3125 15.3551L14.2308 15.4078L14.1461 15.448L14.0681 15.474L13.9811 15.4925L13.9143 15.5H13.8266L13.782 15.4955L13.6973 15.4806L13.6164 15.4561L13.5562 15.4309L13.4834 15.3922L13.412 15.3425C13.3886 15.324 13.3663 15.3042 13.3452 15.283L9.25903 11.1969L9.19736 11.127C9.09627 10.9967 9.04141 10.8365 9.04141 10.6716C9.04141 10.5067 9.09627 10.3465 9.19736 10.2162L9.25903 10.1464L9.32886 10.0847C9.45915 9.98361 9.61938 9.92874 9.78428 9.92874C9.94919 9.92874 10.1094 9.98361 10.2397 10.0847L10.3095 10.1464L13.1275 12.9636V1.3849L13.1327 1.29798C13.154 1.11726 13.2409 0.950639 13.3769 0.829719C13.5128 0.708799 13.6885 0.641992 13.8704 0.641968V0.641968Z" fill="#7C7C7C"/>
</svg>
