<svg id="Layer_1" data-name="Layer 1" xmlns="http://www.w3.org/2000/svg" xmlns:xlink="http://www.w3.org/1999/xlink" viewBox="0 0 32 32"><defs><clipPath id="clip-path"><rect width="32" height="32" fill="none"/></clipPath></defs><g clip-path="url(#clip-path)"><path d="M0,16A16,16,0,1,1,16,32,16,16,0,0,1,0,16Zm15.52-3,0,.55L15,13.49a9.1,9.1,0,0,1-5.32-2.62l-.74-.73-.19.54A3.26,3.26,0,0,0,9.43,14c.45.48.35.54-.42.26-.27-.09-.51-.16-.53-.12a4,4,0,0,0,.4,1.51,3.67,3.67,0,0,0,1.54,1.45l.55.26h-.65c-.63,0-.65,0-.59.25a3.41,3.41,0,0,0,2.1,1.85l.69.24-.6.36a6.41,6.41,0,0,1-3,.84A3,3,0,0,0,8,21a8.8,8.8,0,0,0,2.16,1,9.44,9.44,0,0,0,7.34-.84,9.83,9.83,0,0,0,3.73-4.38A11.72,11.72,0,0,0,22,13.4c0-.52,0-.59.66-1.21a6.68,6.68,0,0,0,.78-.87c.12-.21.1-.21-.47,0-.95.34-1.08.29-.61-.22a3.36,3.36,0,0,0,.76-1.2s-.17,0-.36.12a6.5,6.5,0,0,1-1,.38l-.61.2-.55-.38a4.11,4.11,0,0,0-.95-.49,3.82,3.82,0,0,0-2,0A3.24,3.24,0,0,0,15.52,13Z" fill="#1da1f2" fill-rule="evenodd"/></g></svg>