<svg id="Layer_1" data-name="Layer 1" xmlns="http://www.w3.org/2000/svg" viewBox="0 0 32 32"><path d="M11.18,26.56A15.06,15.06,0,0,0,26.35,11.39c0-.23,0-.46,0-.69A11.08,11.08,0,0,0,29,7.94a10.53,10.53,0,0,1-3.06.83,5.33,5.33,0,0,0,2.34-2.95,10.59,10.59,0,0,1-3.39,1.3,5.28,5.28,0,0,0-3-1.61,5.35,5.35,0,0,0-5.73,3.06A5.41,5.41,0,0,0,15.8,12a15.07,15.07,0,0,1-6.09-1.61,15.16,15.16,0,0,1-4.9-4,5.32,5.32,0,0,0,1.65,7.12A5.14,5.14,0,0,1,4,12.86v.07a5.34,5.34,0,0,0,4.28,5.23,5.31,5.31,0,0,1-2.41.09,5.34,5.34,0,0,0,1.9,2.65A5.28,5.28,0,0,0,10.89,22,10.69,10.69,0,0,1,3,24.17a15.19,15.19,0,0,0,8.18,2.39" fill="#a7a7a7"/></svg>