<svg width="80" height="80" viewBox="0 0 80 80" fill="none" xmlns="http://www.w3.org/2000/svg">
<path d="M79.8488 40.5143C80.3448 45.7493 79.6169 51.0267 77.7212 55.9408C76.7792 58.4208 75.5699 60.7939 74.1141 63.0192C71.1879 67.4995 67.3243 71.3111 62.7822 74.1984C60.5238 75.6334 58.1159 76.8253 55.5997 77.7538C50.6164 79.6242 45.2641 80.3412 39.9555 79.8496C45.1017 79.369 50.1326 78.0562 54.8463 75.9638C57.1567 74.9206 59.3684 73.6765 61.4549 72.2462C65.624 69.3922 69.2418 65.8258 72.1375 61.7156C73.5892 59.6573 74.852 57.4755 75.9108 55.1961C78.0331 50.549 79.3636 45.5885 79.8488 40.5143Z" fill="#0091FF"/>
<path d="M0.0627895 40.5143C-0.42799 32.1006 1.96929 23.769 6.86802 16.8634C8.08371 15.1255 9.44212 13.489 10.9295 11.9704C12.4298 10.4584 14.0425 9.0589 15.7539 7.7835C17.474 6.51163 19.3011 5.3869 21.2152 4.42153C23.1207 3.43617 25.1058 2.60837 27.1501 1.94664C31.2491 0.642465 35.5314 -0.0144436 39.8384 0.000240839C41.9839 0.0323371 44.1238 0.224874 46.2397 0.576194C47.3008 0.725015 48.3423 0.97754 49.3838 1.21776C49.9079 1.32557 50.4129 1.51072 50.9286 1.65193C51.4378 1.81481 51.9582 1.93844 52.4555 2.13296C60.538 4.86606 67.462 10.1852 72.1268 17.2448C66.8302 10.9631 59.7822 6.35079 51.8548 3.97859C44.0316 1.69683 35.6903 1.81105 27.9343 4.30611C24.0807 5.53276 20.4449 7.34491 17.1579 9.67717C15.5077 10.837 13.947 12.1158 12.4886 13.5032C11.0418 14.9097 9.69342 16.4114 8.45257 17.9977C3.46062 24.5205 0.541086 32.356 0.0627895 40.5143Z" fill="#0091FF"/>
<path d="M74.6305 40.5143C74.6344 45.0855 73.7252 49.6127 71.9549 53.8373C70.1847 58.062 67.5879 61.9014 64.313 65.1364C61.038 68.3714 57.1491 70.9386 52.868 72.6914C48.587 74.4442 43.9978 75.3483 39.3625 75.3521C32.4123 75.3581 25.6149 73.3403 19.8229 69.5519C14.0308 65.7635 9.50182 60.3731 6.80383 54.0565C4.96852 49.7709 4.02295 45.1659 4.02295 40.5138C4.02295 35.8616 4.96852 31.2566 6.80383 26.971C8.6083 22.7592 11.2364 18.9391 14.538 15.729C17.8396 12.5188 21.75 9.98146 26.046 8.26174C30.3421 6.54203 34.9395 5.67365 39.5759 5.7062C44.2122 5.73876 48.7967 6.67159 53.0675 8.45146C59.4599 11.1145 64.9148 15.5763 68.7506 21.2792C72.5864 26.9821 74.633 33.6733 74.6346 40.5167L74.6305 40.5143ZM74.6305 40.5143C74.6096 36.0279 73.6973 31.5889 71.945 27.4485C68.4306 19.231 61.7501 12.7268 53.373 9.3666C44.9959 6.00638 35.6084 6.06542 27.2754 9.53071C18.9426 12.9963 12.3471 19.5842 8.93973 27.8452C5.53235 36.1063 5.5922 45.3638 9.10611 53.5814C12.6212 61.7985 19.302 68.3023 27.6791 71.6624C36.0562 75.0226 45.4437 74.9638 53.7769 71.4991C61.9692 68.0905 68.4874 61.661 71.942 53.5814C73.6955 49.4408 74.6089 45.0014 74.6305 40.5143Z" fill="#EC5B94"/>
<path d="M53.9218 27C55.0034 27.0002 56.0405 27.43 56.8053 28.1947C57.57 28.9595 57.9998 29.9966 58 31.0782V48.8701C58 49.9517 57.5703 50.989 56.8055 51.7538C56.0407 52.5186 55.0034 52.9482 53.9218 52.9482H26.0782C24.9966 52.9482 23.9593 52.5186 23.1945 51.7538C22.4297 50.989 22 49.9517 22 48.8701V31.0782C22.0002 29.9966 22.43 28.9595 23.1947 28.1947C23.9595 27.43 24.9966 27.0002 26.0782 27H53.9218Z" stroke="#F5F5F5" stroke-width="1.5" stroke-miterlimit="10"/>
<path d="M51.7446 34.0897C52.411 34.0899 53.0501 34.3547 53.5213 34.826C53.9925 35.2972 54.2573 35.9362 54.2576 36.6026V38.2996H43.9204V39.3653C43.9204 41.5087 42.6671 42.7912 40.3325 42.7912C37.9833 42.7912 36.6862 41.5032 36.688 39.3589C36.6879 39.2192 36.6602 39.0809 36.6065 38.9519C36.5529 38.8229 36.4743 38.7058 36.3753 38.6072C36.2763 38.5086 36.1588 38.4305 36.0296 38.3774C35.9004 38.3243 35.7619 38.2973 35.6222 38.2977H25.7424V36.6017C25.7427 35.941 26.0053 35.3074 26.4726 34.8403C26.9399 34.3731 27.5736 34.1107 28.2343 34.1107V34.1107L51.7446 34.0887" stroke="#F5F5F5" stroke-width="1.5" stroke-miterlimit="10"/>
<path d="M25.7433 38.2685V33.0797C25.7433 32.4188 26.0058 31.785 26.4732 31.3177C26.9405 30.8504 27.5743 30.5878 28.2352 30.5878L51.7455 30.5659C52.4122 30.5659 53.0516 30.8307 53.523 31.3022C53.9945 31.7736 54.2593 32.413 54.2593 33.0797V38.2694" stroke="#F5F5F5" stroke-width="1.5" stroke-miterlimit="10"/>
</svg>
