<svg id="Layer_1" data-name="Layer 1" xmlns="http://www.w3.org/2000/svg" viewBox="0 0 32 32"><path d="M16,32a15.87,15.87,0,1,1,6.21-1.25A16,16,0,0,1,16,32Zm0-15.95v1.61a8.08,8.08,0,0,1-1,4.09,5.94,5.94,0,0,1-2.85,2.5,9.9,9.9,0,0,0,3.88.72,10.46,10.46,0,0,0,3.29-.5A6.4,6.4,0,0,0,21.75,23a6.18,6.18,0,0,0,1.46-2.3,9.11,9.11,0,0,0,.5-3.07V16.05ZM8.29,7.14v8.91H16V14.44a8.08,8.08,0,0,1,1-4.09,6,6,0,0,1,2.84-2.5,9,9,0,0,0-2.7-.66A4.85,4.85,0,0,0,15,9a5,5,0,0,1-1.66-1.83h-.09A4.93,4.93,0,0,0,11.05,9,4.84,4.84,0,0,1,9.4,7.14Z" fill="#0091ff"/></svg>