<svg id="Layer_1" data-name="Layer 1" xmlns="http://www.w3.org/2000/svg" viewBox="0 0 32 32"><path d="M30.91,9.31,29.24,6.42c.56,4.56-3.38,10.46-9.93,14.23S5.69,24.89,2,22.12L3.7,25c2.56,4.45,10.74,4.54,18.25.21S33.48,13.76,30.91,9.31Z" fill="#0091ff"/><path d="M18.6,19.42c7.26-4.2,11.2-11,8.77-15.22S17.07,0,9.8,4.18-1.39,15.2,1,19.4,11.34,23.61,18.6,19.42ZM7.42,9.2a3.5,3.5,0,0,0,1.68.37A3.76,3.76,0,0,1,10,7.7l.06,0A3.4,3.4,0,0,0,11.75,8a3.66,3.66,0,0,1,.84-1.79,8.21,8.21,0,0,1,2-.68,4.16,4.16,0,0,0-.47,5.09l.51.88,5.15-3,.52.88c1.45,2.5.52,5-2.8,7a9,9,0,0,1-2.81,1.11A4.25,4.25,0,0,0,15.81,15a4.18,4.18,0,0,0-.65-2.62l-.51-.88-.39.22L9.5,14.51,9,13.62l-2.31-4Z" fill="#0091ff"/></svg>