<svg id="Layer_1" data-name="Layer 1" xmlns="http://www.w3.org/2000/svg" viewBox="0 0 32 32"><path d="M16,.17a16,16,0,1,0,16,16A16,16,0,0,0,16,.17Zm8.18,20.48a2.18,2.18,0,0,1-1.52,1.55,49,49,0,0,1-6.66.37,49,49,0,0,1-6.66-.37,2.18,2.18,0,0,1-1.52-1.55,23.23,23.23,0,0,1-.36-4.22,23.08,23.08,0,0,1,.36-4.21,2.17,2.17,0,0,1,1.52-1.55A49,49,0,0,1,16,10.3a49,49,0,0,1,6.66.37,2.17,2.17,0,0,1,1.52,1.55,23.08,23.08,0,0,1,.36,4.21A23.23,23.23,0,0,1,24.18,20.65Z" fill="#a7a7a7" fill-rule="evenodd"/><polygon points="14.4 19.37 18.66 16.7 14.4 14.03 14.4 19.37" fill="#a7a7a7" fill-rule="evenodd"/></svg>