<svg width="182" height="37" viewBox="0 0 182 37" fill="none" xmlns="http://www.w3.org/2000/svg">
<g clip-path="url(#clip0_15_1402)">
<path d="M11.1238 15.2837L18.1882 8.22217L25.2555 15.2895L29.3637 11.1784L18.1882 0L7.0127 11.1755L11.1238 15.2837Z" fill="#2D3766"/>
<path d="M-0.00195312 18.1873L4.10763 14.0777L8.21722 18.1873L4.10763 22.2968L-0.00195312 18.1873Z" fill="#2D3766"/>
<path d="M11.1237 21.0898L18.1881 28.1542L25.2554 21.0869L29.3664 25.1923L29.3636 25.1951L18.1881 36.3735L7.01258 25.2009L7.00684 25.1951L11.1237 21.0898Z" fill="#2D3766"/>
<path d="M28.1514 18.1885L32.261 14.0789L36.3705 18.1885L32.261 22.2981L28.1514 18.1885Z" fill="#2D3766"/>
<path d="M22.3565 18.1853L18.188 14.0139L15.1054 17.0965L14.7491 17.4499L14.0194 18.1796L14.0137 18.1853L14.0194 18.194L18.188 22.3596L22.3565 18.1882L22.3594 18.1853H22.3565Z" fill="#2D3766"/>
<path d="M42.7822 8.81396H51.7226C53.9405 8.81396 55.6182 9.38854 56.7559 10.5377C57.1845 10.9622 57.5224 11.4693 57.7491 12.0284C57.9758 12.5874 58.0865 13.1867 58.0746 13.7898V13.8444C58.0823 14.3385 58.0135 14.8308 57.8706 15.3038C57.7433 15.711 57.5585 16.098 57.3219 16.4529C57.1012 16.7877 56.8343 17.0895 56.5289 17.3493C56.2306 17.606 55.9039 17.8277 55.555 18.01C56.561 18.3604 57.4656 18.9523 58.1895 19.7338C58.8292 20.4616 59.149 21.4671 59.149 22.7503V22.8049C59.1672 23.6063 58.9928 24.4004 58.6405 25.1204C58.2991 25.7839 57.7987 26.3524 57.184 26.7752C56.4889 27.2411 55.7151 27.577 54.9 27.7663C53.9317 27.996 52.939 28.1069 51.9438 28.0967H42.7822V8.81396ZM50.8263 16.611C51.5998 16.6483 52.3695 16.4819 53.0585 16.1283C53.3272 15.9714 53.5466 15.7423 53.6918 15.4671C53.837 15.1919 53.9022 14.8816 53.8802 14.5712V14.5166C53.8944 14.2306 53.8363 13.9457 53.7113 13.6881C53.5862 13.4305 53.3983 13.2086 53.1648 13.0428C52.6879 12.7038 51.9994 12.5343 51.0992 12.5343H46.9163V16.611H50.8263ZM51.9553 24.3821C52.726 24.4253 53.493 24.2489 54.1674 23.8736C54.4302 23.7048 54.6428 23.4686 54.7833 23.1897C54.9238 22.9108 54.9869 22.5993 54.9661 22.2878V22.2332C54.9764 21.937 54.914 21.6428 54.7843 21.3764C54.6546 21.1099 54.4615 20.8793 54.222 20.7048C53.7279 20.3218 52.9292 20.1302 51.826 20.1302H46.9163V24.3821H51.9553Z" fill="#2D3766"/>
<path d="M64.4756 8.81396H68.7188V28.1025H64.4756V8.81396Z" fill="#2D3766"/>
<path d="M75.1396 8.81396H79.0525L88.0963 20.6847V8.81396H92.285V28.1025H88.6738L79.3341 15.841V28.1025H75.1396V8.81396Z" fill="#2D3766"/>
<path d="M105.132 8.67603H109.04L117.305 28.1024H112.875L111.111 23.7759H102.955L101.191 28.1024H96.8643L105.132 8.67603ZM109.597 20.0296L107.028 13.7725L104.472 20.0296H109.597Z" fill="#2D3766"/>
<path d="M121.893 8.81396H125.805L134.844 20.6847V8.81396H139.032V28.1025H135.421L126.081 15.841V28.1025H121.893V8.81396Z" fill="#2D3766"/>
<path d="M154.305 28.4415C152.952 28.4531 151.612 28.1912 150.363 27.6716C149.188 27.1863 148.121 26.4705 147.227 25.5666C146.332 24.6627 145.628 23.5889 145.155 22.4085C144.655 21.1738 144.403 19.8533 144.411 18.5215V18.4669C144.388 15.8417 145.398 13.3129 147.223 11.4255C148.121 10.5035 149.196 9.77255 150.383 9.27657C151.675 8.74153 153.062 8.47469 154.46 8.49227C155.287 8.4861 156.112 8.56018 156.925 8.71348C157.62 8.84496 158.3 9.0481 158.953 9.31966C159.546 9.56921 160.11 9.88329 160.634 10.2562C161.145 10.6199 161.626 11.0254 162.07 11.4686L159.372 14.5828C158.683 13.9468 157.91 13.4084 157.074 12.9826C156.253 12.59 155.352 12.3934 154.443 12.408C153.685 12.3999 152.935 12.553 152.242 12.8572C151.548 13.1613 150.928 13.6095 150.421 14.1719C149.918 14.733 149.524 15.3828 149.26 16.0882C148.983 16.8335 148.844 17.623 148.849 18.4181V18.4726C148.846 19.2666 148.986 20.0546 149.26 20.7997C149.521 21.5075 149.911 22.1611 150.409 22.7274C150.912 23.2968 151.531 23.7516 152.225 24.0609C152.919 24.3702 153.671 24.5268 154.431 24.5201C155.399 24.5505 156.359 24.3423 157.226 23.9139C158.053 23.4636 158.817 22.9073 159.499 22.2591L162.199 24.9883C161.723 25.5059 161.207 25.9861 160.657 26.4248C160.116 26.8521 159.529 27.2174 158.907 27.5136C158.244 27.8257 157.546 28.0562 156.827 28.2002C155.997 28.3667 155.152 28.4475 154.305 28.4415Z" fill="#2D3766"/>
<path d="M167.207 8.81396H181.724V12.5889H171.381V16.5018H180.488V20.2767H171.396V24.3275H181.867V28.1025H167.216L167.207 8.81396Z" fill="#2D3766"/>
</g>
<defs>
<clipPath id="clip0_15_1402">
<rect width="181.865" height="36.3735" fill="white"/>
</clipPath>
</defs>
</svg>
