<svg width="149" height="38" viewBox="0 0 149 38" fill="none" xmlns="http://www.w3.org/2000/svg">
<path d="M35.5021 9.56831L34.6615 8.13437C34.439 7.7388 33.9198 7.59047 33.5242 7.81297C33.4501 7.86242 33.4006 7.88714 33.3512 7.96131L31.4722 9.84026C31.2003 10.1369 31.1508 10.582 31.3733 10.9034C32.0656 11.9417 32.6095 13.079 33.0051 14.2657C35.601 22.004 31.4475 30.3851 23.7339 32.981C22.2258 33.5002 20.6188 33.7474 19.0118 33.7474C16.589 33.7474 14.2155 33.1541 12.0894 32.0416L15.2786 28.8523C20.7177 30.9043 26.8243 28.16 28.8763 22.721C29.89 20.0014 29.7663 17.0099 28.5055 14.3893C28.3077 13.969 27.7885 13.7959 27.3682 13.9937C27.294 14.0432 27.1951 14.0926 27.1457 14.1668L25.242 16.0705C25.0442 16.2683 24.9453 16.5649 25.0195 16.8616L25.1926 17.5539C25.9837 20.9656 23.8823 24.3527 20.4705 25.1685C18.9129 25.5394 17.2812 25.2922 15.8967 24.501L15.0561 24.0313C14.7347 23.8335 14.3144 23.9077 14.0425 24.1549L6.25472 31.9427C5.93332 32.2641 5.93332 32.808 6.25472 33.1294C6.27944 33.1541 6.30417 33.1788 6.32889 33.2035L7.46615 34.0936C10.779 36.64 14.8336 38.0245 19.0118 37.9998C29.4944 37.9751 37.9991 29.4704 37.9991 18.9878C37.9744 15.6502 37.1091 12.4115 35.5021 9.56831Z" fill="#2D3766"/>
<path d="M30.533 3.90656C27.2201 1.36009 23.1655 -0.0243976 18.9873 0.000325471C8.50473 0.000325471 0 8.52977 0 19.0123C0 22.3005 0.865304 25.5392 2.49703 28.4071L3.31289 29.841C3.53539 30.2366 4.05458 30.3849 4.47487 30.1624C4.54904 30.1377 4.59848 30.0883 4.64793 30.0388L6.52688 28.1599C6.79884 27.8632 6.84828 27.4182 6.62577 27.0968C5.93353 26.0584 5.38962 24.9211 4.99405 23.7344C2.39813 15.9961 6.55161 7.61502 14.2652 5.0191C15.7733 4.49992 17.3803 4.25269 18.9873 4.25269C21.4102 4.25269 23.7836 4.84604 25.9097 5.9833L22.7452 9.12313C17.3061 7.07111 11.1995 9.79064 9.14752 15.2544C8.70251 16.4411 8.45528 17.7267 8.45528 18.9876C8.45528 19.1607 8.50473 19.9518 8.52945 20.1002C8.65306 21.3116 8.99919 22.4983 9.51837 23.5861C9.71615 24.0064 10.2353 24.1795 10.6556 23.9817C10.7298 23.9322 10.8287 23.8828 10.8781 23.8086L12.7818 21.9049C12.9796 21.7072 13.0785 21.4105 13.0043 21.1138L12.8313 20.4216C12.0401 17.0098 14.1416 13.6227 17.5286 12.8069C19.0862 12.436 20.7179 12.6832 22.1271 13.4744L22.9677 13.9441C23.2891 14.1419 23.7094 14.0677 23.9813 13.8205L31.7691 6.03275C32.0905 5.71135 32.0905 5.16744 31.7691 4.84604C31.7444 4.82132 31.7197 4.79659 31.6949 4.77187L30.533 3.90656Z" fill="#2D3766"/>
<path d="M62.5246 24.2043C62.228 23.9571 61.8077 23.9818 61.5357 24.229C60.3243 25.1685 58.8904 26.0586 56.8383 26.0586C53.0557 26.0586 49.9653 22.8693 49.9653 18.9383C49.9653 15.0074 53.031 11.7934 56.8136 11.7934C58.4453 11.7934 60.2254 12.4856 61.511 13.6229C61.6593 13.7959 61.8818 13.8948 62.1044 13.8948C62.3021 13.8701 62.4752 13.7712 62.5988 13.6229L63.835 12.362C63.9833 12.2137 64.0822 11.9911 64.0822 11.7686C64.0822 11.5461 63.9586 11.3236 63.8102 11.2C61.6593 9.32105 59.5084 8.48047 56.7889 8.48047C51.0284 8.48047 46.3311 13.2026 46.3311 19.0125C46.3311 24.7977 51.0037 29.4703 56.7889 29.4703C59.4095 29.4951 61.956 28.4814 63.835 26.6272C64.008 26.4541 64.0822 26.2316 64.0822 25.9844C64.0822 25.7866 64.008 25.6135 63.8597 25.4899L62.5246 24.2043ZM71.4991 8.77715H69.6449C69.2246 8.80187 68.8785 9.14799 68.8537 9.56828V28.4072C68.8537 28.8523 69.1999 29.1984 69.6449 29.1984H71.4991C71.9194 29.1737 72.2902 28.8275 72.2902 28.4072V9.56828C72.2655 9.12327 71.9194 8.77715 71.4991 8.77715ZM93.5768 15.1062C93.5768 11.6203 90.7089 8.77715 87.1488 8.77715H79.4599C79.0149 8.77715 78.6688 9.12327 78.6688 9.56828V28.4072C78.6688 28.8523 79.0149 29.1984 79.4599 29.1984H81.2894C81.7097 29.1737 82.0806 28.8275 82.0806 28.4072V21.4106H85.9374L89.6211 28.8028C89.7694 29.05 90.0167 29.1984 90.2886 29.1984H92.489C92.7609 29.1984 93.0329 29.0748 93.1812 28.8275C93.3296 28.5803 93.3296 28.2589 93.1812 28.0117L89.4233 21.0398C91.9945 19.8778 93.5768 17.6527 93.5768 15.1062ZM90.1156 15.1557C90.1156 16.9357 88.6569 18.4439 86.9263 18.4439H82.1547V12.0406H86.9263C88.6569 12.0406 90.1156 13.4745 90.1156 15.1557ZM113.652 24.2043C113.355 23.9571 112.935 23.9818 112.663 24.229C111.452 25.1685 110.018 26.0586 107.966 26.0586C104.183 26.0586 101.093 22.8693 101.093 18.9383C101.093 15.0074 104.158 11.7934 107.941 11.7934C109.573 11.7934 111.353 12.4856 112.638 13.6229C112.787 13.7959 113.009 13.8948 113.232 13.8948C113.429 13.8701 113.602 13.7712 113.726 13.6229L114.962 12.362C115.111 12.2137 115.209 11.9911 115.209 11.7686C115.209 11.5461 115.111 11.3236 114.937 11.2C112.787 9.32105 110.636 8.48047 107.941 8.48047C102.18 8.48047 97.483 13.2026 97.483 19.0125C97.483 24.7977 102.156 29.4703 107.941 29.4703C110.562 29.4951 113.108 28.4814 114.987 26.6272C115.16 26.4541 115.234 26.2316 115.234 25.9844C115.234 25.7866 115.16 25.6135 115.012 25.4899L113.652 24.2043ZM130.81 26.0338H123.417V9.56828C123.393 9.14799 123.047 8.77715 122.626 8.77715H120.747C120.302 8.77715 119.956 9.12327 119.956 9.56828V28.4072C119.956 28.8523 120.302 29.1984 120.747 29.1984H130.81C131.255 29.1984 131.601 28.8523 131.601 28.4072V26.8497C131.601 26.4047 131.255 26.0338 130.81 26.0338ZM147.572 11.9664C148.017 11.9664 148.363 11.6203 148.363 11.1753V9.59301C148.363 9.14799 148.017 8.80187 147.572 8.80187H136.273C135.828 8.80187 135.482 9.14799 135.482 9.59301V28.4072C135.482 28.8523 135.828 29.1984 136.273 29.1984H147.572C148.017 29.1984 148.363 28.8523 148.363 28.4072V26.8497C148.363 26.4047 148.017 26.0586 147.572 26.0586H138.894V20.4464H146.187C146.632 20.4464 146.979 20.1003 146.979 19.6553V18.073C146.979 17.628 146.608 17.2819 146.187 17.2819H138.894V11.9911H147.572V11.9664Z" fill="#2D3766"/>
</svg>
