<svg width="160" height="29" viewBox="0 0 160 29" fill="none" xmlns="http://www.w3.org/2000/svg">
<g clip-path="url(#clip0_15_1418)">
<path d="M32.175 7.9744C26.3502 7.9744 21.8429 12.343 21.8429 18.2371C21.8429 24.1312 26.2808 28.4998 32.175 28.4998C38.0691 28.4998 42.5764 24.0619 42.5764 18.2371C42.5764 12.4123 38.1384 7.9744 32.175 7.9744ZM32.2443 24.2006C28.9159 24.2006 26.5582 21.6349 26.5582 18.1678C26.5582 14.7006 28.9159 12.135 32.2443 12.135C35.5728 12.135 37.9997 14.7006 37.9997 18.1678C37.9997 21.6349 35.5034 24.2006 32.2443 24.2006ZM43.8245 12.4123H46.6676V28.0838H51.3135V8.32111H43.8245V12.4123ZM10.2627 12.2043C12.6897 12.2043 14.6313 13.6605 15.3247 15.8795H20.1787C19.2772 11.1642 15.3941 7.90506 10.2627 7.90506C4.50727 7.9744 0 12.343 0 18.2371C0 24.1312 4.43793 28.4998 10.332 28.4998C15.3247 28.4998 19.2772 25.31 20.1787 20.5254H15.3247C14.6313 22.7444 12.6897 24.2699 10.332 24.2699C7.0036 24.2699 4.64595 21.7042 4.64595 18.2371C4.64595 14.77 6.93426 12.2043 10.2627 12.2043ZM131.266 16.2955L127.868 15.8101C126.273 15.6021 125.094 15.0473 125.094 13.7992C125.094 12.4123 126.62 11.7189 128.631 11.7189C130.849 11.7189 132.306 12.6897 132.583 14.2152H137.021C136.536 10.2627 133.484 7.90506 128.769 7.90506C123.915 7.90506 120.656 10.4014 120.656 13.9379C120.656 17.2663 122.736 19.2772 127.036 19.832L130.433 20.3174C132.098 20.5254 132.999 21.2188 132.999 22.3977C132.999 23.9925 131.404 24.6166 129.185 24.6166C126.481 24.6166 124.955 23.5071 124.678 21.8429H120.171C120.587 25.7261 123.638 28.4305 129.116 28.4305C134.109 28.4305 137.506 26.1422 137.506 22.1896C137.506 18.7225 135.079 16.9196 131.266 16.2955ZM49.0252 0.208028C47.361 0.208028 46.0435 1.45619 46.0435 3.12042C46.0435 4.78464 47.2916 6.03281 49.0252 6.03281C50.6894 6.03281 52.0069 4.78464 52.0069 3.12042C52.0069 1.45619 50.6894 0.208028 49.0252 0.208028ZM116.565 15.1167C116.565 10.8174 113.93 7.9744 108.452 7.9744C103.251 7.9744 100.339 10.6094 99.7147 14.6313H104.291C104.499 13.0364 105.747 11.7882 108.382 11.7882C110.74 11.7882 111.85 12.8284 111.85 14.0765C111.85 15.7408 109.769 16.1568 107.134 16.4342C103.598 16.8503 99.2293 18.0291 99.2293 22.6057C99.2293 26.1422 101.864 28.4305 106.094 28.4305C109.423 28.4305 111.434 27.0436 112.474 24.894C112.612 26.8356 114.069 28.0838 116.149 28.0838H118.853V23.9925H116.565V15.1167ZM111.988 20.04C111.988 22.675 109.7 24.6166 106.857 24.6166C105.123 24.6166 103.667 23.9232 103.667 22.3283C103.667 20.3867 106.025 19.832 108.174 19.624C110.255 19.4159 111.364 18.9999 111.988 18.0984V20.04ZM87.5797 7.9744C85.014 7.9744 82.8644 9.01454 81.3389 10.8174V0H76.7623V28.0838H81.2695V25.5181C82.7951 27.3903 85.014 28.4998 87.5797 28.4998C93.1271 28.4998 97.2877 24.1312 97.2877 18.2371C97.2877 12.343 93.0578 7.9744 87.5797 7.9744ZM86.8863 24.2006C83.5578 24.2006 81.2002 21.6349 81.2002 18.1678C81.2002 14.7006 83.6272 12.135 86.9556 12.135C90.2841 12.135 92.6417 14.7006 92.6417 18.1678C92.6417 21.7042 90.2147 24.2006 86.8863 24.2006ZM65.7368 7.9744C62.7551 7.9744 60.8135 9.22256 59.6346 10.8868V8.32111H55.058V28.0838H59.6346V17.3356C59.6346 14.2846 61.5762 12.2043 64.4193 12.2043C67.0543 12.2043 68.7185 14.0765 68.7185 16.7809V28.0838H73.2951V16.4342C73.2951 11.4415 70.7294 7.9744 65.7368 7.9744ZM159.419 17.613C159.419 11.9269 155.258 7.9744 149.711 7.9744C143.817 7.9744 139.448 12.4123 139.448 18.2371C139.448 24.4086 144.094 28.4998 149.78 28.4998C154.565 28.4998 158.309 25.6568 159.28 21.6349H154.495C153.802 23.3685 152.138 24.4086 149.849 24.4086C146.868 24.4086 144.649 22.6057 144.163 19.3466H159.419V17.613ZM144.441 16.0875C145.203 13.3138 147.214 11.9963 149.641 11.9963C152.276 11.9963 154.218 13.4525 154.703 16.0875H144.441Z" fill="#2D3766"/>
</g>
<defs>
<clipPath id="clip0_15_1418">
<rect width="159.419" height="28.4998" fill="white"/>
</clipPath>
</defs>
</svg>
