<svg width="60" height="60" viewBox="0 0 60 60" fill="none" xmlns="http://www.w3.org/2000/svg">
<rect width="60" height="60" rx="25" fill="#DD6FD3"/>
<path d="M16.5459 30.0724C24.4073 28.0623 28.5397 22.7874 30.0058 15.031C30.5911 18.6875 31.9331 21.9391 34.3215 24.7147C36.7351 27.5184 39.8226 29.1915 43.4924 30.0591C35.5778 32.0691 31.4395 37.3485 29.9881 45C28.5397 37.3677 24.4147 32.0884 16.5459 30.0739V30.0724Z" fill="white"/>
<path d="M44.6928 18.856C42.6591 19.4398 41.6349 20.8055 41.2077 22.715C40.7702 20.8203 39.7697 19.4472 37.7227 18.8605C39.7549 18.2752 40.7732 16.9051 41.2048 15C41.6408 16.9022 42.6547 18.2767 44.6943 18.856H44.6928Z" fill="white"/>
<path d="M16.426 26.9082C15.6219 24.4237 15.2938 24.0498 13 22.9709C13.9104 22.6989 14.6805 22.2718 15.2657 21.5668C15.8495 20.8633 16.1998 20.0489 16.4038 19.1326C16.8457 21.0229 17.8492 22.4048 19.9036 22.9857C17.8729 23.565 16.8472 24.9277 16.4274 26.9082H16.426Z" fill="white"/>
<path d="M40.1963 40.108C42.1221 39.5153 43.133 38.1511 43.5646 36.2534C43.7789 37.152 44.1188 37.9767 44.7086 38.6803C45.2997 39.3853 46.0668 39.8198 47.0541 40.105C45.0189 40.6844 43.9991 42.0545 43.5646 43.9581C43.3547 43.0699 43.0207 42.254 42.4443 41.5549C41.8546 40.8425 41.0905 40.3977 40.1978 40.108H40.1963Z" fill="white"/>
</svg>
