<svg width="108" height="38" viewBox="0 0 108 38" fill="none" xmlns="http://www.w3.org/2000/svg">
<g clip-path="url(#clip0_15_1423)">
<path fill-rule="evenodd" clip-rule="evenodd" d="M32.4108 27.1402H28.9376C28.1205 27.1402 27.6776 26.5487 27.6776 25.7484V16.9104C27.6776 14.9279 26.52 13.5352 24.4442 13.5352C22.7073 13.5352 21.4134 14.5443 20.6635 15.9013V26.5487C20.6635 26.8619 20.4931 27.0705 20.2549 27.1053C20.2208 27.1402 20.1527 27.1402 20.1188 27.1402H16.2711C16.1348 27.1402 16.0326 27.1053 15.9646 27.0356C15.8283 26.9315 15.7605 26.7576 15.7605 26.5487V3.72434C15.7605 2.63309 15.6317 1.9629 15.5323 1.44674C15.4702 1.12352 15.4196 0.860703 15.4196 0.592723C15.4202 0.243494 15.5901 0 15.9646 0H19.1312C20.1527 0 20.6635 0.486988 20.6635 1.56568V12.073C21.8552 10.5419 23.66 9.15009 26.3157 9.15009C29.7889 9.15009 32.5822 11.4122 32.5822 15.762V23.9041C32.5822 24.788 32.6507 25.4381 32.7128 26.0268C32.7266 26.1567 32.7399 26.2836 32.7522 26.4094C32.8533 26.7922 32.7169 27.1402 32.4108 27.1402ZM1.36478 22.3385C1.60305 21.9557 1.90949 21.9209 2.25023 22.0949C2.8969 22.4429 5.04215 23.452 7.15331 23.452C8.54913 23.452 9.33236 22.8257 9.33236 22.0602C9.33236 20.9622 8.17361 20.6088 5.95459 19.932L5.85944 19.903C2.52233 18.8594 0.445249 17.2932 0.411175 14.4399C0.411175 11.4476 2.62481 9.15112 7.08516 9.15112C9.80891 9.15112 11.4776 10.0557 12.9075 10.9257C13.2818 11.1344 13.3843 11.4122 13.248 11.6918L11.75 14.1275C11.5457 14.4404 11.2391 14.4752 10.9329 14.3359C10.0815 13.8141 8.51506 13.2227 6.98292 13.2227C5.21252 13.2227 4.80361 14.0231 4.80361 14.5797C4.80361 15.5887 6.09698 15.9716 7.698 16.4236C11.8179 17.5715 13.9971 19.0677 13.9971 22.0602C13.9971 25.679 10.8647 27.4188 7.05107 27.4188C3.57791 27.4188 1.12625 25.9574 0.206974 25.3308C0.00277237 25.1569 -0.0653777 24.9134 0.0709224 24.6L1.36478 22.3385ZM88.0626 26.5832V9.98593C88.0626 9.63823 87.8581 9.39448 87.5177 9.39448H83.7035C83.3971 9.39448 83.1585 9.67304 83.1585 9.98593V20.6333C82.3756 21.9903 81.1158 22.9997 79.3792 22.9997C77.3021 22.9997 76.1445 21.6068 76.1445 19.6242V10.7863C76.1445 9.98593 75.7023 9.39448 74.8512 9.39448H71.4121C71.1056 9.39448 70.9696 9.74244 71.0378 10.1252C71.1397 10.8211 71.2419 11.5519 71.2419 12.6306V20.7726C71.2419 25.1216 74.0338 27.3838 77.5073 27.3838C80.197 27.3838 81.9677 25.992 83.1593 24.4608V26.5832C83.1593 26.9311 83.3637 27.1398 83.7043 27.1398H87.5518C87.8582 27.1398 88.0626 26.8963 88.0626 26.5832ZM107.09 27.1402H103.618C102.801 27.1402 102.358 26.5488 102.358 25.7484V16.9104C102.358 14.9279 101.2 13.5354 99.0893 13.5354C97.3868 13.5354 96.0927 14.5443 95.3087 15.9015V26.5488C95.3087 26.8619 95.1044 27.1402 94.7981 27.1402H90.9503C90.6097 27.1402 90.4056 26.8967 90.4056 26.5488V9.95156C90.4056 9.63867 90.6439 9.39493 90.9162 9.39493H94.7981C95.1385 9.39493 95.3087 9.60385 95.3087 9.95156V12.0731C96.5006 10.542 98.3051 9.15016 100.995 9.15016C104.434 9.15016 107.26 11.4123 107.26 15.7611V23.9042C107.26 24.9831 107.328 25.7136 107.43 26.4096C107.498 26.7923 107.363 27.1402 107.09 27.1402ZM53.1725 30.2107C53.405 29.9788 53.7412 29.8915 54.0538 29.9821L56.0381 30.5439C56.447 30.6596 56.7099 31.0483 56.7082 31.4803V31.4882C56.7082 33.2979 58.683 33.8545 61.3047 33.8545C63.2456 33.8545 65.1185 33.1934 65.1185 31.6972C65.1185 31.0361 64.7776 30.4098 63.3819 30.166L61.1867 29.7847H61.1797L60.7646 29.7127C58.7877 29.3638 56.6064 28.8919 55.4549 28.6352C55.1283 28.5538 54.8066 28.4536 54.4912 28.3347C53.0554 27.7834 52.0786 26.87 52.0786 25.3302C52.0786 23.3121 53.7812 22.0595 55.5856 22.2685C54.8365 21.5385 53.3043 19.972 53.2362 17.0143C53.1681 12.5958 56.403 9.1859 61.3742 9.1859C62.1956 9.1859 62.8943 9.2742 63.6464 9.36927C64.9518 9.53427 66.4182 9.71963 68.9674 9.49903C69.2737 9.46422 69.5462 9.7077 69.5121 10.0557L69.3759 12.1434C69.0353 12.4914 68.0138 12.5958 66.9583 12.6307C68.4563 13.7777 69.2395 15.5533 69.2395 17.6411C69.2395 22.06 65.7325 24.9481 61.4082 24.9134C59.9868 24.9134 59.0291 24.545 58.2436 24.2428L58.2433 24.2427H58.2431C58.1256 24.1975 58.012 24.1538 57.9013 24.1129C56.5396 23.7304 56.0625 24.2522 56.0625 24.8089C56.0625 25.5843 57.0861 25.738 58.6361 25.9709L58.7874 25.9935L63.9969 26.7592C68.0489 27.3854 70.2961 28.5335 70.2961 31.6999C70.2961 36.3279 65.7676 38.0674 60.7964 37.9978C56.0279 37.9624 52.1478 36.2229 52.1478 32.8126C52.1478 31.6774 52.5585 30.8327 53.1725 30.2107ZM61.2046 13.3962C63.1797 13.3962 64.7457 14.8228 64.7457 17.0496C64.7457 19.1026 63.384 20.6333 61.2727 20.6333C59.1957 20.6333 57.6636 19.1373 57.6636 16.98C57.6636 14.7532 59.2979 13.3962 61.2046 13.3962ZM42.9751 8.9812C37.8121 8.9812 33.743 12.685 33.743 18.1707C33.743 23.6216 37.8121 27.3254 42.9751 27.3254C48.104 27.3254 52.1729 23.6216 52.1729 18.1707C52.1729 12.685 48.104 8.9812 42.9751 8.9812ZM47.6591 18.1708C47.6591 15.3406 45.7104 13.244 42.975 13.244C40.2052 13.244 38.2562 15.3406 38.2562 18.1708C38.2562 21.001 40.2052 23.0626 42.975 23.0626C45.7104 23.0626 47.6591 21.001 47.6591 18.1708ZM51.3861 3.75473C51.578 4.8387 50.8737 5.8764 49.8129 6.0725V6.07225C47.4705 6.50536 45.1662 6.64998 43.1357 6.65023C39.1912 6.65023 36.2756 6.10504 36.0939 6.07022C35.0343 5.86759 34.336 4.82556 34.5343 3.74279C34.7327 2.66001 35.7524 1.94652 36.8119 2.14915C36.9191 2.16922 42.9771 3.28275 49.1179 2.14712C50.1787 1.95101 51.1942 2.67077 51.3861 3.75473Z" fill="#2D3766"/>
</g>
<defs>
<clipPath id="clip0_15_1423">
<rect width="107.448" height="37.9997" fill="white"/>
</clipPath>
</defs>
</svg>
