<svg width="280" height="48" viewBox="0 0 280 48" fill="none" xmlns="http://www.w3.org/2000/svg">
<path d="M0 24C0 37.2548 10.7452 48 24 48C37.2548 48 48 37.2548 48 24C48 10.7452 37.2548 0 24 0C10.7452 0 0 10.7452 0 24Z" fill="black"/>
<path d="M40.7018 13.8437C40.1345 13.3964 39.4582 12.7855 38.2254 12.6328C37.0691 12.48 35.8909 13.2546 35.0945 13.7673C34.2982 14.28 32.7927 15.7855 32.1709 16.2437C31.5491 16.7019 29.9563 17.1273 27.3927 18.6655C24.8291 20.2037 14.7709 26.6619 14.7709 26.6619L17.389 26.6946L5.71631 32.7055H6.88358L5.20358 33.9819C5.20358 33.9819 6.68722 34.3746 7.93086 33.5891V33.9492C7.93086 33.9492 21.8291 28.4728 24.5127 29.891L22.8763 30.371C23.0181 30.371 25.6581 30.5455 25.6581 30.5455C25.7222 31.0922 25.906 31.618 26.1963 32.0856C26.4867 32.5532 26.8766 32.9511 27.3381 33.251C28.9309 34.2982 28.9636 34.8764 28.9636 34.8764C28.9636 34.8764 28.1345 35.2146 28.1345 35.6401C28.1345 35.6401 29.3563 35.2692 30.4909 35.3019C31.2109 35.3292 31.9251 35.4427 32.6182 35.6401C32.6182 35.6401 32.5309 35.1819 31.4291 34.8764C30.3272 34.571 29.2363 33.371 28.7018 32.7164C28.3744 32.2998 28.161 31.8051 28.0825 31.2811C28.0041 30.757 28.0634 30.2216 28.2545 29.7273C28.6363 28.7346 29.9672 28.1891 32.7163 26.771C35.9563 25.091 36.6982 23.8473 37.1563 22.8764C37.6145 21.9055 38.2909 19.9746 38.6727 19.0691C39.1527 17.9019 39.7418 17.28 40.2327 16.9091C40.7236 16.5382 42.9054 15.72 42.9054 15.72C42.9054 15.72 41.2363 14.2691 40.7018 13.8437Z" fill="white"/>
<path d="M133 24H147" stroke="#9BA4AE" stroke-width="2" stroke-linecap="round" stroke-linejoin="round"/>
<path d="M140 17L147 24L140 31" stroke="#9BA4AE" stroke-width="2" stroke-linecap="round" stroke-linejoin="round"/>
<path d="M276.455 29.8754L271.217 26.9496L259.551 33.8068C258.773 34.2526 257.92 34.484 257.057 34.484C256.193 34.484 255.341 34.2526 254.562 33.8068L239.213 25.3954L233.898 28.5039C233.353 28.8546 232.898 29.3743 232.58 30.0081C232.263 30.6418 232.095 31.366 232.095 32.1039C232.095 32.8419 232.263 33.5661 232.58 34.1998C232.898 34.8336 233.353 35.3533 233.898 35.7039L254.467 47.0182C255.242 47.4756 256.096 47.7135 256.961 47.7135C257.826 47.7135 258.68 47.4756 259.455 47.0182L276.359 37.0296C276.9 36.6857 277.353 36.1757 277.672 35.5527C277.992 34.9296 278.165 34.2161 278.175 33.4862C278.185 32.7562 278.03 32.0365 277.728 31.4016C277.426 30.7667 276.986 30.2397 276.455 29.8754Z" fill="url(#paint0_linear_1141_2296)"/>
<path d="M251.216 0.677281C251.995 0.231494 252.848 0 253.712 0C254.576 0 255.429 0.231494 256.208 0.677281L276.482 12.1059C277.022 12.4583 277.473 12.9775 277.787 13.6088C278.102 14.2402 278.267 14.9605 278.267 15.6944C278.267 16.4283 278.102 17.1486 277.787 17.78C277.473 18.4114 277.022 18.9305 276.482 19.283L259.567 29.2716C258.791 29.7289 257.937 29.9668 257.072 29.9668C256.206 29.9668 255.352 29.7289 254.576 29.2716L233.995 17.843C233.449 17.4957 232.992 16.9785 232.674 16.3464C232.356 15.7144 232.188 14.9913 232.188 14.2544C232.188 13.5175 232.356 12.7944 232.674 12.1624C232.992 11.5304 233.449 11.0131 233.995 10.6658L251.216 0.677281Z" fill="url(#paint1_linear_1141_2296)"/>
<defs>
<linearGradient id="paint0_linear_1141_2296" x1="278.167" y1="34.1759" x2="232.106" y2="34.1759" gradientUnits="userSpaceOnUse">
<stop stop-color="#EF18AC"/>
<stop offset="1" stop-color="#FAD972"/>
</linearGradient>
<linearGradient id="paint1_linear_1141_2296" x1="272.412" y1="22.6342" x2="232.196" y2="22.6342" gradientUnits="userSpaceOnUse">
<stop stop-color="#5314F1"/>
<stop offset="1" stop-color="#04E2FF"/>
</linearGradient>
</defs>
</svg>
