<svg width="32" height="32" viewBox="0 0 32 32" fill="none" xmlns="http://www.w3.org/2000/svg">
<rect x="0.500016" y="0.5" width="31" height="31" rx="15.5" transform="matrix(1 0 3.1526e-05 1 -1.5763e-05 0)" fill="white" stroke="#EEEEEE"/>
<g clip-path="url(#clip0_10_10004)">
<path d="M15.9991 8.45331C18.5409 8.45331 20.6015 7.23254 20.6015 5.72665C20.6015 4.22076 18.5409 3 15.9991 3C13.4573 3 11.3967 4.22076 11.3967 5.72665C11.3967 7.23254 13.4573 8.45331 15.9991 8.45331Z" fill="#E6007A"/>
<path d="M15.9991 28.9982C18.5409 28.9982 20.6015 27.7774 20.6015 26.2715C20.6015 24.7656 18.5409 23.5449 15.9991 23.5449C13.4573 23.5449 11.3967 24.7656 11.3967 26.2715C11.3967 27.7774 13.4573 28.9982 15.9991 28.9982Z" fill="#E6007A"/>
<path d="M9.58542 12.2276C10.8563 9.98536 10.8481 7.55684 9.56699 6.80339C8.28591 6.04993 6.21711 7.25686 4.9462 9.49914C3.67529 11.7414 3.68354 14.1699 4.96463 14.9234C6.24571 15.6768 8.31451 14.4699 9.58542 12.2276Z" fill="#E6007A"/>
<path d="M27.0501 22.4988C28.321 20.2565 28.3134 17.8284 27.0332 17.0755C25.753 16.3225 23.6849 17.5299 22.414 19.7722C21.1431 22.0144 21.1506 24.4425 22.4308 25.1955C23.7111 25.9484 25.7791 24.7411 27.0501 22.4988Z" fill="#E6007A"/>
<path d="M9.56748 25.1949C10.8486 24.4414 10.8568 22.0129 9.58591 19.7707C8.315 17.5284 6.2462 16.3214 4.96512 17.0749C3.68403 17.8284 3.67578 20.2569 4.94669 22.4991C6.2176 24.7414 8.2864 25.9484 9.56748 25.1949Z" fill="#E6007A"/>
<path d="M27.0343 14.924C28.3145 14.171 28.3221 11.7429 27.0512 9.50064C25.7802 7.25837 23.7121 6.05103 22.4319 6.80397C21.1517 7.55692 21.1442 9.98502 22.4151 12.2273C23.686 14.4696 25.7541 15.6769 27.0343 14.924Z" fill="#E6007A"/>
</g>
<circle cx="23.9995" cy="24" r="7.5" fill="#D5F2FF" stroke="white"/>
<path d="M24.1275 28C23.3201 28 22.6082 27.8308 21.992 27.4923C21.3758 27.1538 20.8871 26.6821 20.5259 26.0769C20.1753 25.4718 20 24.7795 20 24C20 23.2205 20.1753 22.5282 20.5259 21.9231C20.8871 21.3179 21.3758 20.8462 21.992 20.5077C22.6082 20.1692 23.3201 20 24.1275 20C25.1368 20 25.9867 20.2564 26.6773 20.7692C27.3679 21.2718 27.8088 21.9692 28 22.8615H25.8486C25.7424 22.4923 25.5299 22.2051 25.2112 22C24.9031 21.7846 24.5365 21.6769 24.1116 21.6769C23.5485 21.6769 23.0704 21.8821 22.6773 22.2923C22.2842 22.7026 22.0876 23.2718 22.0876 24C22.0876 24.7282 22.2842 25.2974 22.6773 25.7077C23.0704 26.1179 23.5485 26.3231 24.1116 26.3231C24.5365 26.3231 24.9031 26.2205 25.2112 26.0154C25.5299 25.8103 25.7424 25.5179 25.8486 25.1385H28C27.8088 26 27.3679 26.6923 26.6773 27.2154C25.9867 27.7385 25.1368 28 24.1275 28Z" fill="#15B7FD"/>
<defs>
<clipPath id="clip0_10_10004">
<rect width="24" height="26" fill="white" transform="translate(4 3)"/>
</clipPath>
</defs>
</svg>
