<svg width="32" height="32" viewBox="0 0 32 32" fill="none" xmlns="http://www.w3.org/2000/svg">
<rect width="32" height="32" rx="16" transform="matrix(1 0 3.1526e-05 1 0 0)" fill="#F8F8F8"/>
<g clip-path="url(#clip0_105_1710)">
<path d="M15.9978 4L15.8368 4.54693V20.4161L15.9978 20.5767L23.364 16.2225L15.9978 4Z" fill="#343434"/>
<path d="M15.9978 4L8.63147 16.2225L15.9978 20.5767V12.8743V4Z" fill="#8C8C8C"/>
<path d="M15.9979 21.9714L15.9071 22.082V27.7349L15.9979 27.9998L23.3685 17.6194L15.9979 21.9714Z" fill="#3C3C3B"/>
<path d="M15.9978 27.9998V21.9714L8.63147 17.6194L15.9978 27.9998Z" fill="#8C8C8C"/>
<path d="M15.9978 20.5767L23.3639 16.2225L15.9978 12.8743V20.5767Z" fill="#141414"/>
<path d="M8.63147 16.2225L15.9978 20.5767V12.8743L8.63147 16.2225Z" fill="#393939"/>
</g>
<defs>
<clipPath id="clip0_105_1710">
<rect width="24" height="24" fill="white" transform="translate(4 4)"/>
</clipPath>
</defs>
</svg>
