<svg width="40" height="40" viewBox="0 0 40 40" fill="none" xmlns="http://www.w3.org/2000/svg">
<circle cx="20" cy="20" r="17.5" fill="white"/>
<path fill-rule="evenodd" clip-rule="evenodd" d="M7.92584 8.03277C1.31652 14.7011 1.36439 25.4648 8.03277 32.0742C14.7011 38.6835 25.4648 38.6356 32.0742 31.9672C38.6835 25.2989 38.6356 14.5352 31.9672 7.92584C25.2989 1.31652 14.5352 1.36439 7.92584 8.03277ZM5.79511 5.9209C-1.98056 13.766 -1.92424 26.4292 5.9209 34.2049C13.766 41.9806 26.4292 41.9242 34.2049 34.0791C41.9806 26.234 41.9242 13.5708 34.0791 5.79511C26.234 -1.98056 13.5708 -1.92424 5.79511 5.9209Z" fill="url(#paint0_linear_1441_16819)"/>
<path d="M20.0123 29C18.2149 29 16.64 28.6188 15.2877 27.8564C13.9524 27.0939 12.8997 26.0414 12.1293 24.6989C11.3761 23.3398 10.9995 21.7735 10.9995 20C10.9995 18.2265 11.3761 16.6685 12.1293 15.326C12.8997 13.9669 13.9524 12.9061 15.2877 12.1436C16.64 11.3812 18.2149 11 20.0123 11C21.7927 11 23.359 11.3812 24.7114 12.1436C26.0637 12.9061 27.1165 13.9669 27.8697 15.326C28.6229 16.6685 28.9995 18.2265 28.9995 20C28.9995 21.7735 28.6229 23.3398 27.8697 24.6989C27.1165 26.0414 26.0637 27.0939 24.7114 27.8564C23.359 28.6188 21.7927 29 20.0123 29ZM20.0123 26.1409C21.7242 26.1409 23.0851 25.5939 24.0951 24.5C25.1222 23.4061 25.6357 21.9061 25.6357 20C25.6357 18.0939 25.1222 16.5939 24.0951 15.5C23.0851 14.4061 21.7242 13.8591 20.0123 13.8591C18.3005 13.8591 16.931 14.4061 15.9039 15.5C14.8768 16.5939 14.3633 18.0939 14.3633 20C14.3633 21.9061 14.8768 23.4061 15.9039 24.5C16.931 25.5939 18.3005 26.1409 20.0123 26.1409Z" fill="#2F2F2F"/>
<defs>
<linearGradient id="paint0_linear_1441_16819" x1="5" y1="5" x2="34.5" y2="34.5" gradientUnits="userSpaceOnUse">
<stop stop-color="#07DAFF"/>
<stop offset="0.331972" stop-color="#F9C778"/>
<stop offset="0.715624" stop-color="#F029A7"/>
<stop offset="1" stop-color="#501BF2"/>
</linearGradient>
</defs>
</svg>
