<svg width="33" height="32" viewBox="0 0 33 32" fill="none" xmlns="http://www.w3.org/2000/svg">
<path d="M0.5 16C0.5 7.16344 7.66344 0 16.5 0C25.3366 0 32.5 7.16344 32.5 16C32.5 24.8366 25.3366 32 16.5 32C7.66344 32 0.5 24.8366 0.5 16Z" fill="black"/>
<g clip-path="url(#clip0_661_1276)">
<path d="M9.7486 20.2117C9.86929 20.0885 10.0352 20.0166 10.2113 20.0166H26.173C26.4647 20.0166 26.6106 20.3759 26.4044 20.5864L23.2512 23.8049C23.1305 23.9281 22.9646 23.9999 22.7886 23.9999H6.82679C6.53512 23.9999 6.38928 23.6406 6.59546 23.4301L9.7486 20.2117Z" fill="url(#paint0_linear_661_1276)"/>
<path d="M9.74866 8.19506C9.87438 8.07186 10.0403 8 10.2113 8H26.1731C26.4648 8 26.6106 8.35932 26.4044 8.56978L23.2513 11.7883C23.1306 11.9115 22.9647 11.9833 22.7886 11.9833H6.82686C6.53518 11.9833 6.38934 11.624 6.59553 11.4135L9.74866 8.19506Z" fill="url(#paint1_linear_661_1276)"/>
<path d="M23.2512 14.1648C23.1305 14.0416 22.9646 13.9697 22.7886 13.9697H6.82679C6.53512 13.9697 6.38928 14.329 6.59546 14.5395L9.7486 17.758C9.86929 17.8812 10.0352 17.953 10.2113 17.953H26.173C26.4647 17.953 26.6106 17.5937 26.4044 17.3833L23.2512 14.1648Z" fill="url(#paint2_linear_661_1276)"/>
</g>
<defs>
<linearGradient id="paint0_linear_661_1276" x1="24.6482" y1="6.07728" x2="13.2411" y2="27.4829" gradientUnits="userSpaceOnUse">
<stop stop-color="#00FFA3"/>
<stop offset="1" stop-color="#DC1FFF"/>
</linearGradient>
<linearGradient id="paint1_linear_661_1276" x1="19.818" y1="3.5033" x2="8.41088" y2="24.9089" gradientUnits="userSpaceOnUse">
<stop stop-color="#00FFA3"/>
<stop offset="1" stop-color="#DC1FFF"/>
</linearGradient>
<linearGradient id="paint2_linear_661_1276" x1="22.2177" y1="4.78202" x2="10.8106" y2="26.1876" gradientUnits="userSpaceOnUse">
<stop stop-color="#00FFA3"/>
<stop offset="1" stop-color="#DC1FFF"/>
</linearGradient>
<clipPath id="clip0_661_1276">
<rect width="20" height="16" fill="white" transform="translate(6.5 8)"/>
</clipPath>
</defs>
</svg>
