<svg width="32" height="32" viewBox="0 0 32 32" fill="none" xmlns="http://www.w3.org/2000/svg">
<path d="M31.1883 16C31.1883 24.3883 24.3882 31.1883 16 31.1883C7.61169 31.1883 0.811646 24.3883 0.811646 16C0.811646 7.61175 7.61169 0.811707 16 0.811707C24.3882 0.811707 31.1883 7.61175 31.1883 16Z" fill="#1B1B1B" stroke="#BDBDBD"/>
<path d="M19.7309 7.79224L14.4842 12.5581C13.941 13.0524 13.2342 13.3256 12.5002 13.3291L10.9364 13.3324L10.9313 7.79224H8.10388V23.625H9.64582C10.5079 23.625 11.3126 23.1678 11.7343 22.4171C11.7378 22.412 11.7394 22.407 11.7428 22.4036C12.0228 21.9008 12.1629 20.9071 12.1359 20.229C12.0751 18.6786 11.8254 18.2755 11.8254 18.2755C11.7732 19.3382 10.6631 19.3956 10.6631 19.3956C11.4527 18.6415 11.0224 18.0713 11.0224 18.0713C9.62389 19.0666 9.27468 18.0038 9.24768 17.9077C9.29155 17.9448 9.68969 18.2771 10.4455 17.2413C11.2451 16.1464 12.3114 14.3211 12.9895 13.8521C13.6694 13.3813 14.3139 13.4202 14.3139 13.4202C14.3139 13.4202 14.685 12.9174 15.6668 12.499C16.6487 12.0841 17.2779 12.693 17.2779 12.693C16.2742 13.5028 14.911 14.8322 14.8351 16.7369C14.7744 18.2788 18.0979 20.9241 17.5141 24.8312C17.8634 23.9438 18.0033 23.0548 17.8836 21.9548C17.7874 21.0675 17.2155 19.2134 17.2155 19.2134L20.4074 23.6233H23.9366L17.0383 14.1473L23.9366 7.79224H19.7309Z" fill="url(#paint0_linear_316_1805)"/>
<path d="M13.3907 14.5184C13.1642 14.8942 13.1642 15.0092 13.1642 15.0092C13.1642 15.0092 13.9569 14.8754 14.1715 13.9333C14.1731 13.9333 13.6652 14.0638 13.3907 14.5184Z" fill="url(#paint1_linear_316_1805)"/>
<defs>
<linearGradient id="paint0_linear_316_1805" x1="24.6928" y1="59.7611" x2="42.0349" y2="51.1828" gradientUnits="userSpaceOnUse">
<stop stop-color="#FF4C3B"/>
<stop offset="1" stop-color="#E40C5B"/>
</linearGradient>
<linearGradient id="paint1_linear_316_1805" x1="14.2196" y1="17.2147" x2="15.3195" y2="16.6666" gradientUnits="userSpaceOnUse">
<stop stop-color="#FF4C3B"/>
<stop offset="1" stop-color="#E40C5B"/>
</linearGradient>
</defs>
</svg>
