<svg width="32" height="32" viewBox="0 0 32 32" fill="none" xmlns="http://www.w3.org/2000/svg">
<path d="M31.1883 16C31.1883 24.3883 24.3882 31.1883 16 31.1883C7.61169 31.1883 0.811646 24.3883 0.811646 16C0.811646 7.61175 7.61169 0.811707 16 0.811707C24.3882 0.811707 31.1883 7.61175 31.1883 16Z" fill="#1B1B1B" stroke="#BDBDBD"/>
<path d="M19.4544 6.01117L15.5983 9.49838C15.199 9.86006 14.6796 10.06 14.1402 10.0625L12.9908 10.065L12.9871 6.01117H10.9091V17.5961H12.0424C12.6759 17.5961 13.2673 17.2616 13.5773 16.7122C13.5798 16.7086 13.5811 16.7048 13.5836 16.7023C13.7894 16.3346 13.8922 15.6075 13.8724 15.1113C13.8277 13.9768 13.6442 13.6818 13.6442 13.6818C13.6058 14.4594 12.79 14.5014 12.79 14.5014C13.3703 13.9496 13.0541 13.5325 13.0541 13.5325C12.0261 14.2607 11.7695 13.483 11.7497 13.4127C11.7819 13.4398 12.0746 13.683 12.63 12.9251C13.2177 12.124 14.0013 10.7884 14.4998 10.4452C14.9994 10.1008 15.4731 10.1292 15.4731 10.1292C15.4731 10.1292 15.7458 9.76131 16.4675 9.45517C17.1891 9.15151 17.6516 9.59713 17.6516 9.59713C16.9138 10.1896 15.912 11.1624 15.8562 12.556C15.8116 13.6843 18.2542 15.6199 17.8251 18.4787C18.0818 17.8294 18.1847 17.1789 18.0967 16.374C18.026 15.7247 17.6057 14.3681 17.6057 14.3681L19.9516 17.5948H22.5454L17.4755 10.6612L22.5454 6.01117H19.4544Z" fill="url(#paint0_linear_315_1805)"/>
<path d="M14.7292 10.9996C14.5656 11.2699 14.5656 11.3526 14.5656 11.3526C14.5656 11.3526 15.1384 11.2563 15.2933 10.5786C15.2946 10.5786 14.9276 10.6724 14.7292 10.9996Z" fill="url(#paint1_linear_315_1805)"/>
<path d="M14.0173 20.7476V24.1892C14.0173 24.5792 13.9341 24.9175 13.7678 25.204C13.6015 25.4881 13.3629 25.7048 13.0519 25.8541C12.741 26.0034 12.3734 26.0779 11.9492 26.0779C11.3079 26.0779 10.803 25.9118 10.4342 25.5796C10.0654 25.2473 9.87735 24.7923 9.87012 24.2145V20.7476H11.1465V24.2397C11.1609 24.8152 11.4285 25.1029 11.9492 25.1029C12.2118 25.1029 12.4107 25.0307 12.5458 24.8862C12.6807 24.7417 12.7482 24.507 12.7482 24.1819V20.7476H14.0173Z" fill="url(#paint2_linear_315_1805)"/>
<path d="M17.5281 24.6081C17.5281 24.4228 17.4619 24.2783 17.3293 24.1748C17.1992 24.0712 16.969 23.9641 16.6387 23.8533C16.3085 23.7426 16.0385 23.6355 15.8288 23.532C15.1466 23.1973 14.8055 22.7375 14.8055 22.1524C14.8055 21.8611 14.8899 21.6047 15.0586 21.3832C15.2299 21.1593 15.4709 20.9859 15.7819 20.8631C16.0927 20.7379 16.4423 20.6754 16.8304 20.6754C17.2088 20.6754 17.5475 20.7428 17.8464 20.8776C18.1477 21.0124 18.3814 21.205 18.5478 21.4554C18.7141 21.7034 18.7973 21.9875 18.7973 22.3077H17.5318C17.5318 22.0934 17.4655 21.9273 17.3329 21.8093C17.2027 21.6914 17.0256 21.6323 16.8014 21.6323C16.5749 21.6323 16.3953 21.6829 16.2627 21.784C16.1325 21.8827 16.0675 22.0092 16.0675 22.1632C16.0675 22.2981 16.1398 22.4208 16.2844 22.5316C16.429 22.6399 16.6834 22.7531 17.0473 22.8711C17.4113 22.9866 17.7102 23.1118 17.944 23.2467C18.5129 23.5741 18.7973 24.0255 18.7973 24.6009C18.7973 25.0607 18.6237 25.4218 18.2766 25.6843C17.9295 25.9467 17.4534 26.078 16.8485 26.078C16.4218 26.078 16.035 26.0021 15.6878 25.8504C15.3431 25.6963 15.0827 25.4869 14.9068 25.2221C14.7332 24.9548 14.6465 24.6478 14.6465 24.3011H15.9192C15.9192 24.5829 15.9915 24.7911 16.1361 24.926C16.2832 25.0583 16.5207 25.1246 16.8485 25.1246C17.0581 25.1246 17.2233 25.08 17.3438 24.9909C17.4667 24.8995 17.5281 24.7719 17.5281 24.6081Z" fill="url(#paint3_linear_315_1805)"/>
<path d="M19.4481 26.0057V20.7476H21.1438C21.6091 20.7476 22.0272 20.8535 22.3985 21.0654C22.7697 21.2748 23.0589 21.5722 23.2663 21.9574C23.476 22.3402 23.582 22.7699 23.5844 23.2467V23.4886C23.5844 23.9701 23.482 24.4023 23.2771 24.7851C23.0746 25.1654 22.7878 25.464 22.4165 25.6806C22.0478 25.895 21.6355 26.0033 21.18 26.0057H19.4481ZM20.7172 21.7263V25.0307H21.1584C21.5223 25.0307 21.8019 24.9018 21.9971 24.6443C22.1924 24.3842 22.29 23.999 22.29 23.4886V23.2611C22.29 22.7531 22.1924 22.3703 21.9971 22.1126C21.8019 21.8551 21.5174 21.7263 21.1438 21.7263H20.7172Z" fill="url(#paint4_linear_315_1805)"/>
<defs>
<linearGradient id="paint0_linear_315_1805" x1="23.1012" y1="44.0371" x2="35.8246" y2="37.7155" gradientUnits="userSpaceOnUse">
<stop stop-color="#FF4C3B"/>
<stop offset="1" stop-color="#E40C5B"/>
</linearGradient>
<linearGradient id="paint1_linear_315_1805" x1="15.3281" y1="12.9392" x2="16.1216" y2="12.542" gradientUnits="userSpaceOnUse">
<stop stop-color="#FF4C3B"/>
<stop offset="1" stop-color="#E40C5B"/>
</linearGradient>
<linearGradient id="paint2_linear_315_1805" x1="24.2394" y1="37.1533" x2="30.8555" y2="28.2129" gradientUnits="userSpaceOnUse">
<stop stop-color="#FF4C3B"/>
<stop offset="1" stop-color="#E40C5B"/>
</linearGradient>
<linearGradient id="paint3_linear_315_1805" x1="24.2394" y1="37.1533" x2="30.8555" y2="28.2129" gradientUnits="userSpaceOnUse">
<stop stop-color="#FF4C3B"/>
<stop offset="1" stop-color="#E40C5B"/>
</linearGradient>
<linearGradient id="paint4_linear_315_1805" x1="24.2394" y1="37.1533" x2="30.8555" y2="28.2129" gradientUnits="userSpaceOnUse">
<stop stop-color="#FF4C3B"/>
<stop offset="1" stop-color="#E40C5B"/>
</linearGradient>
</defs>
</svg>
