<?xml version="1.0" encoding="utf-8"?>
<!-- Generator: Adobe Illustrator 23.0.1, SVG Export Plug-In . SVG Version: 6.00 Build 0)  -->
<svg version="1.1" id="Capa_1" xmlns="http://www.w3.org/2000/svg" xmlns:xlink="http://www.w3.org/1999/xlink" x="0px" y="0px"
	 viewBox="0 0 41 40" style="enable-background:new 0 0 41 40;" xml:space="preserve">
<style type="text/css">
	.st0{fill-rule:evenodd;clip-rule:evenodd;fill:url(#SVGID_1_);}
	.st1{fill:url(#SVGID_2_);}
</style>
<linearGradient id="SVGID_1_" gradientUnits="userSpaceOnUse" x1="37.9982" y1="5654.6377" x2="4" y2="5654.6377" gradientTransform="matrix(1 0 0 1 0 -5628.0005)">
	<stop  offset="0" style="stop-color:#EF18AC"/>
	<stop  offset="1" style="stop-color:#FAD972"/>
</linearGradient>
<path class="st0" d="M12.2,19.2l-7,3.2c-1.6,0.7-1.6,2.9,0,3.6l17.4,7.7c1,0.5,2.2,0.5,3.3,0l11-5c1.6-0.7,1.5-2.9,0-3.6L30,22
	l-4.1,1.9c-1,0.5-2.2,0.5-3.3,0L12.2,19.2z"/>
<linearGradient id="SVGID_2_" gradientUnits="userSpaceOnUse" x1="38" y1="5642.4502" x2="4" y2="5642.4502" gradientTransform="matrix(1 0 0 1 0 -5628.0005)">
	<stop  offset="0" style="stop-color:#5314F1"/>
	<stop  offset="1" style="stop-color:#04E2FF"/>
</linearGradient>
<path class="st1" d="M16.4,6.3c1-0.5,2.2-0.5,3.3,0L36.8,14c1.6,0.7,1.6,2.9,0,3.6l-11,5c-1,0.5-2.2,0.5-3.3,0L5.2,15
	c-1.6-0.7-1.6-2.9,0-3.6L16.4,6.3z"/>
</svg>
