<svg width="363" height="100" viewBox="0 0 363 100" fill="none" xmlns="http://www.w3.org/2000/svg">
<path d="M120.166 74.2826V26.4025H138.098C141.976 26.4025 145.184 27.0409 147.723 28.3177C150.261 29.5945 152.154 31.3501 153.4 33.5845C154.647 35.8189 155.27 38.3269 155.27 41.1085C155.27 43.7533 154.67 46.193 153.47 48.4274C152.269 50.6162 150.4 52.3946 147.861 53.7626C145.322 55.085 142.068 55.7462 138.098 55.7462H129.028V74.2826H120.166ZM129.028 48.6326H137.545C140.637 48.6326 142.853 47.9714 144.191 46.649C145.576 45.281 146.269 43.4341 146.269 41.1085C146.269 38.7373 145.576 36.8905 144.191 35.5681C142.853 34.2001 140.637 33.5161 137.545 33.5161H129.028V48.6326Z" fill="#2F2F2F"/>
<path d="M173.076 75.1035C170.122 75.1035 167.699 74.6474 165.806 73.7354C163.913 72.7778 162.506 71.5238 161.582 69.9734C160.659 68.423 160.198 66.713 160.198 64.8434C160.198 61.697 161.444 59.1434 163.937 57.1826C166.429 55.2218 170.168 54.2414 175.153 54.2414H183.877V53.4206C183.877 51.095 183.208 49.385 181.869 48.2906C180.531 47.1962 178.869 46.649 176.884 46.649C175.084 46.649 173.515 47.0822 172.176 47.9486C170.837 48.7694 170.006 50.0006 169.683 51.6422H161.028C161.259 49.1798 162.09 47.0366 163.521 45.2126C164.998 43.3885 166.891 41.9977 169.199 41.0401C171.507 40.0369 174.092 39.5353 176.953 39.5353C181.846 39.5353 185.701 40.7437 188.516 43.1605C191.332 45.5774 192.74 48.9974 192.74 53.4206V74.2826H185.193L184.362 68.8106C183.347 70.6346 181.916 72.1394 180.069 73.325C178.269 74.5106 175.938 75.1035 173.076 75.1035ZM175.084 68.2634C177.623 68.2634 179.585 67.4426 180.969 65.801C182.4 64.1594 183.3 62.1302 183.67 59.7134H176.123C173.768 59.7134 172.084 60.1466 171.068 61.013C170.053 61.8338 169.545 62.8598 169.545 64.091C169.545 65.4134 170.053 66.4394 171.068 67.169C172.084 67.8986 173.422 68.2634 175.084 68.2634Z" fill="#2F2F2F"/>
<path d="M202.582 74.2826V40.3561H210.475L211.306 46.7174C212.553 44.5285 214.237 42.7957 216.361 41.5189C218.53 40.1965 221.069 39.5353 223.977 39.5353V48.7694H221.484C219.546 48.7694 217.815 49.0658 216.292 49.6586C214.768 50.2514 213.568 51.2774 212.691 52.7366C211.86 54.1958 211.445 56.225 211.445 58.8242V74.2826H202.582Z" fill="#2F2F2F"/>
<path d="M243.259 75.1035C240.305 75.1035 237.882 74.6474 235.989 73.7354C234.096 72.7778 232.689 71.5238 231.765 69.9734C230.842 68.423 230.381 66.713 230.381 64.8434C230.381 61.697 231.627 59.1434 234.12 57.1826C236.612 55.2218 240.351 54.2414 245.336 54.2414H254.06V53.4206C254.06 51.095 253.391 49.385 252.052 48.2906C250.714 47.1962 249.052 46.649 247.067 46.649C245.267 46.649 243.698 47.0822 242.359 47.9486C241.02 48.7694 240.189 50.0006 239.866 51.6422H231.211C231.442 49.1798 232.273 47.0366 233.704 45.2126C235.181 43.3885 237.074 41.9977 239.382 41.0401C241.69 40.0369 244.275 39.5353 247.136 39.5353C252.029 39.5353 255.884 40.7437 258.699 43.1605C261.515 45.5774 262.923 48.9974 262.923 53.4206V74.2826H255.376L254.545 68.8106C253.53 70.6346 252.099 72.1394 250.252 73.325C248.452 74.5106 246.121 75.1035 243.259 75.1035ZM245.267 68.2634C247.806 68.2634 249.768 67.4426 251.152 65.801C252.583 64.1594 253.483 62.1302 253.853 59.7134H246.306C243.951 59.7134 242.267 60.1466 241.251 61.013C240.236 61.8338 239.728 62.8598 239.728 64.091C239.728 65.4134 240.236 66.4394 241.251 67.169C242.267 67.8986 243.605 68.2634 245.267 68.2634Z" fill="#2F2F2F"/>
<path d="M272.765 74.2826V25.0345H281.628V74.2826H272.765Z" fill="#2F2F2F"/>
<path d="M292.068 74.2826V25.0345H300.931V74.2826H292.068Z" fill="#2F2F2F"/>
<path d="M328.058 75.1035C324.596 75.1035 321.527 74.3738 318.849 72.9146C316.172 71.4554 314.072 69.4034 312.548 66.7586C311.025 64.1138 310.264 61.0586 310.264 57.593C310.264 54.0818 311.002 50.9582 312.479 48.2222C314.003 45.4862 316.08 43.3657 318.711 41.8609C321.388 40.3105 324.527 39.5353 328.127 39.5353C331.497 39.5353 334.474 40.2649 337.059 41.7241C339.644 43.1833 341.652 45.1898 343.083 47.7434C344.56 50.2514 345.299 53.0558 345.299 56.1566C345.299 56.6582 345.276 57.1826 345.229 57.7298C345.229 58.277 345.206 58.847 345.16 59.4398H319.057C319.242 62.0846 320.165 64.1594 321.827 65.6642C323.534 67.169 325.589 67.9214 327.989 67.9214C329.789 67.9214 331.289 67.5338 332.489 66.7586C333.736 65.9378 334.659 64.889 335.259 63.6122H344.26C343.614 65.7554 342.529 67.7162 341.006 69.4946C339.529 71.2274 337.682 72.5954 335.467 73.5986C333.297 74.6018 330.828 75.1035 328.058 75.1035ZM328.127 46.649C325.958 46.649 324.042 47.2646 322.38 48.4958C320.719 49.6814 319.657 51.5054 319.195 53.9678H336.298C336.159 51.7334 335.328 49.955 333.805 48.6326C332.282 47.3102 330.389 46.649 328.127 46.649Z" fill="#2F2F2F"/>
<path d="M354.137 74.2826V25.0345H363V74.2826H354.137Z" fill="#2F2F2F"/>
<path fill-rule="evenodd" clip-rule="evenodd" d="M28.0602 47.9443L10.4417 55.8609C6.52505 57.6207 6.53572 63.1819 10.4591 64.9267L53.8983 84.2457C56.4963 85.4011 59.4651 85.389 62.0535 84.2124L89.7115 71.6399C93.5991 69.8727 93.592 64.3516 89.6999 62.5943L72.3079 54.7422L62.055 59.4028C59.4666 60.5794 56.4978 60.5916 53.8998 59.4361L28.0602 47.9443Z" fill="url(#paint0_linear_406_2)"/>
<path d="M38.6101 15.8941C41.2076 14.727 44.1814 14.7297 46.7768 15.9015L89.7044 35.2825C93.5965 37.0397 93.6036 42.5608 89.716 44.328L62.058 56.9005C59.4696 58.0771 56.5008 58.0893 53.9028 56.9339L10.4636 37.6149C6.54024 35.87 6.52957 30.3089 10.4462 28.549L38.6101 15.8941Z" fill="url(#paint1_linear_406_2)"/>
<defs>
<linearGradient id="paint0_linear_406_2" x1="92.6069" y1="62.5639" x2="7.52974" y2="62.5639" gradientUnits="userSpaceOnUse">
<stop stop-color="#EF18AC"/>
<stop offset="1" stop-color="#FAD972"/>
</linearGradient>
<linearGradient id="paint1_linear_406_2" x1="92.6098" y1="47.568" x2="7.53268" y2="47.568" gradientUnits="userSpaceOnUse">
<stop stop-color="#5314F1"/>
<stop offset="1" stop-color="#04E2FF"/>
</linearGradient>
</defs>
</svg>
