<svg width="660" height="554" fill="none" xmlns="http://www.w3.org/2000/svg"><g filter="url(#a)"><g clip-path="url(#b)"><g filter="url(#c)"><rect x="16" y="16" width="628" height="522" rx="12" fill="#fff"/></g><path opacity=".7" d="M278.22-47.633s79.421-39.32 241.382 126.53C681.563 244.746 838.815 215.852 889.074 180.78m-611.009-226.4s57.194-28.796 178.197 60.276c20.964 15.366 43.375 34.942 67.271 59.134 96.816 98.084 189.245 137.595 258.276 138.206 47.497.654 87.201-14.313 106.135-27.523M277.915-43.609S334.53-72.6 459.039 11.063c21.668 14.435 44.455 33.634 68.424 57.627 96.76 96.97 186.541 146.147 252.871 147.482 46.954.944 88.808-15.669 106.48-27.999m-609.05-229.77S333.798-70.78 461.82 7.467c22.373 13.505 45.536 32.325 69.578 56.115 96.702 95.86 183.771 154.888 247.471 156.754 46.373 1.356 90.417-17.029 106.827-28.48M277.615-39.587s55.452-29.374 186.986 43.456c23.078 12.576 46.613 31.014 70.728 54.607 96.645 94.745 180.995 163.65 242.066 166.028 45.786 1.778 92.022-18.384 107.17-28.955M277.462-37.571S332.055-66.64 467.38.277c23.732 11.736 47.693 29.706 71.882 53.101 96.589 93.631 178.209 172.436 236.663 175.298 45.196 2.216 93.629-19.739 107.515-29.43M277.312-35.561S331.31-64.78 470.16-3.32c24.433 10.815 48.776 28.393 73.035 51.589 96.532 92.516 175.417 181.242 231.258 184.573 44.601 2.662 95.235-21.101 107.859-29.907M277.159-33.552S330.57-62.936 472.94-6.92c25.136 9.891 49.856 27.085 74.189 50.083 96.473 91.407 172.619 190.07 225.852 193.848 44.006 3.12 96.841-22.456 108.203-30.382M277.006-31.536s52.84-29.57 198.71 21.023c25.841 8.96 50.934 25.774 75.343 48.57 96.416 90.293 169.811 198.921 220.452 203.12 43.401 3.596 98.447-23.811 108.548-30.858M276.856-29.525s52.274-29.776 201.64 15.42c26.547 8.032 52.014 24.466 76.496 47.064 96.36 89.178 166.994 207.798 215.046 212.395 42.793 4.088 100.057-25.172 108.893-31.334M276.706-27.514s51.716-29.996 204.57 9.81c27.256 7.1 53.094 23.158 77.646 45.557 96.304 88.064 164.168 216.698 209.644 221.665 42.173 4.605 101.663-26.527 109.234-31.811M276.555-25.503s51.167-30.235 207.503 4.203c27.965 6.16 54.174 21.85 78.802 44.046 96.245 86.954 161.327 225.627 204.239 230.94 41.543 5.145 103.269-27.882 109.578-32.287M276.4-23.489s50.81-30.919 210.432-1.406c28.71 5.144 55.255 20.54 79.954 42.538 96.188 85.84 158.478 234.58 198.836 240.21 40.905 5.711 104.875-29.237 109.923-32.762M276.25-21.479s50.232-31.114 213.365-7.013c29.413 4.214 56.332 19.23 81.106 41.032 96.133 84.725 155.619 243.558 193.434 249.487 40.25 6.308 106.484-30.598 110.267-33.239M276.1-19.468s49.65-31.306 216.294-12.622c30.117 3.284 57.413 17.922 82.26 39.52C670.73 91.04 727.4 259.993 762.685 266.187c39.575 6.947 108.088-31.955 110.611-33.714M275.948-17.453s49.068-31.498 219.224-18.226c30.823 2.355 58.492 16.614 83.413 38.015 96.017 82.5 149.854 261.599 182.625 268.031 38.878 7.635 109.694-33.31 110.959-34.195M275.797-15.442s48.49-31.694 222.154-23.834C650.51-32.372 721.584 266.16 759.738 274.532c38.156 8.373 111.303-34.671 111.303-34.671M277.273-13.651c.756-.175 50.482-26.817 217.543-18.448 16.433.908 32.008 4.893 46.615 11.45 116.763 52.4 182.088 278.34 219.696 286.856C799.691 274.801 870.211 235 870.211 235M278.749-11.862c1.509-.351 52.774-22.721 212.935-13.06 16.285.982 31.745 4.827 46.222 11.016 112.842 48.25 183.398 262.21 224.61 271.787 38.97 8.812 106.869-27.747 106.869-27.747M280.225-10.071c2.265-.526 54.891-18.162 208.324-7.674A148.43 148.43 0 0 1 534.374-7.16C643.256 37.01 719.007 239.087 763.905 249.557c39.313 9.169 104.653-24.283 104.653-24.283M281.701-8.282c3.021-.7 56.987-13.549 203.714-2.286 15.952 1.223 31.208 4.71 45.428 10.154C635.72 39.736 716.771 229.74 765.295 241.23c39.712 9.408 102.436-20.823 102.436-20.823M283.177-6.492c3.777-.875 59.067-8.88 199.106 3.102 15.782 1.35 30.935 4.66 45.03 9.721C628.142 42.534 714.54 220.387 766.679 232.91c40.117 9.633 100.221-17.364 100.221-17.364M284.652-4.701c4.53-1.052 61.126-4.157 194.496 8.488 15.614 1.48 30.656 4.615 44.636 9.286C620.512 45.411 712.316 211.02 768.07 224.579c40.52 9.857 98.003-13.9 98.003-13.9M286.128-2.911c5.286-1.227 63.165.62 189.886 13.874 15.44 1.617 30.372 4.577 44.239 8.856 92.582 28.555 189.84 181.827 249.207 196.435 40.93 10.072 95.786-10.442 95.786-10.442M287.605-1.122c6.041-1.402 65.182 5.452 185.274 19.26 15.268 1.756 30.081 4.554 43.843 8.426 88.382 24.861 191.147 165.701 254.122 181.367 41.341 10.282 93.57-6.976 93.57-6.976M289.081.668c6.797-1.576 67.175 10.347 180.666 24.649 15.092 1.903 29.786 4.54 43.449 7.99C597.33 54.572 705.657 182.88 772.239 199.603c41.753 10.487 91.354-3.517 91.354-3.517M290.556 2.458c7.551-1.752 69.144 15.3 176.054 30.04 14.913 2.056 29.48 4.538 43.05 7.558 79.833 17.77 193.779 133.43 263.962 151.225 42.167 10.692 89.139-.058 89.139-.058M292.035 4.243c8.307-1.927 71.089 20.312 171.443 35.427 14.729 2.217 29.167 4.556 42.654 7.127 75.48 14.383 195.196 117.081 268.877 136.157 42.639 10.776 86.92 3.405 86.92 3.405M293.51 6.035c9.063-2.103 73.004 25.388 166.835 40.814 14.543 2.39 28.846 4.598 42.258 6.696 71.077 11.116 196.509 100.953 273.798 121.086 43.049 10.992 84.704 6.865 84.704 6.865M294.987 7.824c9.816-2.279 74.889 30.527 162.224 46.201a728.163 728.163 0 0 0 41.864 6.26c66.622 7.976 197.817 84.828 278.715 106.02 43.455 11.211 82.486 10.328 82.486 10.328M296.462 9.614c10.572-2.453 76.748 35.728 157.614 51.588 14.149 2.774 28.168 4.765 41.465 5.828 62.132 4.964 199.13 68.7 283.636 90.948 43.865 11.427 80.272 13.789 80.272 13.789M297.939 11.404c11.327-2.629 78.569 40.997 153.006 56.975 13.94 2.994 27.807 4.912 41.068 5.398 57.6 2.097 200.44 52.576 288.553 75.876 44.27 11.645 78.056 17.248 78.056 17.248M299.414 13.194c14.521-3.37 110.171 68.255 189.07 67.325 78.899-.93 369.312 81.516 369.312 81.516" stroke="url(#d)" stroke-width=".5" stroke-miterlimit="10"/></g></g><defs><filter id="a" x="0" y="0" width="660" height="554" filterUnits="userSpaceOnUse" color-interpolation-filters="sRGB"><feFlood flood-opacity="0" result="BackgroundImageFix"/><feColorMatrix in="SourceAlpha" values="0 0 0 0 0 0 0 0 0 0 0 0 0 0 0 0 0 0 127 0" result="hardAlpha"/><feOffset/><feGaussianBlur stdDeviation="8"/><feComposite in2="hardAlpha" operator="out"/><feColorMatrix values="0 0 0 0 0.227451 0 0 0 0 0.305882 0 0 0 0 0.345098 0 0 0 0.05 0"/><feBlend in2="BackgroundImageFix" result="effect1_dropShadow_2000_13050"/><feBlend in="SourceGraphic" in2="effect1_dropShadow_2000_13050" result="shape"/></filter><filter id="c" x="0" y="0" width="660" height="554" filterUnits="userSpaceOnUse" color-interpolation-filters="sRGB"><feFlood flood-opacity="0" result="BackgroundImageFix"/><feColorMatrix in="SourceAlpha" values="0 0 0 0 0 0 0 0 0 0 0 0 0 0 0 0 0 0 127 0" result="hardAlpha"/><feOffset/><feGaussianBlur stdDeviation="8"/><feComposite in2="hardAlpha" operator="out"/><feColorMatrix values="0 0 0 0 0.227451 0 0 0 0 0.305882 0 0 0 0 0.345098 0 0 0 0.05 0"/><feBlend in2="BackgroundImageFix" result="effect1_dropShadow_2000_13050"/><feBlend in="SourceGraphic" in2="effect1_dropShadow_2000_13050" result="shape"/></filter><linearGradient id="d" x1="400.14" y1="-91.482" x2="332.062" y2="129.994" gradientUnits="userSpaceOnUse"><stop stop-color="#07DAFF"/><stop offset=".716" stop-color="#F029A7"/><stop offset="1" stop-color="#501BF2"/></linearGradient><clipPath id="b"><rect x="16" y="16" width="628" height="522" rx="12" fill="#fff"/></clipPath></defs></svg>