<svg width="32" height="32" viewBox="0 0 32 32" fill="none" xmlns="http://www.w3.org/2000/svg">
<path d="M11.4534 18.0133L20.56 23.32" stroke="#0AD5FF" stroke-linecap="round" stroke-linejoin="round"/>
<path d="M20.5467 8.68002L11.4534 13.9867" stroke="#0AD5FF" stroke-linecap="round" stroke-linejoin="round"/>
<path d="M24 10.6667C26.2091 10.6667 28 8.87586 28 6.66672C28 4.45758 26.2091 2.66672 24 2.66672C21.7909 2.66672 20 4.45758 20 6.66672C20 8.87586 21.7909 10.6667 24 10.6667Z" fill="#0C3EE3"/>
<path d="M8 20C10.2091 20 12 18.2091 12 16C12 13.7909 10.2091 12 8 12C5.79086 12 4 13.7909 4 16C4 18.2091 5.79086 20 8 20Z" fill="#0C3EE3"/>
<path d="M24 29.3333C26.2091 29.3333 28 27.5424 28 25.3333C28 23.1242 26.2091 21.3333 24 21.3333C21.7909 21.3333 20 23.1242 20 25.3333C20 27.5424 21.7909 29.3333 24 29.3333Z" fill="#0C3EE3"/>
</svg>
