<svg width="40" height="40" viewBox="0 0 40 40" fill="none" xmlns="http://www.w3.org/2000/svg">
<circle cx="20" cy="20" r="17.5" fill="white"/>
<path fill-rule="evenodd" clip-rule="evenodd" d="M7.92584 8.03277C1.31652 14.7011 1.36439 25.4648 8.03277 32.0742C14.7011 38.6835 25.4648 38.6356 32.0742 31.9672C38.6835 25.2989 38.6356 14.5352 31.9672 7.92584C25.2989 1.31652 14.5352 1.36439 7.92584 8.03277ZM5.79511 5.9209C-1.98056 13.766 -1.92424 26.4292 5.9209 34.2049C13.7661 41.9806 26.4292 41.9242 34.2049 34.0791C41.9806 26.234 41.9242 13.5708 34.0791 5.79511C26.234 -1.98056 13.5708 -1.92424 5.79511 5.9209Z" fill="url(#paint0_linear_1441_16855)"/>
<path d="M20.0119 29C18.2144 29 16.6395 28.6188 15.2872 27.8564C13.9519 27.0939 12.8992 26.0414 12.1288 24.6989C11.3756 23.3398 10.999 21.7735 10.999 20C10.999 18.2265 11.3756 16.6685 12.1288 15.326C12.8992 13.9669 13.9519 12.9061 15.2872 12.1436C16.6395 11.3812 18.2144 11 20.0119 11C21.7922 11 23.3585 11.3812 24.7109 12.1436C26.0632 12.9061 27.116 13.9669 27.8692 15.326C28.6224 16.6685 28.999 18.2265 28.999 20C28.999 21.7735 28.6224 23.3398 27.8692 24.6989C27.116 26.0414 26.0632 27.0939 24.7109 27.8564C23.3585 28.6188 21.7922 29 20.0119 29ZM20.0119 26.1409C21.7237 26.1409 23.0846 25.5939 24.0946 24.5C25.1217 23.4061 25.6353 21.9061 25.6353 20C25.6353 18.0939 25.1217 16.5939 24.0946 15.5C23.0846 14.4061 21.7237 13.8591 20.0119 13.8591C18.3 13.8591 16.9305 14.4061 15.9034 15.5C14.8763 16.5939 14.3628 18.0939 14.3628 20C14.3628 21.9061 14.8763 23.4061 15.9034 24.5C16.9305 25.5939 18.3 26.1409 20.0119 26.1409Z" fill="#2F2F2F"/>
<circle cx="30" cy="30" r="9.5" fill="#FFE0F5" stroke="white"/>
<path d="M30.1324 35C29.3775 35 28.7108 34.8803 28.1324 34.6409C27.5539 34.3923 27.098 34.0424 26.7647 33.5912C26.4314 33.1308 26.2598 32.5737 26.25 31.9199H28.2353C28.2549 32.3711 28.4265 32.7532 28.75 33.0663C29.0833 33.3702 29.5392 33.5221 30.1176 33.5221C30.6176 33.5221 31.0147 33.4116 31.3088 33.1906C31.6029 32.9604 31.75 32.6565 31.75 32.279C31.75 31.8831 31.6176 31.5746 31.3529 31.3536C31.098 31.1326 30.7549 30.953 30.3235 30.8149C29.8922 30.6768 29.4314 30.5295 28.9412 30.3729C28.1471 30.1151 27.5392 29.7836 27.1176 29.3785C26.7059 28.9733 26.5 28.4346 26.5 27.7624C26.4902 27.1915 26.6324 26.7035 26.9265 26.2983C27.2304 25.884 27.6422 25.5663 28.1618 25.3453C28.6814 25.1151 29.2794 25 29.9559 25C30.6422 25 31.2451 25.1151 31.7647 25.3453C32.2941 25.5755 32.7059 25.8978 33 26.3122C33.3039 26.7265 33.4657 27.2192 33.4853 27.7901H31.4706C31.4608 27.4494 31.3186 27.1501 31.0441 26.8923C30.7794 26.6252 30.4069 26.4917 29.9265 26.4917C29.5147 26.4825 29.1667 26.5792 28.8824 26.7818C28.6078 26.9751 28.4706 27.2606 28.4706 27.6381C28.4706 27.9604 28.5784 28.2182 28.7941 28.4116C29.0098 28.5958 29.3039 28.7523 29.6765 28.8812C30.049 29.0101 30.4755 29.1483 30.9559 29.2956C31.4657 29.4613 31.9314 29.6547 32.3529 29.8757C32.7745 30.0967 33.1127 30.3913 33.3676 30.7597C33.6225 31.1188 33.75 31.5838 33.75 32.1547C33.75 32.6611 33.6127 33.1308 33.3382 33.5635C33.0637 33.9963 32.6569 34.3462 32.1176 34.6133C31.5784 34.8711 30.9167 35 30.1324 35Z" fill="#EF18AC"/>
<defs>
<linearGradient id="paint0_linear_1441_16855" x1="5" y1="5" x2="34.5" y2="34.5" gradientUnits="userSpaceOnUse">
<stop stop-color="#07DAFF"/>
<stop offset="0.331972" stop-color="#F9C778"/>
<stop offset="0.715624" stop-color="#F029A7"/>
<stop offset="1" stop-color="#501BF2"/>
</linearGradient>
</defs>
</svg>
