<svg width="18" height="16" viewBox="0 0 18 16" fill="none" xmlns="http://www.w3.org/2000/svg">
<g clip-path="url(#clip0)">
<path d="M6 5.05263C9.43429 5.05263 12 3.71649 12 2.52632C12 1.33614 9.43429 0 6 0C2.56571 0 0 1.33614 0 2.52632C0 3.71649 2.56571 5.05263 6 5.05263Z" fill="#0C3EE3"/>
<path d="M5.99986 15.1578C6.50271 15.1578 6.98271 15.1297 7.43986 15.0792C7.05128 14.5907 6.73128 14.0462 6.49128 13.4679C6.32557 13.4736 6.15985 13.4792 5.99414 13.4792C4.03414 13.4792 2.177 13.0974 0.759855 12.4013C0.479855 12.2665 0.228426 12.1206 -0.00585938 11.9634V12.6371C-0.000145089 13.8216 2.56557 15.1578 5.99986 15.1578Z" fill="#0C3EE3"/>
<path d="M6 11.7894C6.01714 11.7894 6.03429 11.7894 6.05143 11.7894C6.01714 11.5143 6 11.2336 6 10.9472C6 10.6609 6.01714 10.3802 6.05143 10.1051C6.03429 10.1051 6.01714 10.1051 6 10.1051C4.04 10.1051 2.18286 9.72339 0.765714 9.02725C0.485714 8.89251 0.234286 8.74655 0 8.58936V9.26304C0 10.4532 2.56571 11.7894 6 11.7894Z" fill="#0C3EE3"/>
<path d="M6 8.42095C6.17143 8.42095 6.33714 8.41533 6.50286 8.40972C6.77143 7.76972 7.13143 7.17463 7.57714 6.65253C7.06286 6.70867 6.53714 6.73674 6 6.73674C4.04 6.73674 2.18286 6.35498 0.765714 5.65884C0.491429 5.52411 0.234286 5.37814 0 5.22095V5.89463C0 7.08481 2.56571 8.42095 6 8.42095Z" fill="#0C3EE3"/>
<path d="M8.57101 8.15162C8.19958 8.70179 7.93672 9.31934 7.8053 9.99302C7.74244 10.3018 7.71387 10.6218 7.71387 10.9474C7.71387 11.1944 7.73101 11.4302 7.7653 11.666C7.85101 12.2442 8.03387 12.7888 8.30244 13.2885C8.58244 13.8106 8.95387 14.2821 9.39387 14.6751C10.3082 15.4948 11.5253 16 12.8567 16C15.691 16 17.9996 13.732 17.9996 10.9474C17.9996 8.16285 15.691 5.89478 12.8567 5.89478C12.5653 5.89478 12.2739 5.91723 11.9939 5.96776C10.571 6.19793 9.34244 7.01758 8.57101 8.15162Z" fill="#0C3EE3"/>
</g>
<defs>
<clipPath id="clip0">
<rect width="18" height="16" fill="white"/>
</clipPath>
</defs>
</svg>
