<svg width="235" height="160" viewBox="0 0 235 160" fill="none" xmlns="http://www.w3.org/2000/svg">
<rect y="151.227" width="208.711" height="7.95933" rx="3.97967" fill="#E7F3FC"/>
<rect x="27.2947" y="123.582" width="91.7935" height="11.3245" rx="5.66224" transform="rotate(-18.888 27.2947 123.582)" fill="#56ACF6"/>
<rect x="96.9505" y="72.543" width="36.9536" height="65.5628" rx="12" transform="rotate(-18.888 96.9505 72.543)" fill="#5E9AEF"/>
<path d="M113.647 121.207L148.569 109.258L149.366 111.588C151.511 117.859 148.167 124.681 141.897 126.827L129.683 131.006C123.412 133.151 116.59 129.807 114.444 123.537L113.647 121.207Z" fill="#0C4BA4"/>
<path fill-rule="evenodd" clip-rule="evenodd" d="M46.0735 33.2098C49.8157 22.3417 44.0523 10.5023 33.2005 6.76571C22.3487 3.02914 10.5179 8.81037 6.77576 19.6785C3.03357 30.5465 8.79705 42.386 19.6488 46.1225C30.5006 49.8591 42.3314 44.0779 46.0735 33.2098ZM37.0694 30.1094C35.0388 36.0068 28.6268 39.1466 22.7479 37.1223C16.8689 35.098 13.7493 28.6762 15.7799 22.7788C17.8106 16.8814 24.2225 13.7416 30.1015 15.7659C35.9804 17.7902 39.1 24.212 37.0694 30.1094Z" fill="#E7F2FC"/>
<path fill-rule="evenodd" clip-rule="evenodd" d="M38.7219 9.69099L33.0957 17.3783C35.8255 19.3801 37.5071 22.5156 37.6927 25.8666L47.2307 25.3506C46.884 19.1679 43.7712 13.3822 38.7219 9.69099Z" fill="#434AEA"/>
<path fill-rule="evenodd" clip-rule="evenodd" d="M16.4578 31.753L8.02857 36.2136C9.58804 39.1461 11.8475 41.714 14.6727 43.6429L20.0801 35.8034C18.5379 34.7544 17.3058 33.3538 16.4578 31.753Z" fill="#56ACF6"/>
<path fill-rule="evenodd" clip-rule="evenodd" d="M80.7163 66.8637C82.9987 60.2352 79.4782 53.0124 72.8531 50.7312C66.2279 48.45 59.007 51.9742 56.7246 58.6027C54.4422 65.2312 57.9627 72.454 64.5878 74.7352C71.213 77.0164 78.4339 73.4922 80.7163 66.8637ZM75.2192 64.9709C73.9807 68.5678 70.0671 70.4818 66.4779 69.2459C62.8888 68.0101 60.9832 64.0924 62.2217 60.4955C63.4602 56.8987 67.3738 54.9847 70.963 56.2205C74.5521 57.4563 76.4577 61.374 75.2192 64.9709Z" fill="#E7F2FC"/>
<path fill-rule="evenodd" clip-rule="evenodd" d="M76.2177 52.5096L72.7846 57.1976C74.4514 58.4191 75.4785 60.332 75.5924 62.3761L81.4148 62.0631C81.202 58.2918 79.3007 54.762 76.2177 52.5096Z" fill="#204EB2"/>
<path fill-rule="evenodd" clip-rule="evenodd" d="M62.642 65.9776L57.4973 68.6969C58.4498 70.486 59.8295 72.0527 61.5545 73.2298L64.8541 68.449C63.9124 67.8088 63.16 66.9543 62.642 65.9776Z" fill="#434AEA"/>
<circle cx="126.797" cy="25.6333" r="20.9937" fill="black"/>
<circle cx="122.849" cy="23.6563" r="20.4937" fill="white" stroke="#2F2F2F"/>
<circle cx="122.849" cy="23.656" r="18.1228" fill="black"/>
<path d="M131.385 14.53C131.001 13.9959 130.575 13.5945 130.063 13.4602C129.423 13.3266 128.784 13.9959 128.358 14.4641C127.931 14.9323 127.078 16.1365 126.737 16.6038C126.397 17.0728 125.543 17.3399 124.136 18.6785C122.729 20.0162 117.271 25.5016 117.271 25.5016H118.678L112.325 30.6532H112.964L112.069 31.7231C112.581 31.9242 113.092 31.7907 113.561 31.3893V31.7231C113.561 31.7231 121.108 27.0414 122.558 28.2447L121.663 28.647C121.748 28.647 123.155 28.7797 123.155 28.7797C123.24 29.7169 123.581 30.5856 124.094 31.0546C124.946 31.9242 124.989 32.46 124.989 32.46C124.989 32.46 124.563 32.727 124.563 33.1284C125.373 32.7261 126.226 32.7261 126.993 33.1284C126.993 33.1284 126.95 32.7261 126.353 32.4591C125.756 32.0577 125.245 31.456 124.861 30.5864C124.52 29.8504 124.392 28.914 124.605 28.0445C124.818 27.1749 125.543 26.7058 127.036 25.5025C128.784 24.0971 129.21 23.0272 129.424 22.1568C129.637 21.2872 130.063 19.6824 130.234 18.8788C130.404 18.1427 130.703 17.541 131.087 17.0061C131.556 16.6047 132.068 16.27 132.536 16.003C132.621 16.0697 131.684 14.8638 131.385 14.53Z" fill="white"/>
<circle cx="200.755" cy="70.7561" r="34.2449" fill="black"/>
<circle cx="194.316" cy="67.5311" r="33.7449" fill="white" stroke="#2F2F2F"/>
<circle cx="194.316" cy="67.5312" r="29.562" fill="black"/>
<path d="M208.24 52.6444C207.614 51.7733 206.918 51.1185 206.083 50.8993C205.04 50.6815 203.996 51.7733 203.301 52.5369C202.606 53.3006 201.214 55.265 200.658 56.0272C200.102 56.7923 198.711 57.2279 196.415 59.4115C194.119 61.5936 185.217 70.5414 185.217 70.5414H187.512L177.149 78.9446H178.191L176.731 80.6898C177.566 81.0179 178.401 80.8001 179.165 80.1453V80.6898C179.165 80.6898 191.476 73.053 193.841 75.0159L192.381 75.6721C192.52 75.6721 194.815 75.8885 194.815 75.8885C194.954 77.4173 195.51 78.8343 196.346 79.5994C197.737 81.0179 197.806 81.8918 197.806 81.8918C197.806 81.8918 197.111 82.3274 197.111 82.9822C198.433 82.326 199.824 82.326 201.075 82.9822C201.075 82.9822 201.006 82.326 200.032 81.8904C199.058 81.2357 198.223 80.2542 197.598 78.8357C197.041 77.6351 196.832 76.1077 197.18 74.6892C197.528 73.2708 198.711 72.5057 201.145 70.5428C203.997 68.2503 204.692 66.5052 205.041 65.0853C205.388 63.6668 206.083 61.0491 206.362 59.7381C206.64 58.5375 207.126 57.556 207.753 56.6834C208.518 56.0286 209.353 55.4828 210.118 55.0472C210.257 55.1561 208.727 53.1889 208.24 52.6444Z" fill="white"/>
</svg>
