<!-- Generated by IcoMoon.io -->
<svg version="1.1" xmlns="http://www.w3.org/2000/svg" width="1024" height="1024" viewBox="0 0 1024 1024">
<title></title>
<g id="icomoon-ignore">
</g>
<path d="M814.545 500.364c0 160.665-130.244 290.909-290.909 290.909s-290.909-130.244-290.909-290.909c0-160.665 130.244-290.909 290.909-290.909s290.909 130.244 290.909 290.909z"></path>
<path fill="#f0f3fb" d="M689.285 377.067c7.724 6.831 8.42 18.6 1.555 26.284l-199.629 223.418c-3.551 3.975-8.641 6.249-13.987 6.249s-10.438-2.274-13.989-6.249l-99.814-111.709c-6.865-7.685-6.17-19.454 1.555-26.284 7.727-6.833 19.556-6.139 26.422 1.545l85.827 96.054 185.64-207.763c6.868-7.685 18.697-8.378 26.422-1.545z"></path>
</svg>
