<svg width="96" height="46" viewBox="0 0 96 46" fill="none" xmlns="http://www.w3.org/2000/svg">
<g filter="url(#filter0_i_1581_10011)">
<circle cx="16.3556" cy="22.7556" r="16.3556" fill="#C8FDEF"/>
</g>
<path d="M14.4185 21.3572V17.5369H9.237V14.1883H23.7161V17.5841H18.5346V21.3572H14.4185Z" fill="#00A478"/>
<path fill-rule="evenodd" clip-rule="evenodd" d="M7.00958 21.7818C7.00958 20.5084 11.1741 19.4708 16.3556 19.4708C21.5371 19.4708 25.7016 20.5084 25.7016 21.7818C25.7016 23.0552 21.5371 24.0928 16.3556 24.0928C11.1741 24.0928 7.00958 23.0552 7.00958 21.7818ZM24.9267 21.7815C24.5878 21.3099 21.7791 19.8478 16.3555 19.8478C10.9319 19.8478 8.12324 21.2627 7.78426 21.7815C8.12324 22.2532 10.9319 22.9606 16.3555 22.9606C21.8275 22.9606 24.5878 22.2532 24.9267 21.7815Z" fill="#00A478"/>
<path d="M18.5349 22.5364V19.8952C17.8569 19.848 17.1305 19.8008 16.4042 19.8008C15.7262 19.8008 15.0967 19.8008 14.4672 19.848V22.4892C15.0483 22.4892 15.7262 22.5364 16.4042 22.5364C17.1305 22.5835 17.8569 22.5835 18.5349 22.5364Z" fill="#00A478"/>
<path d="M16.3557 24.0928C15.6778 24.0928 15.0483 24.0928 14.4187 24.0456V31.0731H18.4864V23.9985C17.8085 24.0456 17.0821 24.0928 16.3557 24.0928Z" fill="#00A478"/>
<g filter="url(#filter1_i_1581_10011)">
<circle cx="79.6444" cy="22.7556" r="16.3556" fill="#E0EFFF"/>
</g>
<path d="M80 35C86.65 35 92 29.65 92 23C92 16.35 86.65 11 80 11C73.35 11 68 16.35 68 23C68 29.65 73.35 35 80 35Z" fill="#2775CA"/>
<path d="M83.3 24.9C83.3 23.15 82.25 22.55 80.15 22.3001C78.65 22.1 78.35 21.7001 78.35 21C78.35 20.2999 78.85 19.85 79.85 19.85C80.75 19.85 81.25 20.15 81.5 20.9C81.55 21.05 81.7 21.15 81.85 21.15H82.65C82.85 21.15 83 21 83 20.8001V20.75C82.8 19.65 81.9 18.8 80.75 18.7001V17.5001C80.75 17.3 80.6 17.15 80.35 17.1H79.6C79.4 17.1 79.25 17.25 79.2 17.5001V18.65C77.7 18.8501 76.75 19.85 76.75 21.1001C76.75 22.7501 77.75 23.4 79.85 23.6501C81.25 23.9 81.7 24.2 81.7 25.0001C81.7 25.8001 81 26.3501 80.05 26.3501C78.75 26.3501 78.3 25.8 78.15 25.05C78.1 24.8501 77.95 24.75 77.8 24.75H76.95C76.75 24.75 76.6 24.9 76.6 25.1V25.1501C76.8 26.4 77.6 27.3 79.25 27.5501V28.7501C79.25 28.95 79.4 29.1 79.65 29.15H80.4C80.6 29.15 80.75 29 80.8 28.7501V27.5501C82.3 27.3 83.3 26.25 83.3 24.9Z" fill="white"/>
<path d="M77.45 30.15C73.55 28.7501 71.55 24.4001 73 20.55C73.75 18.45 75.4 16.85 77.45 16.1C77.65 16.0001 77.75 15.8501 77.75 15.6V14.9C77.75 14.7 77.65 14.55 77.45 14.5001C77.4 14.5001 77.3 14.5001 77.25 14.55C72.5 16.05 69.9 21.1001 71.4 25.85C72.3 28.65 74.45 30.8 77.25 31.7C77.45 31.8 77.65 31.7 77.7 31.5C77.75 31.4501 77.75 31.4 77.75 31.3001V30.6C77.75 30.45 77.6 30.2501 77.45 30.15ZM82.75 14.55C82.55 14.45 82.35 14.55 82.3 14.75C82.25 14.8001 82.25 14.85 82.25 14.9501V15.65C82.25 15.8501 82.4 16.05 82.55 16.1501C86.45 17.55 88.45 21.9 87 25.7501C86.25 27.8501 84.6 29.45 82.55 30.2C82.35 30.3 82.25 30.45 82.25 30.7001V31.4C82.25 31.6001 82.35 31.7501 82.55 31.8C82.6 31.8 82.7 31.8 82.75 31.7501C87.5 30.2501 90.1 25.2 88.6 20.45C87.7 17.6 85.5 15.45 82.75 14.55V14.55Z" fill="white"/>
<g filter="url(#filter2_i_1581_10011)">
<circle cx="48" cy="22.7556" r="22.7556" fill="#FAFAFA"/>
</g>
<g clip-path="url(#clip0_1581_10011)">
<path d="M47.999 13.5558C51.0976 13.5558 53.6095 12.0676 53.6095 10.2319C53.6095 8.39613 51.0976 6.90796 47.999 6.90796C44.9004 6.90796 42.3885 8.39613 42.3885 10.2319C42.3885 12.0676 44.9004 13.5558 47.999 13.5558Z" fill="#E6007A"/>
<path d="M47.999 38.601C51.0976 38.601 53.6095 37.1128 53.6095 35.277C53.6095 33.4413 51.0976 31.9531 47.999 31.9531C44.9004 31.9531 42.3885 33.4413 42.3885 35.277C42.3885 37.1128 44.9004 38.601 47.999 38.601Z" fill="#E6007A"/>
<path d="M40.1804 18.1569C41.7297 15.4235 41.7196 12.463 40.1579 11.5445C38.5962 10.626 36.0743 12.0973 34.525 14.8308C32.9757 17.5642 32.9857 20.5247 34.5474 21.4432C36.1091 22.3617 38.6311 20.8904 40.1804 18.1569Z" fill="#E6007A"/>
<path d="M61.4707 30.678C63.02 27.9446 63.0108 24.9846 61.4501 24.0667C59.8895 23.1488 57.3683 24.6206 55.819 27.3541C54.2697 30.0875 54.2789 33.0475 55.8396 33.9654C57.4002 34.8832 59.9214 33.4114 61.4707 30.678Z" fill="#E6007A"/>
<path d="M40.1587 33.9646C41.7204 33.0461 41.7305 30.0856 40.1812 27.3522C38.6319 24.6187 36.1099 23.1474 34.5482 24.0659C32.9865 24.9844 32.9765 27.9449 34.5258 30.6783C36.0751 33.4118 38.597 34.8831 40.1587 33.9646Z" fill="#E6007A"/>
<path d="M61.4514 21.4439C63.0121 20.526 63.0213 17.566 61.472 14.8326C59.9227 12.0991 57.4016 10.6273 55.8409 11.5452C54.2803 12.4631 54.2711 15.423 55.8204 18.1565C57.3697 20.8899 59.8908 22.3617 61.4514 21.4439Z" fill="#E6007A"/>
</g>
<defs>
<filter id="filter0_i_1581_10011" x="0" y="4.40002" width="32.7111" height="34.7111" filterUnits="userSpaceOnUse" color-interpolation-filters="sRGB">
<feFlood flood-opacity="0" result="BackgroundImageFix"/>
<feBlend mode="normal" in="SourceGraphic" in2="BackgroundImageFix" result="shape"/>
<feColorMatrix in="SourceAlpha" type="matrix" values="0 0 0 0 0 0 0 0 0 0 0 0 0 0 0 0 0 0 127 0" result="hardAlpha"/>
<feOffset dy="-2"/>
<feGaussianBlur stdDeviation="2"/>
<feComposite in2="hardAlpha" operator="arithmetic" k2="-1" k3="1"/>
<feColorMatrix type="matrix" values="0 0 0 0 0 0 0 0 0 0.643137 0 0 0 0 0.470588 0 0 0 0.25 0"/>
<feBlend mode="normal" in2="shape" result="effect1_innerShadow_1581_10011"/>
</filter>
<filter id="filter1_i_1581_10011" x="63.2889" y="4.40002" width="32.7111" height="34.7111" filterUnits="userSpaceOnUse" color-interpolation-filters="sRGB">
<feFlood flood-opacity="0" result="BackgroundImageFix"/>
<feBlend mode="normal" in="SourceGraphic" in2="BackgroundImageFix" result="shape"/>
<feColorMatrix in="SourceAlpha" type="matrix" values="0 0 0 0 0 0 0 0 0 0 0 0 0 0 0 0 0 0 127 0" result="hardAlpha"/>
<feOffset dy="-2"/>
<feGaussianBlur stdDeviation="2"/>
<feComposite in2="hardAlpha" operator="arithmetic" k2="-1" k3="1"/>
<feColorMatrix type="matrix" values="0 0 0 0 0.152941 0 0 0 0 0.458824 0 0 0 0 0.792157 0 0 0 0.25 0"/>
<feBlend mode="normal" in2="shape" result="effect1_innerShadow_1581_10011"/>
</filter>
<filter id="filter2_i_1581_10011" x="25.2444" y="-2" width="45.5111" height="47.5111" filterUnits="userSpaceOnUse" color-interpolation-filters="sRGB">
<feFlood flood-opacity="0" result="BackgroundImageFix"/>
<feBlend mode="normal" in="SourceGraphic" in2="BackgroundImageFix" result="shape"/>
<feColorMatrix in="SourceAlpha" type="matrix" values="0 0 0 0 0 0 0 0 0 0 0 0 0 0 0 0 0 0 127 0" result="hardAlpha"/>
<feOffset dy="-2"/>
<feGaussianBlur stdDeviation="2.5"/>
<feComposite in2="hardAlpha" operator="arithmetic" k2="-1" k3="1"/>
<feColorMatrix type="matrix" values="0 0 0 0 0 0 0 0 0 0 0 0 0 0 0 0 0 0 0.2 0"/>
<feBlend mode="normal" in2="shape" result="effect1_innerShadow_1581_10011"/>
</filter>
<clipPath id="clip0_1581_10011">
<rect width="29.2571" height="31.6952" fill="white" transform="translate(33.3716 6.90796)"/>
</clipPath>
</defs>
</svg>
