<svg width="514" height="94" viewBox="0 0 514 94" fill="none" xmlns="http://www.w3.org/2000/svg">
<path d="M487 90.5L392.885 63.3642L392.885 29.8724L487 4.49991" stroke="#D7D9E1"/>
<path d="M509 47.0002L77 47.0001" stroke="#D7D9E1"/>
<path d="M131 53.0001L137 47.0001L131 41.0001" stroke="#2F2F2F" stroke-width="2" stroke-linecap="round" stroke-linejoin="round"/>
<path d="M193 53.0001L199 47.0001L193 41.0001" stroke="#2F2F2F" stroke-width="2" stroke-linecap="round" stroke-linejoin="round"/>
<path d="M329 53.0001L335 47.0001L329 41.0001" stroke="#2F2F2F" stroke-width="2" stroke-linecap="round" stroke-linejoin="round"/>
<rect x="372.454" y="65.8875" width="8.17264" height="38.8201" rx="4.08632" transform="rotate(-90 372.454 65.8875)" fill="#F0F3FB"/>
<rect x="372.454" y="51.5858" width="8.17264" height="38.8201" rx="4.08632" transform="rotate(-90 372.454 51.5858)" fill="#F0F3FB"/>
<rect x="372.454" y="37.2842" width="8.17264" height="38.8201" rx="4.08632" transform="rotate(-90 372.454 37.2842)" fill="#F0F3FB"/>
<path d="M459.288 58.7373L486.87 90.4062" stroke="#D7D9E1"/>
<path d="M459.288 36.2621L486.87 4.59309" stroke="#D7D9E1"/>
<path d="M487 5.00012L501.5 24.0001L510 47.0001L501 70.5001L486 90.5001" stroke="#D7D9E1"/>
<path d="M461 42L500.5 24.5" stroke="#D7D9E1"/>
<path d="M461 52L500.5 70" stroke="#D7D9E1"/>
<rect x="432" y="63" width="32" height="32" rx="3" transform="rotate(-90 432 63)" fill="#F0F3FB"/>
<path fill-rule="evenodd" clip-rule="evenodd" d="M442.724 46.4908L438.503 48.3876C437.564 48.8094 437.567 50.1422 438.507 50.5604L448.918 55.1906C449.541 55.4675 450.252 55.4646 450.873 55.1826L457.501 52.1694C458.433 51.7458 458.431 50.4226 457.499 50.0014L453.331 48.12L450.873 49.2376C450.252 49.5196 449.541 49.5225 448.918 49.2456L442.724 46.4908Z" fill="url(#paint0_linear_508_5421)"/>
<path d="M445.254 38.8097C445.876 38.53 446.589 38.5306 447.211 38.8114L457.5 43.4565C458.432 43.8776 458.434 45.2009 457.502 45.6244L450.874 48.6377C450.253 48.9197 449.542 48.9226 448.919 48.6456L438.508 44.0155C437.568 43.5973 437.565 42.2644 438.504 41.8427L445.254 38.8097Z" fill="url(#paint1_linear_508_5421)"/>
<path d="M77 47C77 66.8823 60.8823 83 41 83C21.1178 83 5 66.8823 5 47C5 27.1178 21.1178 11 41 11C60.8823 11 77 27.1178 77 47Z" stroke="#F0F3FB" stroke-width="10"/>
<rect width="6.91629" height="6.91629" rx="2" transform="matrix(0.999975 0.00708422 0.00708422 -0.999975 73.6812 49.8682)" fill="#9AAEF0"/>
<rect width="6.91629" height="6.91629" rx="2" transform="matrix(0.999975 0.00708422 0.00708422 -0.999975 2 49.8682)" fill="#9AAEF0"/>
<rect width="6.91629" height="6.91629" rx="2" transform="matrix(0.999975 0.00708422 0.00708422 -0.999975 38 14.916)" fill="#9AAEF0"/>
<rect width="6.91629" height="6.91629" rx="2" transform="matrix(0.999975 0.00708422 0.00708422 -0.999975 38 85.916)" fill="#9AAEF0"/>
<circle cx="486" cy="4" r="4" fill="#9AAEF0"/>
<circle cx="501" cy="24" r="4" fill="#9AAEF0"/>
<circle cx="510" cy="47" r="4" fill="#9AAEF0"/>
<circle cx="501" cy="70" r="4" fill="#9AAEF0"/>
<circle cx="486" cy="90" r="4" fill="#9AAEF0"/>
<circle cx="264" cy="47" r="16" fill="white"/>
<path d="M257.84 37.6815C259.497 35.8938 261.746 35 264.113 35C266.361 35 268.61 36.0215 270.267 37.6815C271.924 39.3415 272.87 41.6399 272.989 43.9383C273.107 46.3644 272.279 48.6628 270.74 50.4505C269.202 52.2381 267.071 53.3873 264.823 53.515C264.823 53.515 263.639 53.6427 263.403 53.6427C262.811 53.7704 262.219 54.0258 261.746 54.5365C261.272 55.0473 260.917 55.5581 260.799 56.3242C260.799 56.3242 260.444 58.1119 260.444 58.2396C260.444 58.3672 260.326 58.6226 260.207 58.7503C260.089 58.878 259.971 59.0057 259.852 59.1334C259.734 59.1334 259.616 59.2611 259.379 59.2611C259.261 59.2611 259.024 59.2611 258.905 59.2611C258.787 59.2611 258.55 59.1334 258.432 59.1334C258.314 59.0057 258.195 58.878 258.077 58.7503C257.959 58.6226 257.959 58.4949 257.959 58.2396C257.959 58.1119 257.959 57.8565 257.959 57.7288C257.959 57.6011 260.799 44.066 260.799 44.066C260.917 43.6829 261.036 43.4275 261.272 43.2998C261.509 43.1722 261.864 43.0445 262.219 43.1721C262.574 43.2998 262.811 43.4275 263.048 43.6829C263.166 43.9383 263.284 44.3214 263.166 44.7044L261.983 50.1951L261.746 51.3443C261.983 51.3443 262.219 51.2166 262.456 51.2166C263.048 51.0889 264.349 51.0889 264.349 51.0889C265.651 50.9612 266.835 50.5782 267.782 49.812C268.728 49.0459 269.557 48.0244 270.03 46.7475C270.504 45.4706 270.504 44.1937 270.267 42.9168C270.03 41.6399 269.32 40.4907 268.492 39.5968C267.545 38.703 266.48 38.0646 265.178 37.8092C263.994 37.5538 262.693 37.6815 261.509 38.1922C260.326 38.703 259.379 39.4691 258.669 40.6184C257.959 41.6399 257.604 42.9168 257.485 44.1937C257.485 44.9598 257.604 45.8536 257.84 46.6198C257.959 47.0028 257.959 47.2582 257.722 47.6413C257.604 47.8967 257.367 48.1521 257.012 48.2797C256.657 48.4074 256.42 48.4074 256.065 48.1521C255.828 48.0244 255.592 47.769 255.473 47.3859C255.118 46.3644 255 45.3429 255 44.3214C255.237 41.8953 256.183 39.4691 257.84 37.6815Z" fill="#222222"/>
<ellipse cx="264.365" cy="57.9256" rx="1.39432" ry="1.39432" fill="#F139A2"/>
<rect width="31.9441" height="31.9465" rx="15.972" transform="matrix(0.00173006 -0.999999 0.999999 0.00169853 248 62.9441)" fill="black"/>
<path d="M271.063 39.8796C270.745 39.4449 270.393 39.1182 269.97 39.0088C269.442 38.9001 268.913 39.4449 268.561 39.8259C268.209 40.207 267.504 41.1871 267.223 41.5675C266.941 41.9492 266.236 42.1665 265.074 43.256C263.911 44.3448 259.402 48.8094 259.402 48.8094H260.565L255.316 53.0023H255.844L255.104 53.873C255.527 54.0367 255.95 53.9281 256.337 53.6014V53.873C256.337 53.873 262.573 50.0626 263.77 51.042L263.031 51.3694C263.101 51.3694 264.263 51.4774 264.263 51.4774C264.334 52.2402 264.615 52.9472 265.039 53.329C265.743 54.0367 265.778 54.4728 265.778 54.4728C265.778 54.4728 265.426 54.6902 265.426 55.0169C266.096 54.6895 266.8 54.6895 267.434 55.0169C267.434 55.0169 267.399 54.6895 266.906 54.4721C266.412 54.1454 265.99 53.6557 265.673 52.9479C265.391 52.3489 265.285 51.5868 265.461 50.879C265.638 50.1713 266.236 49.7895 267.469 48.8101C268.914 47.6663 269.266 46.7955 269.442 46.087C269.618 45.3793 269.97 44.0732 270.111 43.419C270.252 42.82 270.499 42.3302 270.816 41.8949C271.203 41.5682 271.626 41.2958 272.013 41.0784C272.084 41.1328 271.309 40.1513 271.063 39.8796Z" fill="white"/>
<path d="M54.3055 34.5463C53.7428 33.7867 53.1177 33.2157 52.3677 33.0246C51.4304 32.8347 50.4931 33.7867 49.8687 34.4526C49.2444 35.1185 47.9933 36.8313 47.4947 37.496C46.9952 38.1631 45.7449 38.543 43.683 40.447C41.6203 42.3497 33.6233 50.1519 33.6233 50.1519H35.6852L26.3754 57.4793H27.3119L26 59.0011C26.75 59.2871 27.5 59.0972 28.1868 58.5263V59.0011C28.1868 59.0011 39.2463 52.342 41.3706 54.0536L40.0587 54.6258C40.1836 54.6258 42.2455 54.8145 42.2455 54.8145C42.3703 56.1475 42.8698 57.3832 43.6206 58.0503C44.8701 59.2871 44.9325 60.0492 44.9325 60.0492C44.9325 60.0492 44.3082 60.429 44.3082 61C45.4952 60.4278 46.7447 60.4278 47.8693 61C47.8693 61 47.8068 60.4278 46.932 60.048C46.0571 59.4771 45.3071 58.6212 44.7452 57.3844C44.2449 56.3374 44.0576 55.0056 44.3698 53.7688C44.6828 52.5319 45.7449 51.8648 47.9317 50.1531C50.4939 48.1542 51.1182 46.6325 51.4312 45.3944C51.7433 44.1575 52.3677 41.8749 52.6182 40.7318C52.8679 39.6849 53.305 38.8291 53.8677 38.0682C54.5553 37.4972 55.3053 37.0212 55.992 36.6414C56.1169 36.7364 54.7425 35.0211 54.3055 34.5463Z" fill="#2F2F2F"/>
<defs>
<linearGradient id="paint0_linear_508_5421" x1="458.195" y1="49.9945" x2="437.805" y2="49.9945" gradientUnits="userSpaceOnUse">
<stop stop-color="#EF18AC"/>
<stop offset="1" stop-color="#FAD972"/>
</linearGradient>
<linearGradient id="paint1_linear_508_5421" x1="458.196" y1="46.4009" x2="437.806" y2="46.4009" gradientUnits="userSpaceOnUse">
<stop stop-color="#5314F1"/>
<stop offset="1" stop-color="#04E2FF"/>
</linearGradient>
</defs>
</svg>
