<svg width="215" height="40" viewBox="0 0 215 40" fill="none" xmlns="http://www.w3.org/2000/svg">
<path d="M48 29.6721V10.5464H55.1633C56.7121 10.5464 57.9936 10.8015 59.0077 11.3115C60.0218 11.8215 60.7778 12.5228 61.2756 13.4153C61.7734 14.3078 62.0223 15.3097 62.0223 16.4208C62.0223 17.4772 61.7826 18.4517 61.3033 19.3443C60.8239 20.2186 60.0771 20.929 59.063 21.4754C58.0489 22.0036 56.749 22.2678 55.1633 22.2678H51.5402V29.6721H48ZM51.5402 19.4262H54.942C56.1774 19.4262 57.0624 19.1621 57.5971 18.6339C58.1503 18.0874 58.4269 17.3497 58.4269 16.4208C58.4269 15.4736 58.1503 14.7359 57.5971 14.2076C57.0624 13.6612 56.1774 13.388 54.942 13.388H51.5402V19.4262Z" fill="#2F2F2F"/>
<path d="M69.1351 30C67.955 30 66.987 29.8179 66.231 29.4536C65.4751 29.071 64.9127 28.5701 64.5439 27.9508C64.1752 27.3315 63.9908 26.6485 63.9908 25.9016C63.9908 24.6448 64.4886 23.6248 65.4843 22.8415C66.48 22.0583 67.9735 21.6667 69.9648 21.6667H73.4496V21.3388C73.4496 20.4098 73.1823 19.7268 72.6476 19.2896C72.1129 18.8525 71.4491 18.6339 70.6562 18.6339C69.9371 18.6339 69.3102 18.8069 68.7755 19.153C68.2408 19.4809 67.9089 19.9727 67.7799 20.6284H64.3227C64.4149 19.6448 64.7468 18.7887 65.3183 18.0601C65.9084 17.3315 66.6643 16.776 67.5863 16.3934C68.5082 15.9927 69.5407 15.7923 70.6839 15.7923C72.6384 15.7923 74.178 16.275 75.3027 17.2404C76.4274 18.2058 76.9898 19.5719 76.9898 21.3388V29.6721H73.9751L73.6432 27.4863C73.2376 28.2149 72.666 28.816 71.9285 29.2896C71.2094 29.7632 70.2782 30 69.1351 30ZM69.9371 27.2678C70.9513 27.2678 71.7349 26.9399 72.288 26.2842C72.8596 25.6284 73.2192 24.8179 73.3667 23.8525H70.352C69.4116 23.8525 68.7386 24.0255 68.333 24.3716C67.9274 24.6995 67.7245 25.1093 67.7245 25.6011C67.7245 26.1293 67.9274 26.5392 68.333 26.8306C68.7386 27.122 69.2734 27.2678 69.9371 27.2678Z" fill="#2F2F2F"/>
<path d="M80.9213 29.6721V16.1202H84.0742L84.4061 18.6612C84.9039 17.7869 85.5769 17.0947 86.4251 16.5847C87.2917 16.0565 88.3058 15.7923 89.4674 15.7923V19.4809H88.4718C87.6974 19.4809 87.0059 19.5993 86.3975 19.8361C85.789 20.0729 85.3096 20.4827 84.9593 21.0656C84.6274 21.6485 84.4614 22.459 84.4614 23.4973V29.6721H80.9213Z" fill="#2F2F2F"/>
<path d="M97.1696 30C95.9896 30 95.0215 29.8179 94.2656 29.4536C93.5096 29.071 92.9472 28.5701 92.5785 27.9508C92.2097 27.3315 92.0253 26.6485 92.0253 25.9016C92.0253 24.6448 92.5232 23.6248 93.5188 22.8415C94.5145 22.0583 96.008 21.6667 97.9993 21.6667H101.484V21.3388C101.484 20.4098 101.217 19.7268 100.682 19.2896C100.147 18.8525 99.4836 18.6339 98.6908 18.6339C97.9717 18.6339 97.3448 18.8069 96.8101 19.153C96.2753 19.4809 95.9435 19.9727 95.8144 20.6284H92.3572C92.4494 19.6448 92.7813 18.7887 93.3529 18.0601C93.9429 17.3315 94.6989 16.776 95.6208 16.3934C96.5427 15.9927 97.5753 15.7923 98.7184 15.7923C100.673 15.7923 102.212 16.275 103.337 17.2404C104.462 18.2058 105.024 19.5719 105.024 21.3388V29.6721H102.01L101.678 27.4863C101.272 28.2149 100.701 28.816 99.963 29.2896C99.2439 29.7632 98.3128 30 97.1696 30ZM97.9717 27.2678C98.9858 27.2678 99.7694 26.9399 100.323 26.2842C100.894 25.6284 101.254 24.8179 101.401 23.8525H98.3865C97.4462 23.8525 96.7732 24.0255 96.3675 24.3716C95.9619 24.6995 95.7591 25.1093 95.7591 25.6011C95.7591 26.1293 95.9619 26.5392 96.3675 26.8306C96.7732 27.122 97.3079 27.2678 97.9717 27.2678Z" fill="#2F2F2F"/>
<path d="M108.956 29.6721V10H112.496V29.6721H108.956Z" fill="#2F2F2F"/>
<path d="M116.666 29.6721V10H120.207V29.6721H116.666Z" fill="#2F2F2F"/>
<path d="M131.042 30C129.66 30 128.433 29.7086 127.364 29.1257C126.295 28.5428 125.456 27.7231 124.847 26.6667C124.239 25.6102 123.934 24.3898 123.934 23.0055C123.934 21.6029 124.23 20.3552 124.82 19.2623C125.428 18.1694 126.258 17.3224 127.309 16.7213C128.378 16.102 129.632 15.7923 131.07 15.7923C132.416 15.7923 133.605 16.0838 134.638 16.6667C135.67 17.2495 136.473 18.051 137.044 19.071C137.634 20.0729 137.929 21.1931 137.929 22.4317C137.929 22.6321 137.92 22.8415 137.902 23.0601C137.902 23.2787 137.892 23.5064 137.874 23.7432H127.447C127.521 24.7996 127.89 25.6284 128.553 26.2295C129.236 26.8306 130.056 27.1311 131.015 27.1311C131.734 27.1311 132.333 26.9763 132.813 26.6667C133.31 26.3388 133.679 25.9199 133.919 25.4098H137.514C137.256 26.2659 136.823 27.0492 136.214 27.7596C135.624 28.4517 134.887 28.9982 134.002 29.3989C133.135 29.7996 132.149 30 131.042 30ZM131.07 18.6339C130.204 18.6339 129.438 18.8798 128.775 19.3716C128.111 19.8452 127.687 20.5738 127.502 21.5574H134.334C134.278 20.6648 133.947 19.9545 133.338 19.4262C132.73 18.898 131.974 18.6339 131.07 18.6339Z" fill="#2F2F2F"/>
<path d="M141.46 29.6721V10H145V29.6721H141.46Z" fill="#2F2F2F"/>
<path fill-rule="evenodd" clip-rule="evenodd" d="M11.2086 19.1514L4.17091 22.3136C2.60641 23.0166 2.61068 25.238 4.17785 25.935L21.5296 33.6519C22.5674 34.1134 23.7533 34.1086 24.7872 33.6386L35.8352 28.6165C37.3881 27.9106 37.3852 25.7052 35.8305 25.0033L28.8833 21.8668L24.7878 23.7284C23.7539 24.1984 22.568 24.2033 21.5302 23.7418L11.2086 19.1514Z" fill="url(#paint0_linear)"/>
<path d="M15.4227 6.3489C16.4603 5.88268 17.6482 5.88375 18.6849 6.35182L35.8323 14.0936C37.387 14.7955 37.3899 17.0009 35.837 17.7068L24.789 22.7289C23.7551 23.1989 22.5692 23.2037 21.5314 22.7422L4.17965 15.0252C2.61248 14.3282 2.60822 12.1068 4.17271 11.4039L15.4227 6.3489Z" fill="url(#paint1_linear)"/>
<path d="M153 28.7049V11.4918H155.607V18.8689H163.943V11.4918H166.549V28.7049H163.943V21.0082H155.607V28.7049H153Z" fill="#2F2F2F"/>
<path d="M175.656 29C174.46 29 173.394 28.7377 172.46 28.2131C171.542 27.6721 170.82 26.9262 170.296 25.9754C169.771 25.0246 169.509 23.918 169.509 22.6557C169.509 21.377 169.763 20.2541 170.271 19.2869C170.796 18.3197 171.517 17.5656 172.435 17.0246C173.369 16.4836 174.451 16.2131 175.681 16.2131C176.878 16.2131 177.919 16.4836 178.804 17.0246C179.689 17.5492 180.378 18.2541 180.869 19.1393C181.361 20.0246 181.607 21 181.607 22.0656C181.607 22.2295 181.599 22.4098 181.583 22.6066C181.583 22.7869 181.574 22.9918 181.558 23.2213H172.066C172.148 24.4016 172.533 25.3033 173.222 25.9262C173.927 26.5328 174.738 26.8361 175.656 26.8361C176.394 26.8361 177.009 26.6721 177.501 26.3443C178.009 26 178.386 25.541 178.632 24.9672H181.238C180.91 26.1148 180.255 27.0738 179.271 27.8443C178.304 28.6148 177.099 29 175.656 29ZM175.656 18.3525C174.788 18.3525 174.017 18.6148 173.345 19.1393C172.673 19.6475 172.263 20.418 172.115 21.4508H179.001C178.951 20.5 178.615 19.7459 177.992 19.1885C177.369 18.6311 176.591 18.3525 175.656 18.3525Z" fill="#2F2F2F"/>
<path d="M185.787 14.1967C185.295 14.1967 184.886 14.0492 184.558 13.7541C184.246 13.4426 184.09 13.0574 184.09 12.5984C184.09 12.1393 184.246 11.7623 184.558 11.4672C184.886 11.1557 185.295 11 185.787 11C186.279 11 186.681 11.1557 186.992 11.4672C187.32 11.7623 187.484 12.1393 187.484 12.5984C187.484 13.0574 187.32 13.4426 186.992 13.7541C186.681 14.0492 186.279 14.1967 185.787 14.1967ZM184.484 28.7049V16.5082H187.09V28.7049H184.484Z" fill="#2F2F2F"/>
<path d="M190.531 28.7049V11H193.138V21.5492L197.81 16.5082H200.933L195.744 22.041L201.695 28.7049H198.4L193.138 22.459V28.7049H190.531Z" fill="#2F2F2F"/>
<path d="M208.483 29C207.319 29 206.27 28.7377 205.336 28.2131C204.418 27.6721 203.688 26.9262 203.147 25.9754C202.606 25.0082 202.336 23.8852 202.336 22.6066C202.336 21.3279 202.606 20.2131 203.147 19.2623C203.705 18.2951 204.45 17.5492 205.385 17.0246C206.319 16.4836 207.36 16.2131 208.508 16.2131C209.672 16.2131 210.713 16.4836 211.631 17.0246C212.565 17.5492 213.303 18.2951 213.844 19.2623C214.401 20.2131 214.68 21.3279 214.68 22.6066C214.68 23.8852 214.401 25.0082 213.844 25.9754C213.303 26.9262 212.565 27.6721 211.631 28.2131C210.696 28.7377 209.647 29 208.483 29ZM208.483 26.7623C209.106 26.7623 209.68 26.6066 210.205 26.2951C210.746 25.9836 211.18 25.5246 211.508 24.918C211.836 24.2951 212 23.5246 212 22.6066C212 21.6885 211.836 20.9262 211.508 20.3197C211.196 19.6967 210.77 19.2295 210.229 18.918C209.705 18.6066 209.131 18.4508 208.508 18.4508C207.885 18.4508 207.303 18.6066 206.762 18.918C206.237 19.2295 205.811 19.6967 205.483 20.3197C205.155 20.9262 204.991 21.6885 204.991 22.6066C204.991 23.5246 205.155 24.2951 205.483 24.918C205.811 25.5246 206.237 25.9836 206.762 26.2951C207.287 26.6066 207.86 26.7623 208.483 26.7623Z" fill="#2F2F2F"/>
<defs>
<linearGradient id="paint0_linear" x1="36.9917" y1="24.9911" x2="3.00773" y2="24.9911" gradientUnits="userSpaceOnUse">
<stop stop-color="#EF18AC"/>
<stop offset="1" stop-color="#FAD972"/>
</linearGradient>
<linearGradient id="paint1_linear" x1="36.9929" y1="19.001" x2="3.00891" y2="19.001" gradientUnits="userSpaceOnUse">
<stop stop-color="#5314F1"/>
<stop offset="1" stop-color="#04E2FF"/>
</linearGradient>
</defs>
</svg>
