<svg width="137" height="183" viewBox="0 0 137 183" fill="none" xmlns="http://www.w3.org/2000/svg">
<g opacity="0.2">
<path d="M22.2223 20.1773C34.6897 6.72578 51.6097 0 69.4203 0C86.3404 0 103.26 7.68661 115.728 20.1773C128.195 32.6681 135.319 49.9629 136.21 67.2578C137.1 85.5135 130.867 102.808 119.29 116.26C107.713 129.711 91.6835 138.359 74.7635 139.32C74.7635 139.32 65.8582 140.281 64.0771 140.281C59.6245 141.241 55.1719 143.163 51.6097 147.006C48.0476 150.85 45.376 154.693 44.4855 160.458C44.4855 160.458 41.8139 173.909 41.8139 174.87C41.8139 175.831 40.9234 177.753 40.0329 178.714C39.1423 179.674 38.2518 180.635 37.3613 181.596C36.4708 181.596 35.5802 182.557 33.7992 182.557C32.9086 182.557 31.1276 182.557 30.237 182.557C29.3465 182.557 27.5655 181.596 26.6749 181.596C25.7844 180.635 24.8939 179.674 24.0034 178.714C23.1128 177.753 23.1128 176.792 23.1128 174.87C23.1128 173.909 23.1128 171.988 23.1128 171.027C23.1128 170.066 44.4855 68.2186 44.4855 68.2186C45.376 65.3361 46.2666 63.4145 48.0476 62.4537C49.8287 61.4928 52.5003 60.532 55.1719 61.4928C57.8434 62.4537 59.6245 63.4145 61.4055 65.3361C62.2961 67.2578 63.1866 70.1403 62.2961 73.0227L53.3908 114.338L51.6097 122.986C53.3908 122.986 55.1718 122.025 56.9529 122.025C61.4055 121.064 71.2014 121.064 71.2014 121.064C80.9972 120.103 89.9025 117.221 97.0267 111.456C104.151 105.691 110.385 98.0042 113.947 88.396C117.509 78.7877 117.509 69.1794 115.728 59.5712C113.947 49.9629 108.604 41.3155 102.37 34.5897C95.2456 27.8639 87.2309 23.0598 77.4351 21.1382C68.5298 19.2165 58.734 20.1773 49.8287 24.0206C40.9234 27.8639 33.7992 33.6289 28.456 42.2763C23.1128 49.9629 20.4412 59.5712 19.5507 69.1794C19.5507 74.9444 20.4412 81.6702 22.2223 87.4351C23.1128 90.3176 23.1128 92.2392 21.3318 95.1217C20.4412 97.0434 18.6602 98.965 15.9886 99.9258C13.317 100.887 11.5359 100.887 8.86436 98.965C7.08331 98.0042 5.30225 96.0826 4.41172 93.2001C1.74013 85.5135 0.849609 77.8269 0.849609 70.1403C2.63067 51.8846 9.75489 33.6289 22.2223 20.1773Z" fill="white"/>
<ellipse cx="71.3219" cy="172.508" rx="10.4918" ry="10.4919" fill="white"/>
</g>
</svg>
