<svg width="44" height="44" viewBox="0 0 44 44" fill="none" xmlns="http://www.w3.org/2000/svg">
<path d="M29.8616 28.5708L27.2333 30.5367L22.4113 31.3594L21.3692 30.8405L21.6898 30.5199L25.7609 30.1781C26.097 30.1475 26.4092 29.9917 26.6358 29.7416C26.8624 29.4916 26.9868 29.1656 26.9844 28.8281C26.9844 28.4978 26.8647 28.1786 26.6476 27.9296C26.4304 27.6807 26.1304 27.5188 25.8031 27.4739L20.2892 26.7188C20.2404 26.7101 20.1904 26.7101 20.1416 26.7188L16.3911 27.5625H13.0625C12.9506 27.5625 12.8433 27.607 12.7642 27.6861C12.6851 27.7652 12.6406 27.8725 12.6406 27.9844V32.625C12.6406 32.7369 12.6851 32.8442 12.7642 32.9233C12.8433 33.0024 12.9506 33.0469 13.0625 33.0469H15.5263L20.5213 34.7344C20.7069 34.7935 20.3145 34.8061 27.8998 33.4688C27.9768 33.4576 28.0488 33.4239 28.1066 33.3717L31.393 30.4524C31.6264 30.2447 31.7705 29.9549 31.7952 29.6435C31.82 29.3321 31.7233 29.0232 31.5256 28.7813C31.3279 28.5395 31.0443 28.3834 30.7342 28.3457C30.4241 28.3081 30.1114 28.3917 29.8616 28.5792V28.5708Z" fill="white" fill-opacity="0.4"/>
<path d="M25.6724 13.5099C25.5412 13.5216 25.4192 13.5821 25.3303 13.6793C25.2414 13.7765 25.1921 13.9034 25.1921 14.0351C25.1921 14.1668 25.2414 14.2937 25.3303 14.3909C25.4192 14.4881 25.5412 14.5486 25.6724 14.5603V13.5099Z" fill="white"/>
<path d="M27.0265 15.9314C27.0255 15.7952 26.9718 15.6646 26.8766 15.5671C26.7815 15.4696 26.6523 15.4127 26.5161 15.4083V16.4588C26.653 16.4544 26.7828 16.3969 26.8781 16.2985C26.9734 16.2 27.0266 16.0684 27.0265 15.9314Z" fill="white"/>
<path d="M25.6723 20.4666C26.6451 20.4669 27.5973 20.187 28.4151 19.6603C29.2329 19.1337 29.8816 18.3826 30.2838 17.4969C30.6859 16.6112 30.8243 15.6284 30.6825 14.6661C30.5407 13.7037 30.1247 12.8026 29.4842 12.0706C28.8437 11.3385 28.0059 10.8064 27.0709 10.5381C26.136 10.2697 25.1435 10.2763 24.2122 10.5572C23.2809 10.8381 22.4503 11.3814 21.8197 12.1219C21.189 12.8625 20.7851 13.7691 20.6562 14.7333C21.8747 15.0965 22.9434 15.8433 23.7035 16.8626C24.4635 17.8818 24.8744 19.1192 24.875 20.3906C25.1383 20.4374 25.4049 20.4628 25.6723 20.4666ZM24.3181 15.9314H25.1619C25.1618 16.0684 25.215 16.2 25.3103 16.2984C25.4056 16.3969 25.5354 16.4544 25.6723 16.4587V15.4041C25.3224 15.3846 24.9932 15.2319 24.7523 14.9773C24.5115 14.7227 24.3773 14.3855 24.3773 14.0351C24.3773 13.6846 24.5115 13.3474 24.7523 13.0928C24.9932 12.8382 25.3224 12.6855 25.6723 12.6661V11.9995H26.5161V12.6661C26.8761 12.6705 27.2199 12.8163 27.4732 13.0721C27.7266 13.3278 27.8692 13.673 27.8703 14.033H27.0266C27.0255 13.8967 26.9718 13.7661 26.8767 13.6686C26.7815 13.5711 26.6523 13.5142 26.5161 13.5098V14.5645C26.866 14.584 27.1952 14.7367 27.4361 14.9913C27.6769 15.2459 27.8112 15.583 27.8112 15.9335C27.8112 16.284 27.6769 16.6212 27.4361 16.8758C27.1952 17.1304 26.866 17.2831 26.5161 17.3025V17.9691H25.6723V17.3025C25.3116 17.2981 24.9672 17.1516 24.7137 16.895C24.4602 16.6383 24.3181 16.2921 24.3181 15.9314Z" fill="white"/>
<path d="M18.0365 19.4414C18.0353 19.5787 18.0882 19.711 18.1837 19.8096C18.2792 19.9083 18.4097 19.9654 18.5469 19.9687V18.9183C18.4104 18.9216 18.2806 18.9781 18.1852 19.0759C18.0898 19.1736 18.0364 19.3048 18.0365 19.4414Z" fill="white"/>
<path d="M19.3906 21.863C19.5299 21.863 19.6635 21.8076 19.762 21.7091C19.8605 21.6106 19.9159 21.477 19.9159 21.3377C19.9159 21.1984 19.8605 21.0648 19.762 20.9663C19.6635 20.8678 19.5299 20.8125 19.3906 20.8125V21.863Z" fill="white"/>
<path d="M18.9687 15.3281C17.9674 15.3281 16.9886 15.625 16.1561 16.1813C15.3236 16.7376 14.6747 17.5282 14.2916 18.4533C13.9084 19.3783 13.8081 20.3962 14.0035 21.3783C14.1988 22.3603 14.681 23.2623 15.389 23.9704C16.097 24.6784 16.999 25.1605 17.981 25.3558C18.9631 25.5512 19.981 25.4509 20.906 25.0678C21.8311 24.6846 22.6217 24.0357 23.178 23.2032C23.7343 22.3707 24.0312 21.3919 24.0312 20.3906C24.0312 19.048 23.4978 17.7603 22.5484 16.8109C21.599 15.8615 20.3113 15.3281 18.9687 15.3281ZM20.7448 21.3398C20.7448 21.7006 20.6027 22.0468 20.3492 22.3034C20.0957 22.5601 19.7513 22.7065 19.3906 22.7109V23.3733H18.5468V22.7109C18.1861 22.7065 17.8417 22.5601 17.5882 22.3034C17.3347 22.0468 17.1926 21.7006 17.1926 21.3398H18.0363C18.0363 21.4764 18.0897 21.6076 18.1851 21.7053C18.2804 21.8031 18.4103 21.8597 18.5468 21.863V20.8125C18.1832 20.8125 17.8344 20.668 17.5773 20.4109C17.3202 20.1538 17.1757 19.805 17.1757 19.4414C17.1757 19.0778 17.3202 18.729 17.5773 18.4719C17.8344 18.2148 18.1832 18.0703 18.5468 18.0703V17.408H19.3906V18.0703C19.7513 18.0748 20.0957 18.2212 20.3492 18.4778C20.6027 18.7345 20.7448 19.0807 20.7448 19.4414H19.901C19.9011 19.3048 19.8477 19.1737 19.7523 19.0759C19.6569 18.9782 19.5271 18.9216 19.3906 18.9183V19.9687C19.7513 19.9732 20.0957 20.1196 20.3492 20.3762C20.6027 20.6329 20.7448 20.9791 20.7448 21.3398Z" fill="white"/>
</svg>
