<svg width="24" height="24" viewBox="0 0 24 24" fill="none" xmlns="http://www.w3.org/2000/svg">
<path d="M22.5 12C23.3284 12 24.0097 12.6742 23.9064 13.4961C23.6748 15.3394 23.0173 17.1109 21.9776 18.6668C20.6591 20.6402 18.7849 22.1783 16.5922 23.0866C14.3995 23.9948 11.9867 24.2324 9.65892 23.7694C7.33114 23.3064 5.19295 22.1635 3.51472 20.4853C1.83649 18.8071 0.693599 16.6689 0.230577 14.3411C-0.232446 12.0133 0.00519401 9.60051 0.913446 7.4078C1.8217 5.21509 3.35977 3.34094 5.33316 2.02236C6.88913 0.982696 8.66064 0.32524 10.5039 0.0936235C11.3258 -0.00966291 12 0.671573 12 1.5C12 2.32843 11.3239 2.98727 10.5069 3.12471C9.2582 3.33479 8.06207 3.80703 6.99987 4.51677C5.51983 5.50571 4.36627 6.91131 3.68508 8.55585C3.0039 10.2004 2.82567 12.01 3.17293 13.7558C3.5202 15.5016 4.37737 17.1053 5.63604 18.364C6.89471 19.6226 8.49836 20.4798 10.2442 20.8271C11.99 21.1743 13.7996 20.9961 15.4442 20.3149C17.0887 19.6337 18.4943 18.4802 19.4832 17.0001C20.193 15.9379 20.6652 14.7418 20.8753 13.4931C21.0127 12.6761 21.6716 12 22.5 12Z" fill="#0C3EE3"/>
</svg>
