<svg width="44" height="44" viewBox="0 0 44 44" fill="none" xmlns="http://www.w3.org/2000/svg">
<path d="M27.8438 16.9336C26.16 16.9336 22 16.6979 22 15V17.5781C22 19.4215 26.877 19.5117 27.8438 19.5117C28.8105 19.5117 33.6875 19.4215 33.6875 17.5781V15C33.6875 16.6979 29.5275 16.9336 27.8438 16.9336Z" fill="white" fill-opacity="0.4"/>
<path d="M27.8438 12C26.8751 12 22 12.0932 22 13.9336C22 15.774 26.8751 15.8672 27.8438 15.8672C28.8124 15.8672 33.6875 15.774 33.6875 13.9336C33.6875 12.0932 28.8124 12 27.8438 12Z" fill="white" fill-opacity="0.4"/>
<path d="M27.8438 21.0234C26.16 21.0234 22 20.7877 22 19.0898V20.0704C23.0009 20.8982 23.7654 21.9977 24.1937 23.2517C25.6075 23.5725 27.3179 23.6016 27.8438 23.6016C28.8105 23.6016 33.6875 23.5113 33.6875 21.668V19.0898C33.6875 20.7877 29.5275 21.0234 27.8438 21.0234Z" fill="white" fill-opacity="0.4"/>
<path d="M27.4608 24.8906C26.973 24.8906 25.4632 24.8681 24.1277 24.6097C24.1676 24.9134 24.1952 25.2208 24.1952 25.5352C24.1952 26.0949 24.1232 26.637 24 27.1597C25.3701 27.4419 26.9584 27.4688 27.4608 27.4688C28.4276 27.4688 33.3046 27.3785 33.3046 25.5352V22.957C33.3046 24.6549 29.1446 24.8906 27.4608 24.8906Z" fill="white" fill-opacity="0.4"/>
<path d="M27.2049 28.7578C26.6519 28.7578 24.8016 28.7261 23.35 28.3568C23.0201 29.114 22.5593 29.7998 22 30.3924C23.3422 31.2776 26.4548 31.3359 27.2049 31.3359C28.1717 31.3359 33.0486 31.2457 33.0486 29.4023V26.8242C33.0486 28.5221 28.8886 28.7578 27.2049 28.7578Z" fill="white" fill-opacity="0.4"/>
<path d="M16.8008 19.7344C13.6021 19.7344 11 22.3364 11 25.5352C11 28.7339 13.6021 31.3359 16.8008 31.3359C19.9995 31.3359 22.6016 28.7339 22.6016 25.5352C22.6016 22.3364 19.9995 19.7344 16.8008 19.7344Z" fill="white"/>
<path d="M16.2433 27.294C16.1287 27.294 16.0141 27.2505 15.9266 27.163L14.7125 25.9489C14.5376 25.774 14.5376 25.4905 14.7125 25.3161C14.8875 25.1411 15.1704 25.1406 15.3454 25.3155L16.2433 26.2134L18.3553 24.1014C18.5303 23.9265 18.8132 23.9265 18.9882 24.1014C19.1632 24.2764 19.1632 24.5599 18.9882 24.7348L16.56 27.163C16.4725 27.2505 16.3579 27.294 16.2433 27.294Z" fill="#11BC91"/>
</svg>
