<svg width="44" height="44" viewBox="0 0 44 44" fill="none" xmlns="http://www.w3.org/2000/svg">
<path fill-rule="evenodd" clip-rule="evenodd" d="M31.9964 18.3751H27.7617C25.7911 18.3786 24.1946 19.9351 24.1911 21.8566C24.1884 23.7823 25.7866 25.3458 27.7617 25.3484H32V25.6543C32 29.0136 29.9635 31 26.5173 31H17.4835C14.0364 31 12 29.0136 12 25.6543V18.3379C12 14.9786 14.0364 13 17.4835 13H26.5137C29.96 13 31.9964 14.9786 31.9964 18.3379V18.3751ZM16.7396 18.3673H22.3796H22.3831H22.3902C22.8124 18.3655 23.1538 18.0301 23.152 17.6176C23.1502 17.2059 22.8053 16.8731 22.3831 16.8748H16.7396C16.32 16.8766 15.9796 17.2085 15.9778 17.6185C15.976 18.0301 16.3173 18.3655 16.7396 18.3673Z" fill="white"/>
<path opacity="0.4" d="M26.0374 22.2966C26.2465 23.2478 27.0805 23.917 28.0326 23.8996H31.2825C31.6786 23.8996 32 23.5715 32 23.166V20.6345C31.9991 20.2298 31.6786 19.9008 31.2825 19.9H27.9561C26.8731 19.9034 25.9983 20.8024 26 21.9102C26 22.0399 26.0128 22.1696 26.0374 22.2966Z" fill="white"/>
<ellipse cx="28" cy="21.9" rx="0.999999" ry="1" fill="white"/>
</svg>
