<svg width="24" height="25" viewBox="0 0 24 25" fill="none" xmlns="http://www.w3.org/2000/svg">
<path d="M10.29 4.75307L1.82002 18.8931C1.64539 19.1955 1.55299 19.5384 1.55201 19.8876C1.55103 20.2368 1.64151 20.5802 1.81445 20.8836C1.98738 21.187 2.23675 21.4398 2.53773 21.6169C2.83871 21.794 3.18082 21.8892 3.53002 21.8931H20.47C20.8192 21.8892 21.1613 21.794 21.4623 21.6169C21.7633 21.4398 22.0127 21.187 22.1856 20.8836C22.3585 20.5802 22.449 20.2368 22.448 19.8876C22.4471 19.5384 22.3547 19.1955 22.18 18.8931L13.71 4.75307C13.5318 4.45918 13.2807 4.21619 12.9812 4.04756C12.6817 3.87892 12.3438 3.79033 12 3.79033C11.6563 3.79033 11.3184 3.87892 11.0188 4.04756C10.7193 4.21619 10.4683 4.45918 10.29 4.75307V4.75307Z" stroke="#EB5757" stroke-linecap="round" stroke-linejoin="round"/>
<path d="M12 9.89307V13.8931" stroke="#EB5757" stroke-linecap="round" stroke-linejoin="round"/>
<path d="M12 17.8931H12.01" stroke="#EB5757" stroke-linecap="round" stroke-linejoin="round"/>
</svg>
