<!-- Generated by IcoMoon.io -->
<svg version="1.1" xmlns="http://www.w3.org/2000/svg" width="512" height="512" viewBox="0 0 512 512">
<title></title>
<g id="icomoon-ignore">
</g>
<path d="M256 111.891l147.504 293.983h-295.008l147.505-293.983zM256 80c-7.588 0-15.173 5.116-20.929 15.348l-150.244 299.445c-11.511 20.464-1.719 37.207 21.761 37.207h298.824c23.478 0 33.272-16.744 21.76-37.207h0.001l-150.245-299.445c-5.756-10.233-13.341-15.348-20.928-15.348v0z"></path>
<path d="M278 366c0 12.151-9.849 22-22 22s-22-9.849-22-22c0-12.151 9.85-22 22-22s22 9.849 22 22z"></path>
<path d="M256 322c-12.15 0-22-9.849-22-22v-66c0-12.15 9.85-22 22-22s22 9.85 22 22v66c0 12.151-9.849 22-22 22z"></path>
</svg>
