<svg width="161" height="150" viewBox="0 0 161 150" fill="none" xmlns="http://www.w3.org/2000/svg">
<path fill-rule="evenodd" clip-rule="evenodd" d="M47.0582 50.4058C47.0637 46.2932 47.0693 42.18 47.0748 38.0674C47.0757 35.5647 47.1541 33.0591 47.0582 30.56C46.9218 27.013 45.5657 24.1378 42.5806 21.9391C41.3427 21.027 39.9172 20.422 38.7823 19.3842C39.7776 18.1796 41.1345 18.7956 42.2997 18.792C60.6112 18.7404 78.9224 18.7489 97.2345 18.7434C98.0945 28.0313 103.566 31.6943 110.575 31.9431C109.071 51.176 110.254 70.4419 109.881 89.6878C109.857 90.9424 109.879 92.1969 109.879 93.363C111.009 94.3493 112.208 93.9548 113.303 93.9575C124.443 93.988 135.585 93.8681 146.723 94.0202C152.631 94.1004 157.19 96.675 159.627 102.359C159.993 103.211 160.277 104.021 160.272 104.977C160.238 111.516 160.254 118.055 160.254 124.936C157.993 123.388 156.418 121.4 153.889 120.151C152.024 121.934 150.063 123.808 147.984 125.795C145.575 124.325 144.074 121.912 141.746 120.179C139.23 121.525 137.861 124.268 135.411 125.717C132.962 124.265 131.581 121.535 129.097 120.19C126.732 121.895 125.248 124.328 122.396 126.06C120.701 123.98 119.033 121.934 117.574 120.144C113.718 120.955 112.491 124.386 109.776 125.732C107.45 124.019 105.931 121.628 103.614 120.145C101.354 121.77 99.9206 124.076 97.4548 125.664C97.4548 119.129 97.4613 112.932 97.4465 106.737C97.4447 105.827 97.5701 104.825 97.2456 104.024C95.096 98.713 91.8154 94.3797 84.5416 94.6065C77.6125 94.8222 72.6109 99.7141 72.6073 106.732C72.6026 114.772 72.7759 122.818 72.5492 130.852C72.3833 136.763 70.2503 141.697 64.043 143.807C63.4881 143.995 63.1083 144.453 62.9396 145.043C61.026 144.826 59.1243 145.248 57.1702 144.598C50.4439 142.359 47.0794 137.959 47.0776 130.978C47.0748 119.03 47.0554 107.081 47.1117 95.1328L47.0582 50.4058Z" fill="#B1D4FD"/>
<path fill-rule="evenodd" clip-rule="evenodd" d="M62.9396 145.043C63.1083 144.453 63.4871 143.995 64.043 143.807C70.2503 141.697 72.3833 136.764 72.5492 130.853C72.7759 122.818 72.6026 114.773 72.6073 106.732C72.6109 99.7147 77.6125 94.8228 84.5416 94.6071C91.8154 94.3804 95.0951 98.7137 97.2456 104.025C97.5691 104.826 97.4438 105.828 97.4465 106.738C97.4613 112.933 97.4539 119.129 97.4539 125.665C99.9206 124.077 101.354 121.771 103.614 120.146C105.93 121.629 107.45 124.019 109.776 125.733C112.491 124.386 113.718 120.955 117.574 120.144C119.033 121.934 120.701 123.981 122.396 126.061C125.248 124.329 126.732 121.896 129.097 120.19C131.581 121.535 132.961 124.265 135.41 125.717C135.412 127.55 135.331 129.388 135.429 131.216C135.874 139.602 129.917 145.089 121.714 145.066C102.123 145.013 82.5312 145.045 62.9396 145.043Z" fill="#6CA6FD"/>
<path fill-rule="evenodd" clip-rule="evenodd" d="M38.7824 19.3852C39.9179 20.4229 41.3433 21.0279 42.5814 21.94C45.5665 24.1387 46.9218 27.014 47.0591 30.561C47.155 33.0599 47.0757 35.5656 47.0748 38.0683C42.8302 38.0459 22.3126 38.1102 22.3126 38.1102C22.3126 38.1102 22.2173 29.6064 22.3271 28.7216C22.6081 26.4592 23.7265 24.4203 25.3146 22.8006C28.7209 19.3239 34.1333 17.919 38.7824 19.3852Z" fill="#6CA6FD"/>
<path fill-rule="evenodd" clip-rule="evenodd" d="M121.583 18.6042C121.583 28.8794 113.254 37.2084 102.98 37.2084C92.7049 37.2084 84.3747 28.8794 84.3747 18.6042C84.3747 8.32904 92.7049 0 102.98 0C113.254 0 121.583 8.32904 121.583 18.6042Z" fill="#FEE526"/>
<path fill-rule="evenodd" clip-rule="evenodd" d="M102.96 35.493C98.7619 35.493 94.7687 33.9559 91.6356 31.1158C88.2941 28.0858 86.3326 23.9362 86.1123 19.4303C85.892 14.925 87.4387 10.6031 90.4686 7.26114C93.4976 3.91922 97.6484 1.95721 102.154 1.73699C106.653 1.51365 110.981 3.06353 114.323 6.09297C117.665 9.12296 119.627 13.2732 119.848 17.7784C120.068 22.2837 118.52 26.6057 115.491 29.9482C112.461 33.2895 108.311 35.2521 103.806 35.4724C103.523 35.4863 103.241 35.493 102.96 35.493Z" fill="#FFB902"/>
<path fill-rule="evenodd" clip-rule="evenodd" d="M105.684 22.9483C105.684 22.2286 105.252 21.7971 104.388 21.3663V24.4442C105.367 24.1851 105.684 23.5522 105.684 22.9483ZM102.375 15.7274V12.7078C101.541 12.9086 101.11 13.4554 101.11 14.1454C101.11 14.6922 101.369 15.1522 102.375 15.7274ZM104.388 29.0181V31.5493H102.375V29.0466C99.1242 28.8166 96.7082 27.1478 95.673 24.3866L99.6431 22.0848C100.247 23.466 101.081 24.2713 102.375 24.5019V20.5325C102.261 20.4743 102.117 20.4457 102.002 20.3881C99.4993 19.3813 96.5072 17.9716 96.5072 14.1169C96.5072 10.3769 99.326 8.44951 102.375 8.16182V5.65918H104.388V8.21952C106.863 8.53569 108.934 9.85984 110.057 12.391L106.173 14.6636C105.799 13.6563 105.224 13.0816 104.388 12.794V16.6772C106.891 17.741 110.286 18.6907 110.286 22.8907C110.286 26.4863 107.812 28.6145 104.388 29.0181Z" fill="white"/>
<path fill-rule="evenodd" clip-rule="evenodd" d="M14.3711 43.2785C11.5658 43.2785 9.29166 45.5526 9.29166 48.3577C9.29166 51.163 11.5658 53.4371 14.3711 53.4371C17.1762 53.4371 19.4503 51.163 19.4503 48.3577C19.4503 45.5526 17.1762 43.2785 14.3711 43.2785ZM8.88626 48.3577C8.88626 45.3287 11.342 42.873 14.3711 42.873C17.4001 42.873 19.8557 45.3287 19.8557 48.3577C19.8557 51.3868 17.4001 53.8425 14.3711 53.8425C11.342 53.8425 8.88626 51.3868 8.88626 48.3577Z" fill="#7C91FF"/>
<path fill-rule="evenodd" clip-rule="evenodd" d="M141.604 33.2549H147.102V27.7568H141.604V33.2549Z" fill="#7C91FF"/>
<path fill-rule="evenodd" clip-rule="evenodd" d="M145.236 144.224C145.236 144.07 145.362 143.944 145.516 143.944H151.013C151.167 143.944 151.292 144.07 151.292 144.224V149.721C151.292 149.876 151.167 150 151.013 150H145.516C145.362 150 145.236 149.876 145.236 149.721V144.224ZM145.795 144.503V149.443H150.734V144.503H145.795Z" fill="#7C91FF"/>
<path fill-rule="evenodd" clip-rule="evenodd" d="M0 57.5701C0 57.4159 0.124901 57.291 0.279115 57.291H5.77654C5.93075 57.291 6.05574 57.4159 6.05574 57.5701V63.0682C6.05574 63.2223 5.93075 63.3473 5.77654 63.3473H0.279115C0.124901 63.3473 0 63.2223 0 63.0682V57.5701ZM0.55823 57.8492V62.7891H5.49742V57.8492H0.55823Z" fill="#7C91FF"/>
<path fill-rule="evenodd" clip-rule="evenodd" d="M53.7273 126.823H8.83234C6.64099 126.823 4.86472 125.047 4.86472 122.857V85.4566C4.86472 83.2655 6.64099 81.4893 8.83234 81.4893H53.7273C55.9175 81.4893 57.6937 83.2655 57.6937 85.4566V122.857C57.6937 125.047 55.9175 126.823 53.7273 126.823Z" fill="#3568B5"/>
<path fill-rule="evenodd" clip-rule="evenodd" d="M16.1303 92.9008C16.1303 92.6777 16.3109 92.4971 16.5338 92.4971H21.9135C22.1364 92.4971 22.3171 92.6777 22.3171 92.9008V98.2803C22.3171 98.5034 22.1364 98.6841 21.9135 98.6841H16.5338C16.3109 98.6841 16.1303 98.5034 16.1303 98.2803V92.9008ZM16.9374 93.3045V97.8766H21.51V93.3045H16.9374Z" fill="white"/>
<path fill-rule="evenodd" clip-rule="evenodd" d="M25.4057 95.2886C25.4057 95.0664 25.5864 94.8857 25.8093 94.8857H36.2379C36.4608 94.8857 36.6415 95.0664 36.6415 95.2886C36.6415 95.5116 36.4608 95.6923 36.2379 95.6923H25.8093C25.5864 95.6923 25.4057 95.5116 25.4057 95.2886Z" fill="white"/>
<path fill-rule="evenodd" clip-rule="evenodd" d="M16.1303 101.871C16.1303 101.647 16.3109 101.467 16.5338 101.467H21.9135C22.1364 101.467 22.3171 101.647 22.3171 101.871V107.25C22.3171 107.473 22.1364 107.654 21.9135 107.654H16.5338C16.3109 107.654 16.1303 107.473 16.1303 107.25V101.871ZM16.9374 102.274V106.846H21.51V102.274H16.9374Z" fill="white"/>
<path fill-rule="evenodd" clip-rule="evenodd" d="M25.4057 104.257C25.4057 104.034 25.5864 103.854 25.8093 103.854H46.837C47.06 103.854 47.2407 104.034 47.2407 104.257C47.2407 104.48 47.06 104.661 46.837 104.661H25.8093C25.5864 104.661 25.4057 104.48 25.4057 104.257Z" fill="white"/>
<path fill-rule="evenodd" clip-rule="evenodd" d="M16.1303 110.841C16.1303 110.619 16.3109 110.438 16.5338 110.438H21.9135C22.1364 110.438 22.3171 110.619 22.3171 110.841V116.222C22.3171 116.444 22.1364 116.625 21.9135 116.625H16.5338C16.3109 116.625 16.1303 116.444 16.1303 116.222V110.841ZM16.9374 111.245V115.818H21.51V111.245H16.9374Z" fill="white"/>
<path fill-rule="evenodd" clip-rule="evenodd" d="M25.4057 113.228C25.4057 113.005 25.5864 112.824 25.8093 112.824H46.837C47.06 112.824 47.2407 113.005 47.2407 113.228C47.2407 113.451 47.06 113.632 46.837 113.632H25.8093C25.5864 113.632 25.4057 113.451 25.4057 113.228Z" fill="white"/>
<path fill-rule="evenodd" clip-rule="evenodd" d="M101.717 51.9663H60.7292V49.7705H101.717V51.9663Z" fill="white"/>
<path fill-rule="evenodd" clip-rule="evenodd" d="M101.717 62.9459H60.7292V60.75H101.717V62.9459Z" fill="white"/>
<path fill-rule="evenodd" clip-rule="evenodd" d="M101.717 73.9251H60.7292V71.7285H101.717V73.9251Z" fill="white"/>
</svg>
