<svg width="280" height="48" viewBox="0 0 280 48" fill="none" xmlns="http://www.w3.org/2000/svg">
<rect x="0.500016" y="0.5" width="47" height="47" rx="23.5" transform="matrix(1 0 3.1526e-05 1 -1.5763e-05 -2.28882e-05)" fill="white" stroke="#EEEEEE"/>
<g clip-path="url(#clip0_1141_2282)">
<path d="M23.9985 12.68C27.8112 12.68 30.9021 10.8488 30.9021 8.58998C30.9021 6.33115 27.8112 4.5 23.9985 4.5C20.1858 4.5 17.095 6.33115 17.095 8.58998C17.095 10.8488 20.1858 12.68 23.9985 12.68Z" fill="#E6007A"/>
<path d="M23.9985 43.4972C27.8112 43.4972 30.9021 41.6661 30.9021 39.4073C30.9021 37.1484 27.8112 35.3173 23.9985 35.3173C20.1858 35.3173 17.095 37.1484 17.095 39.4073C17.095 41.6661 20.1858 43.4972 23.9985 43.4972Z" fill="#E6007A"/>
<path d="M14.3781 18.3415C16.2845 14.978 16.2721 11.3353 14.3505 10.2051C12.4289 9.07491 9.32567 10.8853 7.4193 14.2487C5.51294 17.6121 5.52531 21.2549 7.44694 22.3851C9.36857 23.5153 12.4718 21.7049 14.3781 18.3415Z" fill="#E6007A"/>
<path d="M40.5751 33.7483C42.4815 30.3848 42.4701 26.7427 40.5498 25.6133C38.6295 24.4839 35.5273 26.2949 33.621 29.6583C31.7146 33.0217 31.7259 36.6638 33.6463 37.7933C35.5666 38.9227 38.6687 37.1117 40.5751 33.7483Z" fill="#E6007A"/>
<path d="M14.3512 37.7924C16.2729 36.6622 16.2852 33.0194 14.3789 29.656C12.4725 26.2926 9.3693 24.4822 7.44767 25.6123C5.52605 26.7425 5.51367 30.3853 7.42004 33.7487C9.3264 37.1121 12.4296 38.9225 14.3512 37.7924Z" fill="#E6007A"/>
<path d="M40.5515 22.386C42.4718 21.2566 42.4832 17.6144 40.5768 14.251C38.6704 10.8876 35.5683 9.07657 33.648 10.206C31.7276 11.3354 31.7163 14.9776 33.6227 18.341C35.529 21.7044 38.6312 23.5154 40.5515 22.386Z" fill="#E6007A"/>
</g>
<path d="M133 24H147" stroke="#9BA4AE" stroke-width="2" stroke-linecap="round" stroke-linejoin="round"/>
<path d="M140 17L147 24L140 31" stroke="#9BA4AE" stroke-width="2" stroke-linecap="round" stroke-linejoin="round"/>
<path d="M276.455 29.8754L271.217 26.9496L259.551 33.8068C258.773 34.2526 257.92 34.484 257.057 34.484C256.193 34.484 255.341 34.2526 254.563 33.8068L239.213 25.3954L233.898 28.5039C233.353 28.8546 232.898 29.3743 232.58 30.0081C232.263 30.6418 232.095 31.366 232.095 32.1039C232.095 32.8419 232.263 33.5661 232.58 34.1998C232.898 34.8336 233.353 35.3533 233.898 35.7039L254.467 47.0182C255.242 47.4756 256.096 47.7135 256.961 47.7135C257.826 47.7135 258.68 47.4756 259.455 47.0182L276.359 37.0296C276.9 36.6857 277.353 36.1757 277.672 35.5527C277.992 34.9296 278.165 34.2161 278.175 33.4862C278.185 32.7562 278.03 32.0365 277.728 31.4016C277.426 30.7667 276.986 30.2397 276.455 29.8754Z" fill="url(#paint0_linear_1141_2282)"/>
<path d="M251.216 0.677281C251.995 0.231494 252.848 0 253.712 0C254.576 0 255.429 0.231494 256.208 0.677281L276.482 12.1059C277.022 12.4583 277.473 12.9775 277.787 13.6088C278.102 14.2402 278.267 14.9605 278.267 15.6944C278.267 16.4283 278.102 17.1486 277.787 17.78C277.473 18.4114 277.022 18.9305 276.482 19.283L259.567 29.2716C258.791 29.7289 257.937 29.9668 257.072 29.9668C256.206 29.9668 255.352 29.7289 254.576 29.2716L233.995 17.843C233.449 17.4957 232.992 16.9785 232.674 16.3464C232.356 15.7144 232.188 14.9913 232.188 14.2544C232.188 13.5175 232.356 12.7944 232.674 12.1624C232.992 11.5304 233.449 11.0131 233.995 10.6658L251.216 0.677281Z" fill="url(#paint1_linear_1141_2282)"/>
<defs>
<linearGradient id="paint0_linear_1141_2282" x1="278.167" y1="34.1759" x2="232.106" y2="34.1759" gradientUnits="userSpaceOnUse">
<stop stop-color="#EF18AC"/>
<stop offset="1" stop-color="#FAD972"/>
</linearGradient>
<linearGradient id="paint1_linear_1141_2282" x1="272.412" y1="22.6342" x2="232.196" y2="22.6342" gradientUnits="userSpaceOnUse">
<stop stop-color="#5314F1"/>
<stop offset="1" stop-color="#04E2FF"/>
</linearGradient>
<clipPath id="clip0_1141_2282">
<rect width="36" height="39" fill="white" transform="translate(6 4.5)"/>
</clipPath>
</defs>
</svg>
