<svg width="10" height="18" viewBox="0 0 10 18" fill="none" xmlns="http://www.w3.org/2000/svg">
<path d="M7 3.83838C7.55 3.83838 8 4.2702 8 4.79798C8 5.32576 8.45 5.75758 9 5.75758C9.55 5.75758 10 5.32576 10 4.79798C10 3.21465 8.65 1.91919 7 1.91919H6V0.959596C6 0.431818 5.55 0 5 0C4.45 0 4 0.431818 4 0.959596V1.91919H3C1.35 1.91919 0 3.21465 0 4.79798V6.71717C0 8.3005 1.35 9.59596 3 9.59596H4V13.4343H3C2.45 13.4343 2 13.0025 2 12.4747C2 11.947 1.55 11.5152 1 11.5152C0.45 11.5152 0 11.947 0 12.4747C0 14.0581 1.35 15.3535 3 15.3535H4V16.3131C4 16.8409 4.45 17.2727 5 17.2727C5.55 17.2727 6 16.8409 6 16.3131V15.3535H7C8.65 15.3535 10 14.0581 10 12.4747V10.5556C10 8.97222 8.65 7.67677 7 7.67677H6V3.83838H7ZM4 7.67677H3C2.45 7.67677 2 7.24495 2 6.71717V4.79798C2 4.2702 2.45 3.83838 3 3.83838H4V7.67677ZM7 9.59596C7.55 9.59596 8 10.0278 8 10.5556V12.4747C8 13.0025 7.55 13.4343 7 13.4343H6V9.59596H7Z" fill="#0C3EE3"/>
</svg>
