<svg width="40" height="40" viewBox="0 0 40 40" fill="none" xmlns="http://www.w3.org/2000/svg">
<path d="M35.8923 16.9865L10.3506 22.4862L13.3483 36.4083L38.89 30.9085L35.8923 16.9865Z" fill="#CDE1FF"/>
<path d="M30.2118 25.4279C30.8744 28.5189 28.9239 31.5732 25.7961 32.2355C22.705 32.8979 19.6507 30.9474 18.9884 27.8196C18.3261 24.7285 20.2763 21.6742 23.4041 21.0119C26.4952 20.3496 29.5495 22.3366 30.2118 25.4279Z" fill="white"/>
<path d="M25.9797 26.2006C25.7221 26.0534 25.3542 25.9798 24.9125 25.9062L24.6183 25.8694C24.5446 25.8694 24.5078 25.8694 24.471 25.8326C24.2502 25.7958 24.0663 25.7221 23.9191 25.6485C23.7719 25.5381 23.6983 25.4279 23.6246 25.2438C23.5878 25.0598 23.5878 24.8758 23.6983 24.7285C23.7719 24.5815 23.9191 24.4711 24.1029 24.4343C24.1029 24.4343 24.1029 24.4343 24.1397 24.4343C24.3238 24.3975 24.5078 24.4343 24.6551 24.5079C24.8023 24.5815 24.9125 24.7285 24.9861 24.9494L26.2006 24.6917C26.0902 24.3606 25.9429 24.0662 25.7221 23.8087C25.5014 23.5511 25.2438 23.4038 24.9125 23.2934C24.7655 23.2566 24.6183 23.2198 24.4342 23.2198L24.2134 22.116L23.6614 22.2264L23.1832 22.3734L23.4038 23.4775C23.2568 23.5511 23.1463 23.6247 22.9991 23.7351C22.7414 23.9558 22.5574 24.2134 22.4472 24.5447C22.3368 24.8758 22.3368 25.1702 22.3736 25.5013C22.4472 25.7958 22.5574 26.0902 22.7783 26.3109C22.9991 26.5317 23.22 26.7158 23.5142 26.8262C23.6614 26.863 23.8455 26.9366 24.1029 26.9734C24.1397 26.9734 24.2134 26.9734 24.3606 27.0102C24.4342 27.0102 24.5078 27.0468 24.5814 27.0468C24.8757 27.0836 25.0966 27.1572 25.2438 27.2309C25.4646 27.3413 25.6119 27.5621 25.6853 27.8196C25.7221 28.0404 25.6853 28.2613 25.5751 28.4453C25.4646 28.6292 25.2438 28.7396 25.0229 28.8132H24.9861C24.7655 28.85 24.5446 28.8132 24.3606 28.7396C24.1766 28.6292 24.0295 28.4453 23.9559 28.1877L22.8151 28.4821C22.8887 28.7764 22.9991 28.9972 23.1095 29.1445C23.2568 29.3651 23.4406 29.5492 23.6614 29.6596C24.0295 29.9172 24.3974 30.0277 24.8391 30.0277L25.0597 31.0947L25.5383 30.9843L26.0902 30.8741L25.8693 29.8068C26.0534 29.7332 26.2006 29.6228 26.3478 29.4755C26.6421 29.2181 26.8261 28.9236 26.9366 28.5558C27.047 28.1877 27.0838 27.8196 26.9734 27.4517C26.8261 26.8998 26.4949 26.4581 25.9797 26.2006Z" fill="#4267AF"/>
<path d="M9.27344 21.7847L12.6589 37.4977L40.0001 31.61L36.6146 15.897L9.27344 21.7847ZM16.9276 34.7011C16.5963 33.1187 15.014 32.0883 13.3949 32.4196L12.0333 26.0534C13.6156 25.6853 14.6093 24.1398 14.278 22.5574L32.2725 18.6937C32.6404 20.276 34.1859 21.2328 35.7682 20.9015L37.1299 27.3045C35.5476 27.6725 34.554 29.2181 34.8852 30.8004L16.9276 34.7011Z" fill="#4C73D7"/>
<path d="M28.4921 11.0225L5.80615 23.9815L12.8697 36.3468L35.5557 23.3879L28.4921 11.0225Z" fill="#CDE1FF"/>
<path d="M25.6484 20.7911C27.2308 23.5511 26.274 27.0468 23.5142 28.6292C20.7542 30.2115 17.2584 29.2547 15.6761 26.4949C14.0937 23.7351 15.0506 20.2392 17.8103 18.6568C20.5703 17.0745 24.0661 18.0312 25.6484 20.7911Z" fill="white"/>
<path d="M21.8583 22.8151C21.5638 22.7783 21.1959 22.7783 20.7542 22.8887L20.46 22.9623C20.3864 22.9623 20.3495 22.9623 20.3127 22.9991C20.0919 23.0359 19.871 23.0359 19.7608 22.9991C19.6136 22.9623 19.4664 22.8519 19.3559 22.6679C19.2455 22.4838 19.2087 22.3368 19.2823 22.1528C19.3191 21.9687 19.4295 21.8583 19.5768 21.7479C19.5768 21.7479 19.5768 21.7479 19.6136 21.7479C19.7976 21.6377 19.9447 21.6377 20.1287 21.6745C20.3127 21.7111 20.46 21.8215 20.5704 22.0055L21.6374 21.38C21.4534 21.0855 21.1959 20.8649 20.9015 20.6808C20.6072 20.5336 20.3127 20.4232 19.9815 20.46C19.8344 20.46 19.6504 20.4968 19.5032 20.5336L18.9512 19.5768L18.4727 19.8344L18.0312 20.0185L18.5832 21.0119C18.4727 21.1223 18.3623 21.2328 18.2887 21.38C18.1417 21.6377 18.0312 21.9687 18.0312 22.3C18.0312 22.6311 18.1049 22.9255 18.2521 23.22C18.3991 23.4774 18.62 23.6983 18.8776 23.8823C19.1351 24.0294 19.4295 24.1398 19.724 24.1398C19.871 24.1398 20.0919 24.1398 20.3127 24.103C20.3495 24.103 20.4232 24.0662 20.5704 24.0294C20.6438 24.0294 20.7174 23.9928 20.791 23.9928C21.0855 23.9559 21.3064 23.9559 21.4902 23.9928C21.7478 24.0294 21.9319 24.1766 22.0791 24.4342C22.1893 24.6551 22.2261 24.8757 22.1527 25.0966C22.0791 25.3174 21.9319 25.5015 21.7478 25.6117C21.7478 25.6117 21.711 25.6117 21.711 25.6485C21.4902 25.7589 21.3064 25.7957 21.0855 25.7589C20.8647 25.7221 20.6806 25.5749 20.5704 25.3542L19.4664 25.9798C19.6136 26.2374 19.7976 26.4213 19.9447 26.5317C20.1287 26.6789 20.3495 26.7894 20.6072 26.863C21.0119 26.9734 21.4166 26.9734 21.8215 26.863L22.3734 27.8198L22.7783 27.5621L23.2566 27.3045L22.8151 26.2742C22.9621 26.127 23.0725 26.0166 23.1461 25.8325C23.3302 25.5015 23.4406 25.1702 23.4406 24.8021C23.4406 24.4342 23.367 24.0662 23.1461 23.7351C22.8887 23.22 22.447 22.8887 21.8583 22.8151Z" fill="#4267AF"/>
<path d="M4.56299 23.6247L12.5483 37.5713L36.8353 23.6983L28.85 9.78842L4.56299 23.6247ZM15.7866 33.6338C14.977 32.1987 13.1738 31.7202 11.7387 32.5298L8.50044 26.8998C9.89878 26.0902 10.3772 24.287 9.56758 22.8887L25.5749 13.7627C26.3845 15.1242 28.1877 15.6026 29.586 14.8298L32.8611 20.46C31.4628 21.2696 30.9843 23.0728 31.7938 24.4711L15.7866 33.6338Z" fill="#4C73D7"/>
<path d="M17.2834 3.71536L1.25977 24.3504L12.5073 33.0844L28.5308 12.4494L17.2834 3.71536Z" fill="#CDE1FF"/>
<path d="M18.3994 13.8362C20.9015 15.7866 21.3432 19.3928 19.4296 21.8951C17.4794 24.3974 13.873 24.8389 11.3708 22.9255C8.86846 20.9751 8.42686 17.3689 10.3404 14.8666C12.2907 12.3643 15.897 11.8859 18.3994 13.8362Z" fill="white"/>
<path d="M15.6394 17.1481C15.3449 17.2217 15.0139 17.3689 14.6458 17.6265L14.3881 17.7736C14.3513 17.8105 14.2779 17.8472 14.2411 17.8472C14.0203 17.9576 13.873 18.0312 13.7258 18.068C13.5418 18.1048 13.3947 18.0312 13.2475 17.9208C13.1003 17.8105 12.9899 17.6633 12.9531 17.4793C12.9163 17.2953 12.9899 17.1481 13.1003 17.0009C13.2107 16.8537 13.3579 16.7433 13.5418 16.7433C13.7258 16.7065 13.9098 16.7433 14.0571 16.8537L14.8298 15.8601C14.5354 15.6761 14.2411 15.5289 13.9098 15.4921C13.5787 15.4553 13.2475 15.4921 12.9531 15.6393C12.8059 15.7129 12.6587 15.7865 12.5483 15.8969L11.6651 15.1978L11.334 15.6393L11.0396 16.0073L11.9227 16.7065C11.8491 16.8537 11.8123 17.0009 11.8123 17.1481C11.7755 17.4793 11.8123 17.8105 11.9227 18.1048C12.0331 18.3992 12.2171 18.6568 12.5115 18.8776C12.7691 19.0616 13.0267 19.172 13.3579 19.2456C13.6522 19.2824 13.9834 19.2824 14.2411 19.172C14.3881 19.1352 14.5722 19.0248 14.7562 18.9144C14.793 18.8776 14.8666 18.8408 14.9771 18.7672C15.0507 18.7304 15.1241 18.6936 15.1977 18.62C15.4554 18.4728 15.6762 18.3624 15.8234 18.3256C16.0809 18.2888 16.3386 18.3256 16.5594 18.5096C16.7432 18.6568 16.8537 18.8408 16.8905 19.0616C16.9273 19.2824 16.8537 19.5032 16.7064 19.6872L16.6698 19.724C16.5226 19.9079 16.3386 20.0183 16.1177 20.0551C15.8971 20.0919 15.6762 20.0183 15.4922 19.9079L14.7194 20.9015C14.9771 21.0855 15.1977 21.1959 15.3817 21.2328C15.6394 21.3064 15.8603 21.3064 16.1545 21.3064C16.5962 21.2696 16.9641 21.0855 17.2954 20.8279L18.1417 21.4902L18.436 21.1223L18.7673 20.6806L17.8841 20.0183C17.9577 19.8344 17.9945 19.6504 18.0313 19.4664C18.0681 19.0984 18.0313 18.7304 17.9209 18.3992C17.7737 18.068 17.5528 17.7736 17.2586 17.5161C16.7432 17.1481 16.2281 17.0009 15.6394 17.1481Z" fill="#4267AF"/>
<path d="M0 24.5079L12.6955 34.3698L29.8436 12.2907L17.1481 2.42871L0 24.5079ZM14.2043 29.4755C12.9163 28.4821 11.0395 28.7028 10.046 29.9908L4.89419 25.9798C5.85096 24.6917 5.63017 22.8519 4.34221 21.8583L15.6394 7.3229C16.9272 8.27967 18.7672 8.02207 19.7609 6.77092L24.9494 10.782C23.9926 12.0699 24.2134 13.9098 25.5013 14.9034L14.2043 29.4755Z" fill="#4460C1"/>
</svg>
