<svg width="245" height="458" fill="none" xmlns="http://www.w3.org/2000/svg"><path d="M77.302 51.834s-45.806 11.243-35.895 54.377H7.43S-6.953 68.554 32.447 46.016c0 0 23.412-10.376 44.855 5.819" fill="#7296E9" fill-opacity=".56"/><path d="M153.502 14.123s-59.066 1.699-64.345 51.136c0 0-9.685-17.712-24.514-20.198 0 0 20.445-61.506 88.859-30.938Z" fill="#1670F7"/><path d="M240.443 91.126a3.183 3.183 0 0 1-3.186-3.182c0-23.263-18.947-42.189-42.235-42.189h-.003c-6.533 0-12.795 1.448-18.612 4.307a3.188 3.188 0 0 1-4.265-1.453 3.18 3.18 0 0 1 1.453-4.259c6.7-3.291 13.909-4.96 21.424-4.96h.003c26.802 0 48.606 21.782 48.606 48.554a3.183 3.183 0 0 1-3.185 3.182" fill="#0C3EE3"/><path d="M176.261 62.194a3.184 3.184 0 0 1-3.186-3.182c0-28.95-23.578-52.501-52.561-52.501-22.672 0-42.717 14.425-49.879 35.896a3.185 3.185 0 0 1-6.044-2.013C72.621 16.321 95.096.146 120.514.146c32.495 0 58.933 26.407 58.933 58.866a3.184 3.184 0 0 1-3.186 3.182" fill="#0C3EE3"/><path d="M95.235 91.126a3.183 3.183 0 0 1-3.185-3.182c0-23.263-18.948-42.189-42.235-42.189-23.29 0-42.238 18.926-42.238 42.189a3.184 3.184 0 0 1-3.186 3.182 3.184 3.184 0 0 1-3.186-3.182c0-26.772 21.805-48.554 48.61-48.554 26.801 0 48.606 21.782 48.606 48.554a3.184 3.184 0 0 1-3.186 3.182ZM242.405 108.804H4.391a2.594 2.594 0 1 1 0-5.186h238.014a2.594 2.594 0 1 1 0 5.186M146.365 125.657h-5.189v-5.304h5.189v5.304ZM146.365 148.306h-5.189v-11.325h5.189v11.325Zm0 22.651h-5.189v-11.325h5.189v11.325Zm0 22.652h-5.189v-11.325h5.189v11.325Z" fill="#0C3EE3"/><path d="M146.365 210.237h-5.189v-5.304h5.189v5.304Z" fill="#161923"/><path d="m128.06 197.522 2.814-2.618 12.894 13.86 12.897-13.86 2.813 2.618-15.71 16.875-15.708-16.875" fill="#0C3EE3"/><path d="M101.911 123.65h-5.19v-5.303h5.19v5.303Z" fill="#161923"/><path d="M101.911 143.414h-5.19v-9.881h5.19v9.881Zm0 19.762h-5.19v-9.881h5.19v9.881Zm0 19.762h-5.19v-9.882h5.19v9.882Zm0 19.76h-5.19v-9.88h5.19v9.88Zm0 19.762h-5.19v-9.882h5.19v9.882Zm0 19.761h-5.19v-9.881h5.19v9.881Z" fill="#0C3EE3"/><path d="M101.911 257.404h-5.19v-5.303h5.19v5.303Z" fill="#161923"/><path d="m83.604 244.688 2.815-2.617 12.893 13.858 12.897-13.858 2.812 2.617-15.71 16.876-15.707-16.876Z" fill="#0C3EE3"/><path d="m49.995 312.619 14.078-50.653 21.41 44.983-35.488 5.67Z" fill="#A6C4FF"/><path d="m64.675 268.891-11.321 40.73 28.535-4.559-17.214-36.171Zm-14.68 46.16a2.429 2.429 0 0 1-2.345-3.081l14.079-50.653a2.427 2.427 0 0 1 2.134-1.771 2.438 2.438 0 0 1 2.408 1.378l21.41 44.983a2.43 2.43 0 0 1-1.814 3.443l-35.488 5.67a2.374 2.374 0 0 1-.385.031" fill="#161923"/><path d="M219.201 368.658a61.541 61.541 0 0 1-4.783 23.848c-8.372 19.919-26.902 34.517-49.121 37.336v24.929h-21.525v-24.406H92.948v24.406H71.423v-24.576c-22.96-1.629-42.428-15.776-51.64-35.661H2.434v-53.175h18.02c10.087-20.382 31.1-34.408 55.411-34.408h81.56c34.119 0 61.777 27.626 61.777 61.707Z" fill="#A6C4FF"/><path d="M146.207 452.339h16.657v-22.498c0-1.224.912-2.257 2.127-2.411 20.923-2.656 39.004-16.399 47.184-35.867 3.047-7.266 4.593-14.973 4.593-22.906 0-32.685-26.62-59.277-59.343-59.277h-81.56c-22.743 0-43.139 12.666-53.23 33.056a2.433 2.433 0 0 1-2.181 1.353H4.867v48.313h14.918c.948 0 1.809.552 2.208 1.411 9.082 19.604 28.09 32.73 49.604 34.256a2.43 2.43 0 0 1 2.26 2.425v22.145h16.658v-21.975a2.432 2.432 0 0 1 2.434-2.431h50.824a2.432 2.432 0 0 1 2.434 2.431v21.975Zm19.091 4.862h-21.525a2.432 2.432 0 0 1-2.433-2.431v-21.975H95.382v21.975a2.432 2.432 0 0 1-2.433 2.431H71.424a2.432 2.432 0 0 1-2.433-2.431v-22.352c-21.831-2.327-41.004-15.704-50.74-35.454H2.433A2.432 2.432 0 0 1 0 394.533v-53.175a2.433 2.433 0 0 1 2.434-2.431H18.96c11.14-21.263 32.804-34.408 56.904-34.408h81.56c35.406 0 64.21 28.773 64.21 64.138 0 8.581-1.673 16.92-4.971 24.786-8.575 20.403-27.197 34.996-48.933 38.503v22.824a2.432 2.432 0 0 1-2.433 2.431" fill="#283D83"/><path d="M78.155 342.019c0 7.771-6.303 14.066-14.082 14.066-7.772 0-14.078-6.295-14.078-14.066 0-7.764 6.306-14.062 14.078-14.062 7.779 0 14.082 6.298 14.082 14.062Z" fill="#3884F8"/><path d="m75.204 320.455 14.08-50.653 21.408 50.653H75.204Z" fill="#A6C4FF"/><path d="M78.407 318.025h28.617l-17.263-40.846-11.354 40.846Zm32.31 4.861H75.205a2.433 2.433 0 0 1-2.344-3.081l14.08-50.653a2.436 2.436 0 0 1 2.188-1.776 2.416 2.416 0 0 1 2.4 1.481l21.28 50.356a2.43 2.43 0 0 1-2.092 3.673" fill="#152762"/><path d="M161.716 322.886h-32.859a2.432 2.432 0 1 1 0-4.862h32.859a2.432 2.432 0 1 1 0 4.862ZM143.884 243.427h-.11c-9.89 0-17.935 8.038-17.935 17.915 0 9.885 8.045 17.927 17.935 17.927l.24-.002.147-.009c9.677-.2 17.549-8.239 17.549-17.916 0-9.67-7.872-17.702-17.549-17.902l-.147-.009-.13-.004Zm-.11 40.704c-12.573 0-22.802-10.223-22.802-22.789 0-12.559 10.229-22.776 22.802-22.776.185 0 .369.002.553.014 12.274.29 22.251 10.488 22.251 22.762 0 12.282-9.977 22.486-22.251 22.775a7.836 7.836 0 0 1-.553.014" fill="#161923"/><path d="M141.765 261.804a9.536 9.536 0 0 1-2.1-.252 5.019 5.019 0 0 1-2.034-.976 3.957 3.957 0 0 1-.899-1.055 7.018 7.018 0 0 1-.6-1.324 8.819 8.819 0 0 1-.347-1.45 9.724 9.724 0 0 1-.11-1.466v-.598c0-.187.022-.377.062-.567.148-1.829.832-3.246 2.052-4.255a7.63 7.63 0 0 1 1.326-.851c.524-.272 1.04-.409 1.546-.409h10.44c.208 0 .316.107.316.318v3.463c0 .21-.108.316-.316.316h-9.116c-.296 0-.565.131-.806.391-.242.265-.416.514-.518.745-.108.211-.17.42-.19.628a6.078 6.078 0 0 0-.031.632c0 .335.02.68.062 1.038.04.358.189.672.44.946.233.23.553.366.964.409.407.042.854.065 1.339.065h3.535c.652 0 1.336.088 2.049.267a5.048 5.048 0 0 1 1.987 1.023c.359.295.658.651.898 1.073.242.42.442.87.601 1.355.16.482.268.985.331 1.511.065.526.096 1.028.096 1.513v.662c0 .187-.02.367-.062.536-.17 1.913-.843 3.382-2.021 4.41a8.137 8.137 0 0 1-1.309.866c-.516.283-1.004.426-1.466.426H136.4c-.212 0-.314-.104-.314-.314v-3.464c0-.211.102-.319.314-.319h10.159c.314 0 .586-.152.82-.457.231-.303.396-.582.505-.834a2.25 2.25 0 0 0 .191-.663c.019-.207.03-.428.03-.663 0-.333-.02-.686-.064-1.053a1.837 1.837 0 0 0-.442-.992c-.21-.23-.51-.395-.9-.486-.388-.099-.846-.145-1.372-.145h-3.562" fill="#161923"/><path d="M162.864 452.339h-16.658v-21.975a2.432 2.432 0 0 0-2.433-2.431H92.948a2.432 2.432 0 0 0-2.433 2.431v21.975H73.857v-22.145a2.431 2.431 0 0 0-2.26-2.425c-21.515-1.525-40.522-14.652-49.604-34.255a2.435 2.435 0 0 0-2.209-1.411H4.867V374.09h19.772s41.544 36.357 108.058 36.357c23.315 0 49.691-4.464 78.428-16.531-8.61 18.218-26.065 30.966-46.134 33.514a2.433 2.433 0 0 0-2.127 2.412v22.497Z" fill="#1670F7" fill-opacity=".76"/><path d="M165.297 454.771h-21.525v-24.406H92.948v24.406H71.423v-24.576c-22.96-1.629-42.428-15.776-51.64-35.661H2.434v-20.443h2.433v18.012h14.918c.947 0 1.809.552 2.208 1.412 9.082 19.603 28.09 32.73 49.604 34.255a2.431 2.431 0 0 1 2.26 2.425v22.145h16.658v-21.975a2.432 2.432 0 0 1 2.434-2.431h50.824a2.432 2.432 0 0 1 2.434 2.431v21.975h16.657v-22.498c0-1.224.912-2.257 2.127-2.411 20.07-2.548 37.524-15.296 46.134-33.514 1.093-.458 2.195-.931 3.294-1.411-8.372 19.919-26.902 34.517-49.121 37.336v24.929M144.212 279.255v-8.064h3.672c.462 0 .95-.144 1.466-.427.516-.281.953-.57 1.309-.865 1.178-1.029 1.851-2.498 2.021-4.411.042-.169.062-.349.062-.536v-.661c0-.485-.031-.987-.096-1.514a7.65 7.65 0 0 0-.331-1.51 7.192 7.192 0 0 0-.601-1.356 3.807 3.807 0 0 0-.898-1.073 5.048 5.048 0 0 0-1.987-1.023 8.412 8.412 0 0 0-2.049-.266h-2.568v-4.855h6.889c.208 0 .316-.106.316-.316v-3.463c0-.211-.108-.318-.316-.318h-6.889v-5.158c9.652.227 17.498 8.248 17.498 17.901 0 9.66-7.846 17.686-17.498 17.915Zm2.347-12.162h-2.347V261.8h1.115c.526 0 .984.046 1.372.145.39.091.69.256.9.486.252.295.398.626.442.992.044.367.064.72.064 1.053 0 .235-.011.456-.03.663-.023.21-.088.431-.191.664a4.005 4.005 0 0 1-.505.833c-.234.305-.506.457-.82.457" fill="#0C3EE3"/><path d="M144.212 281.688v-2.432c9.652-.228 17.498-8.255 17.498-17.915 0-9.653-7.846-17.673-17.498-17.901v-2.432c11.048.23 19.931 9.25 19.931 20.333 0 11.098-8.883 20.117-19.931 20.347" fill="#13161C"/><path d="M147.884 271.194h-3.672v-4.097h2.347c.314 0 .586-.152.82-.457.231-.303.397-.582.505-.834a2.25 2.25 0 0 0 .191-.663c.019-.207.03-.428.03-.663 0-.333-.02-.686-.064-1.053a1.837 1.837 0 0 0-.442-.992c-.21-.23-.51-.395-.9-.486-.388-.099-.846-.145-1.372-.145h-1.115v-4.252h2.568c.652 0 1.336.088 2.049.267a5.048 5.048 0 0 1 1.987 1.023c.359.295.658.651.898 1.073.242.42.442.87.601 1.355.16.482.268.985.331 1.511.065.526.096 1.028.096 1.513v.662c0 .187-.02.367-.062.536-.17 1.913-.843 3.382-2.021 4.41a8.137 8.137 0 0 1-1.309.866c-.516.283-1.004.426-1.466.426Zm3.217-18.496h-6.889v-4.097h6.889c.208 0 .316.107.316.318v3.463c0 .21-.108.316-.316.316" fill="#13161C"/></svg>