<svg width="205" height="205" viewBox="0 0 205 205" fill="none" xmlns="http://www.w3.org/2000/svg">
<g opacity="0.1">
<path d="M170.209 34.1169C167.165 29.9456 163.783 26.8105 159.726 25.761C154.655 24.7181 149.585 29.9456 146.207 33.6021C142.83 37.2587 136.062 46.6641 133.364 50.314C130.662 53.9772 123.899 56.0628 112.744 66.5177C101.586 76.966 58.3238 119.808 58.3238 119.808H69.4781L19.1148 160.044H24.181L17.084 168.4C21.1413 169.971 25.1986 168.928 28.9138 165.793V168.4C28.9138 168.4 88.7426 131.834 100.235 141.233L93.1377 144.375C93.8132 144.375 104.967 145.411 104.967 145.411C105.643 152.731 108.345 159.516 112.407 163.179C119.166 169.971 119.504 174.155 119.504 174.155C119.504 174.155 116.126 176.241 116.126 179.376C122.548 176.234 129.307 176.234 135.391 179.376C135.391 179.376 135.053 176.234 130.32 174.148C125.587 171.013 121.53 166.314 118.49 159.522C115.784 153.773 114.771 146.46 116.46 139.669C118.153 132.877 123.899 129.214 135.728 119.815C149.589 108.839 152.967 100.483 154.66 93.6845C156.348 86.8928 159.726 74.3589 161.081 68.082C162.432 62.3331 164.796 57.6337 167.84 53.4558C171.56 50.3206 175.617 47.7069 179.332 45.6213C180.008 46.1427 172.573 36.7239 170.209 34.1169Z" fill="white"/>
</g>
</svg>
