<svg width="41" height="50" viewBox="0 0 41 50" fill="none" xmlns="http://www.w3.org/2000/svg">
<path d="M20.5 0L0 6.89655V20.4741C0 32.2306 6.57708 42.9741 16.9979 48.2328L20.5 50L24.0021 48.2328C34.4229 42.9741 41 32.2306 41 20.4741V6.89655L20.5 0Z" fill="#2488FF"/>
<path d="M20.5 0V50L24.0021 48.2328C34.4229 42.9741 41 32.2306 41 20.4741V6.89655L20.5 0Z" fill="#57A4FF"/>
<path d="M20.5001 5.45264L5.12514 10.6251V20.4742C5.09311 30.2802 10.5811 39.2457 19.283 43.5992L20.5001 44.2134L21.7173 43.5992C30.4192 39.2457 35.9072 30.2802 35.8751 20.4742V10.6251L20.5001 5.45264Z" fill="#006DF0"/>
<path d="M20.5 5.45264V44.2242L21.7172 43.61C30.419 39.2457 35.907 30.2802 35.875 20.4742V10.6251L20.5 5.45264Z" fill="#2488FF"/>
<path d="M31.3692 19.2024L28.9562 16.7671L18.7916 27.0149L13.9549 22.1335L11.5419 24.5688L18.7916 31.8964L31.3692 19.2024Z" fill="white"/>
</svg>
