<!-- Generated by IcoMoon.io -->
<svg version="1.1" xmlns="http://www.w3.org/2000/svg" width="1024" height="1024" viewBox="0 0 1024 1024">
<title></title>
<g id="icomoon-ignore">
</g>
<path d="M734.799 270.252c-12.323-12.593-30.559-17.252-47.565-12.323l-396.549 114.579c-17.941 4.978-30.657 19.198-34.083 37.239-3.5 18.385 8.723 41.749 24.695 51.51l123.99 75.711c12.719 7.787 29.133 5.841 39.657-4.708l141.982-141.982c7.147-7.419 18.977-7.419 26.124 0 7.147 7.121 7.147 18.73 0 26.124l-142.229 141.982c-10.55 10.55-12.521 26.915-4.757 39.657l75.76 124.46c8.874 14.762 24.152 23.166 40.913 23.166 1.971 0 4.189 0 6.16-0.27 19.223-2.441 34.504-15.528 40.173-34.013l117.558-393.563c5.176-16.761 0.493-34.998-11.83-47.567z"></path>
<path d="M280.906 620.947c-4.734 0-9.465-1.799-13.063-5.423-7.222-7.222-7.222-18.902 0-26.124l33.641-33.666c7.222-7.196 18.928-7.196 26.149 0 7.196 7.222 7.196 18.928 0 26.149l-33.666 33.641c-3.598 3.624-8.329 5.423-13.061 5.423zM373.602 650.335c-4.731 0-9.465-1.799-13.063-5.423-7.222-7.222-7.222-18.902 0-26.124l33.641-33.666c7.222-7.196 18.928-7.196 26.149 0 7.198 7.222 7.198 18.928 0 26.149l-33.664 33.641c-3.6 3.624-8.332 5.423-13.063 5.423zM379.853 738.269c3.6 3.624 8.332 5.423 13.063 5.423s9.465-1.799 13.063-5.423l33.666-33.641c7.196-7.222 7.196-18.928 0-26.149-7.222-7.196-18.928-7.196-26.149 0l-33.643 33.666c-7.219 7.222-7.219 18.904 0 26.124z"></path>
</svg>
