<svg viewBox="0 0 64 64" fill="none" xmlns="http://www.w3.org/2000/svg">
<path d="M41.0405 41.0398C42.6005 39.4744 42.8111 37.1544 41.5098 35.8504C40.2085 34.5491 37.8858 34.7598 36.3231 36.3224C34.7631 37.8851 32.4405 38.0958 31.1391 36.7944C29.8378 35.4931 30.0485 33.1704 31.6111 31.6104M31.6111 31.6104L30.6671 30.6664M31.6111 31.6104C32.4938 30.7251 33.6191 30.2771 34.6671 30.2851M41.9818 41.9811L41.0378 41.0371C39.9711 42.1064 38.5445 42.5438 37.3338 42.2931M22.9525 29.0104C24.0073 29.0104 25.0385 28.6976 25.9155 28.1116C26.7926 27.5256 27.4762 26.6926 27.8798 25.7181C28.2835 24.7435 28.3891 23.6712 28.1833 22.6366C27.9775 21.602 27.4696 20.6517 26.7237 19.9058C25.9778 19.16 25.0275 18.652 23.993 18.4462C22.9584 18.2404 21.886 18.3461 20.9115 18.7497C19.937 19.1534 19.104 19.837 18.518 20.714C17.9319 21.5911 17.6191 22.6223 17.6191 23.6771" stroke="url(#paint0_linear_106_655)" stroke-width="3" stroke-linecap="round"/>
<path d="M43.0323 12.6078C38.9097 8.48781 36.851 6.42647 34.1763 5.66114C31.5017 4.89314 28.6617 5.54914 22.9843 6.86114L19.7097 7.61581C14.931 8.71714 12.5417 9.26914 10.9043 10.9038C9.26966 12.5411 8.71766 14.9305 7.61633 19.7091L6.859 22.9838C5.54966 28.6638 4.89366 31.5011 5.659 34.1758C6.427 36.8505 8.48833 38.9091 12.6083 43.0291L17.4883 47.9091C24.6617 55.0851 28.2457 58.6665 32.699 58.6665C37.155 58.6665 40.739 55.0798 47.9097 47.9091C55.0857 40.7385 58.667 37.1545 58.667 32.6985C58.667 29.1198 56.3523 26.1011 51.723 21.3331" stroke="url(#paint1_linear_106_655)" stroke-width="3" stroke-linecap="round"/>
<defs>
<linearGradient id="paint0_linear_106_655" x1="17.6191" y1="30.3528" x2="42.3633" y2="30.3528" gradientUnits="userSpaceOnUse">
<stop stop-color="#2587BC"/>
<stop offset="0.523958" stop-color="#27A0A0"/>
<stop offset="1" stop-color="#8162C5"/>
</linearGradient>
<linearGradient id="paint1_linear_106_655" x1="5.33301" y1="32" x2="58.667" y2="32" gradientUnits="userSpaceOnUse">
<stop stop-color="#2587BC"/>
<stop offset="0.523958" stop-color="#27A0A0"/>
<stop offset="1" stop-color="#8162C5"/>
</linearGradient>
</defs>
</svg>
