<svg width="64" height="64" viewBox="0 0 64 64" fill="none" xmlns="http://www.w3.org/2000/svg">
<path d="M41.0404 41.0398C42.6004 39.4744 42.811 37.1544 41.5097 35.8504C40.2084 34.5491 37.8857 34.7598 36.323 36.3224C34.763 37.8851 32.4404 38.0958 31.139 36.7944C29.8377 35.4931 30.0484 33.1704 31.611 31.6104M31.611 31.6104L30.667 30.6664M31.611 31.6104C32.4937 30.7251 33.619 30.2771 34.667 30.2851M41.9817 41.9811L41.0377 41.0371C39.971 42.1064 38.5444 42.5438 37.3337 42.2931M22.9524 29.0104C24.0072 29.0104 25.0383 28.6976 25.9154 28.1116C26.7925 27.5256 27.476 26.6926 27.8797 25.7181C28.2834 24.7435 28.389 23.6712 28.1832 22.6366C27.9774 21.602 27.4695 20.6517 26.7236 19.9058C25.9777 19.16 25.0274 18.652 23.9928 18.4462C22.9583 18.2404 21.8859 18.3461 20.9114 18.7497C19.9368 19.1534 19.1039 19.837 18.5178 20.714C17.9318 21.5911 17.619 22.6223 17.619 23.6771" stroke="url(#paint0_linear_41_340)" stroke-width="3" stroke-linecap="round"/>
<path d="M43.0323 12.6078C38.9097 8.48781 36.851 6.42647 34.1763 5.66114C31.5017 4.89314 28.6617 5.54914 22.9843 6.86114L19.7097 7.61581C14.931 8.71714 12.5417 9.26914 10.9043 10.9038C9.26966 12.5411 8.71766 14.9305 7.61633 19.7091L6.859 22.9838C5.54966 28.6638 4.89366 31.5011 5.659 34.1758C6.427 36.8505 8.48833 38.9091 12.6083 43.0291L17.4883 47.9091C24.6617 55.0851 28.2457 58.6665 32.699 58.6665C37.155 58.6665 40.739 55.0798 47.9097 47.9091C55.0857 40.7385 58.667 37.1545 58.667 32.6985C58.667 29.1198 56.3523 26.1011 51.723 21.3331" stroke="url(#paint1_linear_41_340)" stroke-width="3" stroke-linecap="round"/>
<defs>
<linearGradient id="paint0_linear_41_340" x1="17.619" y1="30.3528" x2="42.3631" y2="30.3528" gradientUnits="userSpaceOnUse">
<stop stop-color="#8BD6FF"/>
<stop offset="0.503125" stop-color="#9EFFFF"/>
<stop offset="1" stop-color="#D3BFFF"/>
</linearGradient>
<linearGradient id="paint1_linear_41_340" x1="5.33301" y1="32" x2="58.667" y2="32" gradientUnits="userSpaceOnUse">
<stop stop-color="#8BD6FF"/>
<stop offset="0.503125" stop-color="#9EFFFF"/>
<stop offset="1" stop-color="#D3BFFF"/>
</linearGradient>
</defs>
</svg>
