<svg width="32" height="32" viewBox="0 0 32 32" fill="none" xmlns="http://www.w3.org/2000/svg">
<g clip-path="url(#clip0_1461_1939)">
<path d="M31.964 14.915C31.3631 6.09902 23.731 -0.562399 14.915 0.0385159C10.5237 0.336405 6.66653 2.38054 3.97525 5.44675L3.96755 5.44161C3.94957 5.46729 3.9316 5.49041 3.91362 5.51609C1.24289 8.5977 -0.261966 12.6963 0.038491 17.0876C0.0667391 17.5061 0.115531 17.917 0.174596 18.3253C0.177164 18.3433 0.179732 18.3613 0.1823 18.3818C0.223388 18.6515 0.269612 18.9185 0.32354 19.183V19.1985C0.374901 19.4373 0.428829 19.6761 0.487893 19.9098C2.33686 27.28 9.23968 32.4982 17.0875 31.9666C25.9035 31.3657 32.5649 23.7336 31.964 14.9176V14.915ZM28.4818 15.1513C28.5563 16.2375 28.4869 17.2981 28.2943 18.3228C28.2943 18.3176 28.2892 18.3099 28.2866 18.3048C27.1259 15.4697 24.8327 13.423 22.8142 12.2905C23.2225 7.48575 21.5918 5.46216 19.748 5.13345C19.6966 5.12318 19.6478 5.11548 19.5965 5.11034C18.1327 4.92288 16.7922 5.95778 16.6047 7.42155C16.4173 8.88532 17.4522 10.2258 18.916 10.4133C19.0444 10.4287 19.1702 10.4338 19.296 10.4313C19.3037 10.593 19.3089 10.7651 19.3114 10.9449C17.6063 10.5211 16.0115 10.439 14.558 10.5699C14.0136 10.6059 13.4692 10.6752 12.9299 10.7754C13.1122 9.15239 13.7209 7.33167 14.9021 5.99887C16.0449 4.70973 17.7424 3.97271 19.5939 4.16018C19.9457 4.19613 20.3207 4.28344 20.6571 4.39643C20.6725 4.40157 20.6879 4.40671 20.7033 4.41184C24.9919 6.15809 28.148 10.2284 28.4844 15.1513H28.4818ZM17.3289 17.596V17.6012C16.9437 18.1507 16.4892 18.6951 15.9576 19.219C15.1589 18.369 14.5169 17.4522 14.029 16.5072C14.0033 16.4558 13.9777 16.407 13.952 16.3557V16.3505C13.6644 15.7445 13.4204 15.0794 13.2304 14.3552C14.368 14.0881 15.4825 13.9905 16.5482 14.0419C16.6047 14.0445 16.6587 14.047 16.7177 14.0522H16.7229C17.3906 14.1087 18.0865 14.2294 18.8055 14.4271C18.4691 15.5442 17.9966 16.5585 17.4188 17.4548C17.388 17.501 17.3597 17.5498 17.3264 17.596H17.3289ZM11.8616 4.1987C11.8616 4.1987 11.8565 4.2064 11.8513 4.20897C9.9767 6.6306 9.3501 9.63775 9.38092 11.9515C5.0153 14.0008 4.07797 16.4224 4.71484 18.1867C4.73025 18.2355 4.75079 18.2817 4.76877 18.3305C5.33887 19.6915 6.90279 20.3335 8.2664 19.766C9.62745 19.1959 10.2695 17.632 9.70192 16.2684C9.65313 16.1502 9.5915 16.0372 9.5273 15.9294C9.66597 15.8395 9.81235 15.7496 9.97156 15.6572C10.4595 17.3469 11.1785 18.7747 12.0183 19.9689C12.3213 20.4208 12.6526 20.8574 13.0095 21.2734C11.5149 21.9283 9.63259 22.3109 7.88634 21.9539C6.19915 21.6098 4.71227 20.5081 3.94957 18.8107C3.80577 18.4897 3.69277 18.1225 3.62087 17.7732C3.57721 17.4676 3.54126 17.162 3.52072 16.8487C3.13038 11.1169 6.68707 6.01428 11.8616 4.1987ZM16.8487 28.4818C13.4461 28.7129 10.2643 27.5522 7.85809 25.4901C10.8909 25.9035 13.8107 24.9405 15.7984 23.7592C19.7557 26.5173 22.3263 26.1167 23.5332 24.6837C23.5666 24.6452 23.6 24.6067 23.6308 24.563C24.5245 23.3895 24.2985 21.7125 23.1249 20.8163C21.9513 19.9226 20.2744 20.1486 19.3782 21.3222C19.3012 21.4249 19.2344 21.5328 19.1728 21.6406C19.0264 21.5662 18.8749 21.484 18.7182 21.3941C19.938 20.1281 20.8086 18.7876 21.4223 17.4625C21.6637 16.9746 21.8743 16.4687 22.0592 15.9499C23.374 16.9181 24.6503 18.3561 25.2127 20.0485C25.7571 21.6817 25.5491 23.5204 24.4577 25.0304C24.2523 25.3155 23.9903 25.5979 23.7233 25.8342C23.7181 25.8368 23.7156 25.8419 23.713 25.8445C21.805 27.3442 19.4475 28.3046 16.8487 28.4818Z" fill="url(#paint0_linear_1461_1939)"/>
<path style="mix-blend-mode:multiply" opacity="0.4" d="M14.9151 0.0385241C10.5238 0.336414 6.66661 2.38055 3.97533 5.44676C3.95478 5.46987 3.93424 5.49298 3.9137 5.51609C4.43757 6.03483 6.15044 7.05947 6.8438 7.48833C8.20741 6.02199 9.92028 4.87923 11.8591 4.1987C11.9952 4.02408 12.1339 3.85202 12.2828 3.6851C14.0907 1.6461 16.5586 0.567535 19.4219 0.567535C19.7404 0.567535 20.3901 0.618895 20.4029 0.618895C18.6695 0.118133 16.8205 -0.0924445 14.9151 0.0385241Z" fill="url(#paint1_linear_1461_1939)"/>
<path style="mix-blend-mode:multiply" opacity="0.4" d="M16.8487 28.4818C13.4461 28.7129 10.2643 27.5522 7.85812 25.4901C7.6347 25.4593 7.41128 25.4233 7.1853 25.3771C4.51456 24.8327 2.34716 23.2328 0.916778 20.7547C0.757561 20.4799 0.613752 20.1974 0.485352 19.9124C2.33432 27.2825 9.23714 32.5007 17.085 31.9666C17.1209 31.1577 16.8821 29.283 16.8487 28.4844V28.4818Z" fill="url(#paint2_linear_1461_1939)"/>
<path style="mix-blend-mode:multiply" opacity="0.4" d="M31.9641 14.915C31.4736 14.8637 29.0725 15.0537 28.4819 15.1513C28.5563 16.2375 28.487 17.2981 28.2944 18.3228C28.3766 18.5256 28.4562 18.7337 28.5255 18.9442C29.3884 21.5302 29.0879 24.2061 27.655 26.6842C27.4983 26.9539 27.3288 27.2132 27.1516 27.4649L27.1414 27.4803C27.1414 27.4803 27.1491 27.4752 27.1516 27.47C30.4002 24.3088 32.2954 19.7942 31.9615 14.9176L31.9641 14.915Z" fill="url(#paint3_linear_1461_1939)"/>
<path style="mix-blend-mode:multiply" opacity="0.5" d="M19.5888 4.16017C19.9406 4.19612 20.3155 4.28343 20.652 4.39642C20.6674 4.40156 20.6828 4.4067 20.6982 4.41183C22.0772 4.97423 23.3407 5.77801 24.4295 6.77184L24.4372 6.77697C24.9611 6.17606 25.9729 5.51608 25.9729 5.51608C25.9729 5.51608 24.4244 3.93161 22.0567 3.44112C20.4003 3.09701 16.6613 2.76317 14.3038 6.77697C14.3038 6.77697 14.3141 6.76927 14.3269 6.75643C14.5016 6.49192 14.6865 6.23769 14.897 5.99886C16.0398 4.70972 17.7373 3.9727 19.5888 4.16017V4.16017Z" fill="url(#paint4_linear_1461_1939)"/>
<path style="mix-blend-mode:multiply" opacity="0.5" d="M24.4603 25.0278C24.2549 25.3129 23.9929 25.5954 23.7259 25.8316C23.713 25.8419 23.7027 25.8547 23.6899 25.865C22.5138 26.7792 21.1861 27.47 19.7788 27.9169H19.7711C20.0279 28.6744 20.0947 29.8814 20.0947 29.8814C20.0947 29.8814 22.239 29.3318 23.8491 27.5291C24.9765 26.2656 27.1336 23.1943 24.8378 19.1471C24.8378 19.1471 24.8404 19.1599 24.8455 19.1779C24.9868 19.4604 25.1152 19.7506 25.2153 20.0485C25.7597 21.6817 25.5517 23.5204 24.4603 25.0304V25.0278Z" fill="url(#paint5_linear_1461_1939)"/>
<path style="mix-blend-mode:multiply" opacity="0.5" d="M3.95475 18.8158C3.81095 18.4948 3.69795 18.1276 3.62605 17.7784C3.62348 17.763 3.61834 17.745 3.61578 17.7296C3.4129 16.253 3.4771 14.7584 3.79554 13.3177V13.31C3.01486 13.1559 1.93886 12.6089 1.93886 12.6089C1.93886 12.6089 1.34052 14.7404 2.10065 17.0362C2.63223 18.6438 4.21156 22.049 8.86479 22.0823C8.86479 22.0823 8.85195 22.0798 8.83398 22.0721C8.51811 22.0541 8.20481 22.0207 7.89409 21.9565C6.2069 21.6124 4.72002 20.5107 3.95732 18.8133L3.95475 18.8158Z" fill="url(#paint6_linear_1461_1939)"/>
<path style="mix-blend-mode:multiply" opacity="0.6" d="M18.9159 10.4107C19.0443 10.4261 19.1701 10.4313 19.296 10.4287C19.296 10.4287 19.2112 8.76718 19.0084 7.91203C18.8055 7.05945 18.5025 6.49449 18.1712 6.17349C17.9349 5.94493 17.1851 5.65988 16.6047 7.4164C16.4172 8.88017 17.4521 10.2207 18.9159 10.4081V10.4107Z" fill="url(#paint7_linear_1461_1939)"/>
<path style="mix-blend-mode:multiply" opacity="0.5" d="M9.70191 16.2709C9.65312 16.1528 9.59149 16.0398 9.52729 15.9319C9.52729 15.9319 8.13029 16.8359 7.49342 17.4394C6.85655 18.0429 6.51757 18.5847 6.40715 19.0315C6.32754 19.35 6.45337 20.1409 8.26639 19.766C9.62744 19.1959 10.2694 17.632 9.70191 16.2684V16.2709Z" fill="url(#paint8_linear_1461_1939)"/>
<path style="mix-blend-mode:multiply" opacity="0.6" d="M19.3833 21.3196C19.3063 21.4223 19.2395 21.5302 19.1779 21.638C19.1779 21.638 20.6596 22.3982 21.4993 22.6473C22.3391 22.8964 22.9811 22.9195 23.4228 22.7911C23.7386 22.7012 24.3601 22.1953 23.13 20.8137C21.9564 19.92 20.2795 20.146 19.3833 21.3196V21.3196Z" fill="url(#paint9_linear_1461_1939)"/>
<path style="mix-blend-mode:multiply" opacity="0.3" d="M18.808 14.4271C18.4716 15.5442 17.9991 16.5586 17.4213 17.4548C17.3905 17.501 17.3622 17.5498 17.3288 17.596V17.6012C16.9436 18.1507 16.4891 18.6952 15.9575 19.219C16.3247 19.6094 16.7202 19.9869 17.1542 20.3438C17.7012 20.7752 18.2353 21.1219 18.7207 21.3967C19.9405 20.1307 20.8111 18.7902 21.4248 17.4651C21.6662 16.9772 21.8768 16.4713 22.0617 15.9525C21.4993 15.5391 20.9292 15.2078 20.4028 14.9844C19.8583 14.7533 19.3293 14.5709 18.808 14.4271V14.4271Z" fill="url(#paint10_linear_1461_1939)"/>
<path style="mix-blend-mode:multiply" opacity="0.3" d="M7.86064 25.4875C10.8935 25.901 13.8133 24.938 15.8009 23.7567C15.5647 23.5923 15.3259 23.4177 15.0793 23.2302C14.3115 22.6447 13.6207 21.9873 13.0095 21.2708C11.5149 21.9257 9.63257 22.3083 7.88632 21.9514C6.19913 21.6072 4.71225 20.5056 3.94956 18.8081C3.80575 18.4871 3.69275 18.1199 3.62085 17.7706C4.06255 20.8625 5.62133 23.5666 7.85807 25.4849L7.86064 25.4875Z" fill="url(#paint11_linear_1461_1939)"/>
<path style="mix-blend-mode:multiply" opacity="0.3" d="M15.955 19.219C15.1564 18.369 14.5144 17.4522 14.0265 16.5072C14.0008 16.4558 13.9751 16.407 13.9494 16.3556V16.3505C13.6618 15.7445 13.4178 15.0793 13.2278 14.3552C12.7091 14.4784 12.1852 14.6325 11.6588 14.8277C11.0142 15.0845 10.4466 15.3747 9.96643 15.6571C10.4544 17.3469 11.1734 18.7747 12.0131 19.9688C12.3162 20.4208 12.6474 20.8574 13.0044 21.2734C13.6464 20.9935 14.2165 20.6622 14.6736 20.3207C15.1461 19.9663 15.5673 19.599 15.9499 19.2215L15.955 19.219Z" fill="url(#paint12_linear_1461_1939)"/>
<path style="mix-blend-mode:multiply" opacity="0.3" d="M11.8514 4.20897C9.97674 6.63061 9.35014 9.63775 9.38096 11.9515C9.6429 11.8283 9.91511 11.7076 10.2002 11.5869C11.0887 11.2145 12.0029 10.9474 12.9274 10.7728C13.1097 9.14983 13.7183 7.32911 14.8996 5.99631C16.0424 4.70717 17.7398 3.97015 19.5914 4.15761C19.9432 4.19357 20.3181 4.28088 20.6545 4.39387C20.6699 4.39901 20.6853 4.40414 20.7008 4.40928C18.9956 3.71335 17.1107 3.38464 15.1513 3.51818C14.0008 3.59522 12.8991 3.83148 11.8617 4.19613C11.8591 4.20127 11.8565 4.20384 11.8514 4.20641V4.20897Z" fill="url(#paint13_linear_1461_1939)"/>
<path style="mix-blend-mode:multiply" opacity="0.3" d="M28.2866 18.3048C27.1259 15.4697 24.8327 13.423 22.8142 12.2905C22.7885 12.5781 22.7603 12.8735 22.7192 13.1816C22.5959 14.1369 22.3725 15.064 22.0592 15.9499C23.374 16.9181 24.6503 18.3562 25.2127 20.0485C25.7571 21.6817 25.5491 23.5204 24.4577 25.0304C24.2523 25.3155 23.9903 25.598 23.7233 25.8342C23.7181 25.8368 23.7156 25.8419 23.713 25.8445C26.0627 23.9981 27.7242 21.3376 28.2943 18.3228C28.2943 18.3177 28.2892 18.3099 28.2866 18.3048Z" fill="url(#paint14_linear_1461_1939)"/>
<path style="mix-blend-mode:multiply" opacity="0.3" d="M12.917 12.6988C12.989 13.2843 13.0968 13.8339 13.2303 14.3552C14.368 14.0881 15.4825 13.9905 16.5482 14.0419C16.6047 14.0445 16.6586 14.047 16.7177 14.0522H16.7228C17.3905 14.1087 18.0865 14.2294 18.8055 14.4271C18.9596 13.9161 19.088 13.3845 19.1804 12.8298C19.2806 12.139 19.314 11.5021 19.3088 10.9449C17.6037 10.5212 16.0089 10.439 14.5554 10.5699C14.011 10.6059 13.4666 10.6752 12.9273 10.7754C12.8503 11.4713 12.8477 12.1313 12.917 12.6988V12.6988Z" fill="url(#paint15_linear_1461_1939)"/>
</g>
<defs>
<linearGradient id="paint0_linear_1461_1939" x1="5.08207" y1="26.9205" x2="25.4849" y2="6.51761" gradientUnits="userSpaceOnUse">
<stop stop-color="#E6007A"/>
<stop offset="0.21" stop-color="#703AC2"/>
<stop offset="0.46" stop-color="#0070EB"/>
<stop offset="0.77" stop-color="#0297FB"/>
<stop offset="1" stop-color="#0AE2FF"/>
</linearGradient>
<linearGradient id="paint1_linear_1461_1939" x1="15.1616" y1="2.32406" x2="9.94853" y2="3.83918" gradientUnits="userSpaceOnUse">
<stop stop-color="#231F20"/>
<stop offset="1" stop-color="white"/>
</linearGradient>
<linearGradient id="paint2_linear_1461_1939" x1="5.31065" y1="22.203" x2="9.67113" y2="26.7535" gradientUnits="userSpaceOnUse">
<stop stop-color="#231F20"/>
<stop offset="1" stop-color="white"/>
</linearGradient>
<linearGradient id="paint3_linear_1461_1939" x1="28.7104" y1="21.5174" x2="30.2255" y2="16.9052" gradientUnits="userSpaceOnUse">
<stop stop-color="#231F20"/>
<stop offset="1" stop-color="white"/>
</linearGradient>
<linearGradient id="paint4_linear_1461_1939" x1="17.537" y1="4.96139" x2="24.5271" y2="6.56126" gradientUnits="userSpaceOnUse">
<stop stop-color="#231F20"/>
<stop offset="1" stop-color="white"/>
</linearGradient>
<linearGradient id="paint5_linear_1461_1939" x1="24.7913" y1="22.8496" x2="19.9107" y2="28.1033" gradientUnits="userSpaceOnUse">
<stop stop-color="#231F20"/>
<stop offset="1" stop-color="white"/>
</linearGradient>
<linearGradient id="paint6_linear_1461_1939" x1="5.67441" y1="20.1935" x2="3.56487" y2="13.3399" gradientUnits="userSpaceOnUse">
<stop stop-color="#231F20"/>
<stop offset="1" stop-color="white"/>
</linearGradient>
<linearGradient id="paint7_linear_1461_1939" x1="19.0649" y1="7.53967" x2="16.8538" y2="9.75073" gradientUnits="userSpaceOnUse">
<stop stop-color="#231F20"/>
<stop offset="1" stop-color="white"/>
</linearGradient>
<linearGradient id="paint8_linear_1461_1939" x1="7.13943" y1="17.5762" x2="10.1611" y2="18.3877" gradientUnits="userSpaceOnUse">
<stop stop-color="#231F20"/>
<stop offset="1" stop-color="white"/>
</linearGradient>
<linearGradient id="paint9_linear_1461_1939" x1="21.7944" y1="22.8838" x2="20.9851" y2="19.8635" gradientUnits="userSpaceOnUse">
<stop stop-color="#231F20"/>
<stop offset="1" stop-color="white"/>
</linearGradient>
<linearGradient id="paint10_linear_1461_1939" x1="17.1979" y1="20.1974" x2="18.523" y2="18.3665" gradientUnits="userSpaceOnUse">
<stop stop-color="#231F20"/>
<stop offset="1" stop-color="white"/>
</linearGradient>
<linearGradient id="paint11_linear_1461_1939" x1="12.6294" y1="19.4039" x2="9.97411" y2="20.6673" gradientUnits="userSpaceOnUse">
<stop stop-color="#231F20"/>
<stop offset="1" stop-color="white"/>
</linearGradient>
<linearGradient id="paint12_linear_1461_1939" x1="11.6665" y1="14.9869" x2="12.4882" y2="16.6946" gradientUnits="userSpaceOnUse">
<stop stop-color="#231F20"/>
<stop offset="1" stop-color="white"/>
</linearGradient>
<linearGradient id="paint13_linear_1461_1939" x1="15.4877" y1="9.71993" x2="14.9176" y2="7.76053" gradientUnits="userSpaceOnUse">
<stop stop-color="#231F20"/>
<stop offset="1" stop-color="white"/>
</linearGradient>
<linearGradient id="paint14_linear_1461_1939" x1="21.6149" y1="18.6874" x2="23.2585" y2="19.0649" gradientUnits="userSpaceOnUse">
<stop stop-color="#231F20"/>
<stop offset="1" stop-color="white"/>
</linearGradient>
<linearGradient id="paint15_linear_1461_1939" x1="19.0366" y1="13.138" x2="16.9514" y2="12.7579" gradientUnits="userSpaceOnUse">
<stop stop-color="#231F20"/>
<stop offset="1" stop-color="white"/>
</linearGradient>
<clipPath id="clip0_1461_1939">
<rect width="32" height="32" fill="white"/>
</clipPath>
</defs>
</svg>
