<svg width="32" height="32" viewBox="0 0 32 32" fill="none" xmlns="http://www.w3.org/2000/svg">
<path d="M0 16C0 24.8366 7.16344 32 16 32C24.8366 32 32 24.8366 32 16C32 7.16344 24.8366 0 16 0C7.16344 0 0 7.16344 0 16Z" fill="black"/>
<path d="M27.1345 9.22909C26.7563 8.9309 26.3054 8.52363 25.4836 8.42181C24.7126 8.31999 23.9272 8.83636 23.3963 9.17818C22.8654 9.51999 21.8617 10.5236 21.4472 10.8291C21.0326 11.1345 19.9708 11.4182 18.2617 12.4436C16.5526 13.4691 9.84718 17.7746 9.84718 17.7746L11.5926 17.7964L3.81081 21.8036H4.58899L3.46899 22.6546C3.46899 22.6546 4.45809 22.9164 5.28718 22.3927V22.6327C5.28718 22.6327 14.5526 18.9818 16.3417 19.9273L15.2508 20.2473C15.3454 20.2473 17.1054 20.3636 17.1054 20.3636C17.1481 20.7281 17.2706 21.0787 17.4642 21.3904C17.6577 21.7021 17.9176 21.9674 18.2254 22.1673C19.2872 22.8655 19.309 23.2509 19.309 23.2509C19.309 23.2509 18.7563 23.4764 18.7563 23.76C18.7563 23.76 19.5708 23.5127 20.3272 23.5346C20.8072 23.5528 21.2834 23.6285 21.7454 23.76C21.7454 23.76 21.6872 23.4546 20.9526 23.2509C20.2181 23.0473 19.4908 22.2473 19.1345 21.8109C18.9162 21.5332 18.7739 21.2034 18.7216 20.854C18.6694 20.5046 18.7089 20.1477 18.8363 19.8182C19.0908 19.1564 19.9781 18.7927 21.8108 17.8473C23.9708 16.7273 24.4654 15.8982 24.7708 15.2509C25.0763 14.6036 25.5272 13.3164 25.7817 12.7127C26.1017 11.9345 26.4945 11.52 26.8217 11.2727C27.149 11.0255 28.6036 10.48 28.6036 10.48C28.6036 10.48 27.4908 9.51272 27.1345 9.22909Z" fill="white"/>
<circle cx="24" cy="24" r="7.5" fill="#D5F2FF" stroke="white"/>
<path d="M24.1275 28C23.3201 28 22.6082 27.8308 21.992 27.4923C21.3758 27.1538 20.8871 26.6821 20.5259 26.0769C20.1753 25.4718 20 24.7795 20 24C20 23.2205 20.1753 22.5282 20.5259 21.9231C20.8871 21.3179 21.3758 20.8462 21.992 20.5077C22.6082 20.1692 23.3201 20 24.1275 20C25.1368 20 25.9867 20.2564 26.6773 20.7692C27.3679 21.2718 27.8088 21.9692 28 22.8615H25.8486C25.7424 22.4923 25.5299 22.2051 25.2112 22C24.9031 21.7846 24.5365 21.6769 24.1116 21.6769C23.5485 21.6769 23.0704 21.8821 22.6773 22.2923C22.2842 22.7026 22.0876 23.2718 22.0876 24C22.0876 24.7282 22.2842 25.2974 22.6773 25.7077C23.0704 26.1179 23.5485 26.3231 24.1116 26.3231C24.5365 26.3231 24.9031 26.2205 25.2112 26.0154C25.5299 25.8103 25.7424 25.5179 25.8486 25.1385H28C27.8088 26 27.3679 26.6923 26.6773 27.2154C25.9867 27.7385 25.1368 28 24.1275 28Z" fill="#15B7FD"/>
</svg>
