<svg width="24" height="24" viewBox="0 0 24 24" fill="none" xmlns="http://www.w3.org/2000/svg">
<path d="M3 6.5C3 8.433 4.567 10 6.5 10C8.433 10 10 8.433 10 6.5C10 4.567 8.433 3 6.5 3C4.567 3 3 4.567 3 6.5Z" fill="#2F2F2F"/>
<path d="M14 6.5C14 8.433 15.567 10 17.5 10C19.433 10 21 8.433 21 6.5C21 4.567 19.433 3 17.5 3C15.567 3 14 4.567 14 6.5Z" fill="#2F2F2F"/>
<path d="M14 17.5C14 19.433 15.567 21 17.5 21C19.433 21 21 19.433 21 17.5C21 15.567 19.433 14 17.5 14C15.567 14 14 15.567 14 17.5Z" fill="#2F2F2F"/>
<path d="M3 17.5C3 19.433 4.567 21 6.5 21C8.433 21 10 19.433 10 17.5C10 15.567 8.433 14 6.5 14C4.567 14 3 15.567 3 17.5Z" fill="#2F2F2F"/>
</svg>
