<svg width="24" height="25" viewBox="0 0 24 25" fill="none" xmlns="http://www.w3.org/2000/svg">
<path d="M10.29 4.75303L1.81999 18.893C1.64536 19.1955 1.55296 19.5383 1.55198 19.8875C1.551 20.2368 1.64148 20.5802 1.81442 20.8836C1.98735 21.1869 2.23672 21.4398 2.5377 21.6169C2.83868 21.794 3.18079 21.8892 3.52999 21.893H20.47C20.8192 21.8892 21.1613 21.794 21.4623 21.6169C21.7633 21.4398 22.0126 21.1869 22.1856 20.8836C22.3585 20.5802 22.449 20.2368 22.448 19.8875C22.447 19.5383 22.3546 19.1955 22.18 18.893L13.71 4.75303C13.5317 4.45913 13.2807 4.21615 12.9812 4.04751C12.6817 3.87888 12.3437 3.79028 12 3.79028C11.6563 3.79028 11.3183 3.87888 11.0188 4.04751C10.7193 4.21615 10.4683 4.45913 10.29 4.75303V4.75303Z" stroke="#2F2F2F" stroke-linecap="round" stroke-linejoin="round"/>
<path d="M12 9.89307V13.8931" stroke="#2F2F2F" stroke-linecap="round" stroke-linejoin="round"/>
<path d="M12 17.8931H12.01" stroke="#2F2F2F" stroke-linecap="round" stroke-linejoin="round"/>
</svg>
