<svg width="229" height="124" fill="none" xmlns="http://www.w3.org/2000/svg"><path fill-rule="evenodd" clip-rule="evenodd" d="M141.917-32.704c22.044 13.929 37.233 39.325 41.524 65.213 4.34 25.938-2.219 52.416-11.244 77.468-8.976 25.101-20.417 48.725-39.206 65.065-18.74 16.291-44.829 25.249-70.276 24.412-25.496-.886-50.302-11.566-73.283-26.479-22.981-14.962-44.138-34.157-54.297-58.568-10.159-24.363-9.37-53.942 1.726-77.714s32.5-41.737 55.086-55.517C14.534-32.556 38.304-42.104 64.64-45.6c26.335-3.543 55.234-1.033 77.278 12.895Z" fill="#303481"/><path d="M53.985 33.64a1.124 1.124 0 1 0-.002-2.25 1.124 1.124 0 0 0 .002 2.25ZM131.947 91.695a1.8 1.8 0 0 0 1.798-1.8 1.8 1.8 0 0 0-1.798-1.8c-.992 0-1.797.805-1.797 1.8 0 .994.805 1.8 1.797 1.8ZM155.088 45.565a.45.45 0 1 0 0-.9.45.45 0 0 0 0 .9ZM75.554 50.066a.45.45 0 1 0 0-.9.45.45 0 0 0 0 .9ZM70.61 101.821a.45.45 0 1 0 0-.9.45.45 0 0 0 0 .9ZM71.96 34.764a.45.45 0 1 0-.002-.9.45.45 0 0 0 .001.9ZM63.646 39.04a1.35 1.35 0 1 0-.002-2.698 1.35 1.35 0 0 0 .002 2.698ZM58.253 91.245a1.35 1.35 0 1 0-.002-2.702 1.35 1.35 0 0 0 .002 2.702ZM121.612 92.595c.745 0 1.348-.605 1.348-1.35a1.349 1.349 0 1 0-2.696 0c0 .745.604 1.35 1.348 1.35ZM146.327 49.39a1.35 1.35 0 1 0-.003-2.698 1.35 1.35 0 0 0 .003 2.699ZM91.955 37.24a1.35 1.35 0 1 0-.002-2.699 1.35 1.35 0 0 0 .002 2.699ZM53.985 47.59a.675.675 0 1 0-.001-1.348.675.675 0 0 0 0 1.349ZM31.517 20.138a.674.674 0 1 0 0-1.35.674.674 0 0 0 0 1.35ZM49.042 99.346a.675.675 0 1 0-.001-1.35.675.675 0 0 0 0 1.35ZM126.33 97.546a.675.675 0 1 0-.001-1.35.675.675 0 0 0 .001 1.35ZM151.044 54.341a.674.674 0 1 0 0-1.348.674.674 0 0 0 0 1.348ZM71.51 58.842a.675.675 0 1 0-.002-1.35.675.675 0 0 0 .001 1.35ZM66.566 111.047a.674.674 0 1 0 0-1.349.674.674 0 0 0 0 1.349ZM67.465 53.216a.45.45 0 1 0 0-.9.45.45 0 0 0 0 .9ZM62.522 104.971a.45.45 0 1 0 0-.899.45.45 0 0 0 0 .899ZM75.554 122.073a.45.45 0 1 0-.002-.9.45.45 0 0 0 .002.9ZM111.053 71.668a.45.45 0 1 0-.001-.899.45.45 0 0 0 .001.899ZM55.333 55.916a.45.45 0 1 0 0-.899.45.45 0 0 0 0 .9ZM32.865 28.463a.45.45 0 1 0 0-.899.45.45 0 0 0 0 .9ZM107.008 80.444a.674.674 0 1 0 0-1.348.674.674 0 0 0 0 1.348ZM51.289 64.692a.675.675 0 1 0-.001-1.349.675.675 0 0 0 0 1.35ZM102.964 74.818a.45.45 0 1 0 0-.9.45.45 0 0 0 0 .9ZM47.245 59.067a.45.45 0 1 0-.001-.9.45.45 0 0 0 0 .9ZM24.777 31.614a.45.45 0 1 0 0-.9.45.45 0 0 0 0 .9ZM121.387 50.966a.45.45 0 1 0-.001-.9.45.45 0 0 0 .001.9ZM117.342 60.192a.674.674 0 1 0 0-1.348.674.674 0 0 0 0 1.348ZM113.299 54.116a.45.45 0 1 0-.001-.899.45.45 0 0 0 .001.9ZM132.622 119.598a.675.675 0 1 0-.002-1.35.675.675 0 0 0 .002 1.35ZM106.109 71.668a.45.45 0 1 0 0-.9.45.45 0 0 0 0 .9ZM50.39 55.916a.45.45 0 1 0 0-.9.45.45 0 0 0 0 .9ZM27.923 28.463a.45.45 0 1 0-.001-.899.45.45 0 0 0 0 .9ZM102.065 56.141a.674.674 0 1 0 0-1.348.674.674 0 0 0 0 1.348ZM98.021 74.818a.45.45 0 1 0 0-.9.45.45 0 0 0 0 .9ZM42.302 59.067a.45.45 0 1 0 0-.9.45.45 0 0 0 0 .9ZM95.775 64.917a.45.45 0 1 0-.001-.9.45.45 0 0 0 0 .9ZM92.18 58.842a.675.675 0 1 0-.002-1.35.675.675 0 0 0 .002 1.35ZM87.686 68.068a.45.45 0 1 0 0-.9.45.45 0 0 0 0 .9ZM71.51 29.589a.674.674 0 1 0-.002-1.35.674.674 0 0 0 .001 1.35ZM129.475 82.244a.674.674 0 1 0 0-1.348.674.674 0 0 0 0 1.348ZM154.189 39.04a.674.674 0 1 0 0-1.348.674.674 0 0 0 0 1.348ZM91.73 92.37a.45.45 0 1 0 0-.9.45.45 0 0 0 0 .9ZM36.01 76.618a.45.45 0 1 0 0-.899.45.45 0 0 0 0 .9ZM116.444 95.52a.45.45 0 1 0-.001-.899.45.45 0 0 0 .001.9ZM112.401 89.445a.675.675 0 1 0-.001-1.35.675.675 0 0 0 .001 1.35ZM56.681 73.693a.675.675 0 1 0-.001-1.349.675.675 0 0 0 .001 1.35ZM102.964 98.67a.45.45 0 1 0 0-.9.45.45 0 0 0 0 .9ZM47.245 82.919a.45.45 0 1 0-.001-.9.45.45 0 0 0 0 .9ZM90.832 86.294a.675.675 0 1 0-.001-1.349.675.675 0 0 0 0 1.35ZM35.112 70.543a.675.675 0 1 0-.001-1.35.675.675 0 0 0 0 1.35ZM117.792 112.622a.45.45 0 1 0 .001-.899.45.45 0 0 0-.001.899ZM111.053 112.622a.45.45 0 1 0 0-.898.45.45 0 0 0 0 .898ZM49.94 88.77a.45.45 0 1 0 0-.9.45.45 0 0 0 0 .9ZM43.2 88.77a.45.45 0 1 0 0-.9.45.45 0 0 0 0 .9ZM34.663 112.622a.45.45 0 1 0 0-.899.45.45 0 0 0 0 .899ZM49.94 121.173a.45.45 0 1 0 0-.9.45.45 0 0 0 0 .9ZM75.104 43.54a.674.674 0 1 0 0-1.349.674.674 0 0 0 0 1.35ZM124.983 110.147a.675.675 0 1 0-.002-1.35.675.675 0 0 0 .002 1.35ZM69.263 94.395a.675.675 0 1 0-.001-1.349.675.675 0 0 0 .001 1.35ZM69.487 98.896a.45.45 0 1 0-.001-.9.45.45 0 0 0 0 .9ZM134.418 18.338a.674.674 0 1 0 0-1.348.674.674 0 0 0 0 1.348ZM130.824 55.691a.675.675 0 1 0-.001-1.349.675.675 0 0 0 .001 1.35ZM61.174 45.34a.675.675 0 1 0-.001-1.349.675.675 0 0 0 0 1.35ZM55.783 97.546a.675.675 0 1 0-.001-1.35.675.675 0 0 0 0 1.35ZM95.775 104.971a.45.45 0 1 0 0-.899.45.45 0 0 0 0 .899ZM98.47 110.822a.45.45 0 1 0-.002-.9.45.45 0 0 0 .002.9ZM91.73 110.822a.45.45 0 1 0-.001-.9.45.45 0 0 0 .001.9ZM132.172 37.014a.45.45 0 1 0-.001-.899.45.45 0 0 0 .001.9ZM134.867 42.865a.45.45 0 1 0 0-.9.45.45 0 0 0 0 .9ZM128.128 42.865a.45.45 0 1 0-.001-.899.45.45 0 0 0 .001.9ZM147.899 61.317a.45.45 0 1 0-.001-.9.45.45 0 0 0 .001.9ZM150.595 67.167a.45.45 0 1 0 0-.9.45.45 0 0 0 0 .9ZM143.855 67.167a.45.45 0 1 0-.001-.899.45.45 0 0 0 .001.9ZM19.834 31.614a.45.45 0 1 0 0-.9.45.45 0 0 0 0 .9Z" fill="#E8EBFF"/><mask id="a" style="mask-type:alpha" maskUnits="userSpaceOnUse" x="98" y="12" width="30" height="29"><path d="M110.677 40.316c7.911 1.384 15.418-3.652 16.767-11.25 1.35-7.596-3.969-14.878-11.88-16.262-7.91-1.385-15.417 3.651-16.767 11.248-1.35 7.598 3.97 14.879 11.88 16.264Z" fill="#E8EBFF"/></mask><g mask="url(#a)"><path d="M110.677 40.316c7.911 1.384 15.418-3.652 16.767-11.25 1.35-7.596-3.969-14.878-11.88-16.262-7.91-1.385-15.417 3.651-16.767 11.248-1.35 7.598 3.97 14.879 11.88 16.264Z" fill="#BF98FF"/><path fill-rule="evenodd" clip-rule="evenodd" d="M136.114 25.698a6.516 6.516 0 0 1-.101 1.094c-1.164 6.555-12.066 10.125-24.35 7.975-12.284-2.15-21.298-9.207-20.134-15.76.064-.365.159-.719.282-1.064-.053 6.228 8.633 12.635 20.235 14.666 11.547 2.021 21.873-1.012 24.037-6.828l.031-.083Z" fill="#343DA6"/><path fill-rule="evenodd" clip-rule="evenodd" d="M147.461 18.148a8.07 8.07 0 0 1-.12 1.655c-1.542 8.679-17.025 13.223-34.583 10.15-17.557-3.073-30.541-12.6-29-21.278.098-.55.251-1.082.457-1.597.24 8.203 12.674 16.745 29.121 19.624 16.328 2.858 30.863-.872 34.058-8.39l.067-.164Z" fill="#3D43BC"/><path fill-rule="evenodd" clip-rule="evenodd" d="M140.038 13.035c.001.367-.03.732-.095 1.096-1.164 6.554-12.744 10.006-25.864 7.71-13.12-2.297-22.812-9.472-21.648-16.026.065-.364.162-.718.289-1.062.017 6.24 9.351 12.76 21.743 14.93 12.332 2.159 23.304-.762 25.544-6.564l.031-.084Z" fill="#9A89FF"/><path fill-rule="evenodd" clip-rule="evenodd" d="M130.409 32.327a4.131 4.131 0 0 1-.063.683c-.818 4.608-9.407 6.956-19.182 5.245-9.776-1.71-17.038-6.834-16.219-11.442.04-.226.1-.447.176-.662-.035 4.42 6.987 9.131 16.282 10.759 9.287 1.625 17.502-.413 19.002-4.572l.004-.011Z" fill="#7F78DF"/></g><g opacity=".9"><g opacity=".744"><mask id="b" style="mask-type:alpha" maskUnits="userSpaceOnUse" x="83" y="94" width="18" height="18"><path opacity=".744" d="M90.685 111.73c4.746.842 9.25-2.223 10.06-6.847.81-4.625-2.382-9.057-7.128-9.9s-9.25 2.223-10.06 6.847c-.81 4.625 2.382 9.057 7.128 9.9Z" fill="#E8EBFF"/></mask><g mask="url(#b)"><path opacity=".744" d="M90.685 111.73c4.746.842 9.25-2.223 10.06-6.847.81-4.625-2.382-9.057-7.128-9.9s-9.25 2.223-10.06 6.847c-.81 4.625 2.382 9.057 7.128 9.9Z" fill="#5754CB"/><path opacity=".744" fill-rule="evenodd" clip-rule="evenodd" d="M105.946 102.832a4.043 4.043 0 0 1-.061.666c-.698 3.99-7.24 6.163-14.61 4.854-7.37-1.309-12.779-5.604-12.08-9.593.039-.222.095-.437.17-.647-.032 3.79 5.179 7.691 12.14 8.927 6.928 1.23 13.124-.616 14.423-4.156l.018-.051Z" fill="#343DA6"/><path opacity=".744" fill-rule="evenodd" clip-rule="evenodd" d="M112.755 98.237a4.94 4.94 0 0 1-.073 1.007c-.924 5.283-10.214 8.048-20.749 6.178-10.535-1.871-18.325-7.67-17.4-12.952a4.98 4.98 0 0 1 .274-.972c.144 4.993 7.604 10.193 17.473 11.945 9.797 1.74 18.517-.531 20.434-5.106l.041-.1Z" fill="#3D43BC"/><path opacity=".744" fill-rule="evenodd" clip-rule="evenodd" d="M108.301 95.124c.001.223-.018.446-.057.667-.698 3.99-7.646 6.091-15.518 4.693-7.872-1.398-13.687-5.765-12.989-9.755.039-.221.097-.437.173-.646.01 3.798 5.61 7.767 13.046 9.088 7.4 1.314 13.983-.464 15.326-3.996l.019-.05Z" fill="#9A89FF"/><path opacity=".744" fill-rule="evenodd" clip-rule="evenodd" d="M102.523 106.867a2.532 2.532 0 0 1-.037.416c-.491 2.805-5.644 4.234-11.51 3.192-5.865-1.041-10.222-4.159-9.73-6.964.023-.138.059-.272.105-.404-.021 2.691 4.192 5.559 9.769 6.549 5.572.99 10.501-.251 11.401-2.782l.002-.007Z" fill="#7F78DF"/></g></g></g><mask id="c" style="mask-type:alpha" maskUnits="userSpaceOnUse" x="131" y="31" width="92" height="89"><path d="M169.265 118.372c24.598 4.326 47.941-11.409 52.137-35.144 4.196-23.736-12.343-46.484-36.941-50.81-24.599-4.326-47.941 11.409-52.137 35.145-4.197 23.735 12.342 46.483 36.941 50.809Z" fill="#E8EBFF"/></mask><g mask="url(#c)"><path d="M169.265 118.372c24.598 4.326 47.941-11.409 52.137-35.144 4.196-23.736-12.343-46.484-36.941-50.81-24.599-4.326-47.941 11.409-52.137 35.145-4.197 23.735 12.342 46.483 36.941 50.809Z" fill="#5754CB"/><path fill-rule="evenodd" clip-rule="evenodd" d="M248.361 72.702a20.536 20.536 0 0 1-.314 3.42c-3.62 20.478-37.52 31.632-75.717 24.915-38.198-6.718-66.228-28.763-62.608-49.24.201-1.137.495-2.244.878-3.322-.164 19.457 26.844 39.476 62.922 45.82 35.905 6.315 68.013-3.162 74.744-21.33l.095-.263Z" fill="#343DA6"/><path fill-rule="evenodd" clip-rule="evenodd" d="M283.646 49.116c.05 1.73-.073 3.456-.376 5.172-4.793 27.113-52.938 41.31-107.534 31.708-54.596-9.601-94.97-39.365-90.176-66.478.303-1.715.78-3.378 1.42-4.987.747 25.628 39.409 52.314 90.552 61.308 50.774 8.929 95.969-2.724 105.903-26.209l.211-.514Z" fill="#3D43BC"/><path fill-rule="evenodd" clip-rule="evenodd" d="M260.562 33.141a19.424 19.424 0 0 1-.294 3.424c-3.621 20.477-39.628 31.261-80.425 24.087-40.797-7.175-70.935-29.591-67.315-50.069.201-1.136.502-2.242.897-3.317.052 19.494 29.076 39.868 67.61 46.644 38.349 6.745 72.466-2.38 79.429-20.507l.098-.262Z" fill="#9A89FF"/><path fill-rule="evenodd" clip-rule="evenodd" d="M230.62 93.414c-.006.714-.07 1.426-.195 2.133-2.545 14.397-29.251 21.734-59.649 16.388s-52.977-21.35-50.432-35.746c.125-.708.309-1.399.549-2.072-.111 13.812 21.723 28.531 50.626 33.614 28.878 5.078 54.424-1.29 59.089-14.282l.012-.035Z" fill="#7F78DF"/></g></svg>