<svg width="44" height="44" viewBox="0 0 44 44" fill="none" xmlns="http://www.w3.org/2000/svg">
<path d="M24.347 16.0444C27.5378 17.9165 30.1108 23.2468 30.1108 27.1108C30.1108 29.8774 28.7275 32.644 25.4998 32.644H25.7303H19.5055C16.2778 32.644 14.8945 29.8774 14.8945 27.1108C14.8945 23.2468 17.4675 17.9165 20.6583 16.0444L17.6427 13.536C16.9603 12.9919 17.3476 11.8945 18.2144 11.8945H26.7909C27.6577 11.8945 28.0451 12.9919 27.3626 13.536L24.347 16.0444Z" fill="white" fill-opacity="0.4"/>
<path d="M24.6588 16.5848L23.7947 15.504L26.9302 12.9956C27.0363 12.9108 27.0289 12.8103 27.004 12.7402C26.98 12.6701 26.9228 12.5862 26.791 12.5862H18.2145C18.0817 12.5862 18.0246 12.6701 18.0006 12.7402C17.9757 12.8103 17.9683 12.9117 18.0744 12.9956L21.2098 15.504L20.3457 16.5848L17.2103 14.0764C16.6671 13.643 16.4642 12.9394 16.6938 12.2837C16.9244 11.6271 17.521 11.2029 18.2145 11.2029H26.791C27.4845 11.2029 28.0811 11.6271 28.3107 12.2837C28.5404 12.9394 28.3375 13.6439 27.7943 14.0764L24.6588 16.5848Z" fill="white"/>
<path d="M16.9695 15.3528H28.0358V16.7361H16.9695V15.3528Z" fill="white"/>
<path d="M26.5564 19.0939C25.7578 18.0021 24.8725 17.1546 23.9973 16.6409L24.6973 15.4485C25.7347 16.0562 26.763 17.0347 27.6723 18.2759L26.5564 19.0939Z" fill="white"/>
<path d="M25.7301 33.3354H19.5053C15.8423 33.3354 14.2026 30.2083 14.2026 27.1106C14.2026 22.8058 17.0559 17.3565 20.3085 15.4485L21.0085 16.6409C18.1699 18.3055 15.5859 23.2964 15.5859 27.1106C15.5859 29.3442 16.6123 31.9521 19.5053 31.9521H25.7301C29.0592 31.9521 29.4189 28.5658 29.4189 27.1106C29.4189 26.2502 29.2833 25.3012 29.0159 24.2896L30.3531 23.9364C30.6509 25.0633 30.8022 26.1312 30.8022 27.1106C30.8022 30.9497 28.8591 33.3354 25.7301 33.3354Z" fill="white"/>
<path d="M22.8529 28.2635H20.197V26.8802H22.8529C23.1683 26.8802 23.4247 26.6238 23.4247 26.3084C23.4247 25.9838 23.1683 25.7274 22.8529 25.7274H22.1521C21.074 25.7274 20.197 24.8504 20.197 23.7724C20.197 22.6851 21.074 21.8081 22.1521 21.8081H24.808V23.1914H22.1521C21.8367 23.1914 21.5803 23.4478 21.5803 23.7632C21.5803 24.0878 21.8367 24.3441 22.1521 24.3441H22.8529C23.931 24.3441 24.808 25.2212 24.808 26.2992C24.808 27.3865 23.931 28.2635 22.8529 28.2635Z" fill="white"/>
<path d="M21.811 20.4248H23.1943V23.1914H21.811V20.4248Z" fill="white"/>
<path d="M21.811 26.8802H23.1943V29.6469H21.811V26.8802Z" fill="white"/>
</svg>
