<svg width="24" height="24" viewBox="0 0 24 24" fill="none" xmlns="http://www.w3.org/2000/svg">
<path d="M19.0311 17.8956C17.7711 16.4088 15.7769 15.7562 14.0128 16.176C11.8078 16.7007 8.9433 18.4668 4.67724 17.1873C5.49064 19.401 8.21862 22.0086 12.0667 22.0086C15.9148 22.0086 18.2048 19.3121 19.0311 17.8956Z" fill="#0EC9FE"/>
<path d="M12 2.68994L17.66 8.34994C18.7794 9.46855 19.5418 10.894 19.8509 12.446C20.16 13.998 20.0019 15.6068 19.3965 17.0689C18.7912 18.531 17.7658 19.7808 16.4501 20.66C15.1344 21.5393 13.5875 22.0086 12.005 22.0086C10.4225 22.0086 8.87561 21.5393 7.5599 20.66C6.2442 19.7808 5.21882 18.531 4.61347 17.0689C4.00812 15.6068 3.85 13.998 4.15911 12.446C4.46822 10.894 5.23066 9.46855 6.35001 8.34994L12 2.68994Z" stroke="#0C3EE3" stroke-width="2" stroke-linecap="round" stroke-linejoin="round"/>
</svg>
