<svg width="128" height="123" viewBox="0 0 128 123" fill="none" xmlns="http://www.w3.org/2000/svg">
<path d="M80.0552 3.46875L51.0551 32.5433L66.9134 48.3618L95.9142 19.2872L80.0552 3.46875Z" fill="#CDFFEC"/>
<path d="M79.7984 19.4823C83.2982 22.9823 83.2982 28.6988 79.7984 32.1988C76.2981 35.6986 70.5819 35.6986 67.0822 32.1988C63.5818 28.6988 63.5818 22.9823 67.0822 19.4823C70.5819 15.9825 76.2981 15.9825 79.7984 19.4823Z" fill="white"/>
<path d="M49.1157 32.5497L66.9656 50.3993L97.9982 19.25L80.0317 1.40039L49.1157 32.5497ZM70.2321 43.0494C68.3656 41.1828 65.4489 41.1828 63.6985 43.0494L56.4657 35.8162C58.2156 33.9496 58.2156 31.1497 56.4657 29.2831L76.7652 8.86687C78.6317 10.6168 81.4317 10.6168 83.2982 8.75019L90.5316 15.9834C88.7817 17.85 88.7817 20.7666 90.5316 22.5165L70.2321 43.0494Z" fill="#4CD7AD"/>
<path d="M65.2758 1.90918L46.41 38.3838L66.3049 48.674L85.1707 12.1995L65.2758 1.90918Z" fill="#CDFFEC"/>
<path d="M69.8822 17.2658C74.3149 19.5991 76.0653 24.9656 73.7318 29.3988C71.3988 33.8321 66.0319 35.582 61.5986 33.2488C57.1653 30.9155 55.4154 25.5489 57.749 21.1157C59.9654 16.6825 65.4488 14.9325 69.8822 17.2658Z" fill="white"/>
<path d="M44.4491 38.9658L66.8483 50.5155L87.0311 11.5497L64.6319 0L44.4491 38.9658ZM67.7818 42.5824C65.4483 41.4157 62.6488 42.349 61.482 44.5656L52.3822 39.8991C53.549 37.6825 52.6154 34.8826 50.3991 33.7159L63.6984 8.04981C65.9153 9.21647 68.7154 8.28316 69.8816 6.06651L78.9814 10.8497C77.8147 13.0664 78.7482 15.8663 80.9646 17.0329L67.7818 42.5824Z" fill="#4CD7AD"/>
<path d="M36.6327 36.1655C40.2491 40.3654 45.4987 46.6653 45.4987 46.6653C44.799 50.6319 37.7989 58.4481 34.5323 61.2481L11.6664 34.0655C19.1329 27.7657 30.3326 28.699 36.6327 36.1655Z" fill="#3485FF"/>
<path d="M36.2828 94.498H28.5828V117.947H36.2828V94.498Z" fill="#0F3FBA"/>
<path d="M89.3648 94.498H81.6649V117.947H89.3648V94.498Z" fill="#0F3FBA"/>
<path d="M31.9659 73.8486H0V84.3479H31.9659V73.8486Z" fill="#3485FF"/>
<path fill-rule="evenodd" clip-rule="evenodd" d="M124.014 53.5485C125.53 55.1816 126.464 56.9315 127.047 59.0318C127.631 61.1316 127.631 63.6984 126.581 65.7981C126.114 66.9649 125.414 67.8985 124.714 68.7148C124.601 68.8272 124.489 68.9522 124.372 69.0815C124.127 69.3532 123.863 69.6441 123.547 69.8816C123.256 70.1148 123.081 70.2314 122.905 70.348C122.73 70.4647 122.555 70.5813 122.264 70.8145C120.397 72.2146 118.414 73.0315 116.43 73.3813C112.931 73.9644 109.548 73.9644 106.164 73.8478H13.183H0V63.3485H14.6997C19.1329 49.5819 32.0826 39.5488 47.3658 39.5488H71.8647C79.6818 39.5488 86.9146 42.1155 92.6313 46.5486C99.748 52.0319 104.648 60.1986 105.814 69.5317C106.514 69.4734 107.185 69.4734 107.87 69.4734C108.556 69.4734 109.256 69.4734 110.014 69.4151C110.446 69.3862 110.871 69.3646 111.293 69.343C112.584 69.2768 113.858 69.2119 115.264 68.948C116.898 68.5982 118.298 67.8985 119.347 67.0815C119.377 67.0527 119.435 67.0016 119.508 66.9373C119.726 66.7461 120.076 66.4401 120.164 66.2646C120.281 66.148 120.368 66.0025 120.456 65.8564C120.543 65.711 120.631 65.5649 120.747 65.4483C121.097 64.9818 121.448 64.3981 121.564 63.815C121.914 62.6482 121.914 61.598 121.564 60.4319C121.214 59.2651 120.397 57.9817 119.814 57.282C118.414 55.7653 116.197 55.2982 114.331 55.8819C114.098 55.8819 113.864 55.9985 113.63 56.1152L113.514 56.2318C113.589 56.2318 113.52 56.2799 113.522 56.2835C113.523 56.2853 113.547 56.2739 113.63 56.2318L113.514 56.3484L113.047 56.5816C113.018 56.6111 112.967 56.655 112.904 56.7091C112.712 56.8732 112.406 57.1359 112.231 57.3986C111.764 58.0983 111.414 58.9152 111.297 59.7315C111.181 60.5485 111.297 61.3648 111.647 62.0651C111.647 62.1817 111.764 62.5316 111.881 62.6482C111.881 62.7648 111.997 62.8815 112.114 62.9981L112.814 63.6984C113.864 64.3981 113.748 66.148 111.881 65.4483C111.414 65.3316 110.948 65.0984 110.481 64.7486C110.247 64.6313 110.014 64.3981 109.781 64.1649L109.548 63.9316L109.431 63.815L109.314 63.5818C108.497 62.6482 107.914 61.3648 107.798 59.8482C107.564 58.3315 107.914 56.6983 108.731 55.1816C109.198 54.3652 109.664 53.6652 110.481 52.9652L110.831 52.6152L111.064 52.4985H111.181H111.297L111.531 52.2652C111.808 51.9882 112.085 51.8574 112.419 51.6992C112.508 51.6576 112.6 51.6139 112.697 51.5652C114.447 50.7486 116.43 50.3986 118.414 50.7486C120.514 50.9819 122.497 52.0319 124.014 53.5485ZM13.1831 73.8484H106.164C106.164 82.8311 102.781 91.1146 97.0646 97.1812V118.064H89.3647V103.364C84.2317 106.398 78.2818 108.148 71.982 108.148H47.3658C46.297 108.148 45.3262 108.05 44.2736 107.943C44.1774 107.934 44.08 107.924 43.9827 107.914V118.064H36.2828V106.281C33.5994 105.347 31.0327 104.064 28.6994 102.547C19.3663 96.3642 13.1831 85.8643 13.1831 73.8484Z" fill="#3485FF"/>
<path d="M34.6489 60.0823C34.6489 62.5319 32.6658 64.3984 30.3326 64.3984C27.8826 64.3984 26.016 62.4153 26.016 60.0823C26.016 57.6321 27.9993 55.7656 30.3326 55.7656C32.7825 55.7656 34.6489 57.7487 34.6489 60.0823Z" fill="#0F3FBA"/>
<path d="M77.3483 41.8816H45.7326C45.1489 41.8816 44.7991 41.415 44.7991 40.9483V40.5983C44.7991 40.015 45.2655 39.665 45.7326 39.665H77.3483C77.9314 39.665 78.2818 40.1317 78.2818 40.5983V40.9483C78.2818 41.5317 77.9314 41.8816 77.3483 41.8816Z" fill="#0F3FBA"/>
<path d="M41.0659 26.7168C46.4779 26.7168 50.8655 22.3292 50.8655 16.9169C50.8655 11.5047 46.4779 7.11719 41.0659 7.11719C35.6534 7.11719 31.2659 11.5047 31.2659 16.9169C31.2659 22.3292 35.6534 26.7168 41.0659 26.7168Z" fill="#FCC821"/>
<path d="M41.066 24.2662C37.0992 24.2662 33.8326 20.9996 33.8326 17.033C33.8326 13.0664 37.0992 9.7998 41.066 9.7998C45.0322 9.7998 48.2988 13.0664 48.2988 17.033C48.1821 20.9996 45.0322 24.2662 41.066 24.2662ZM41.066 11.5498C38.0327 11.5498 35.5825 13.9997 35.5825 17.033C35.5825 20.0663 38.0327 22.5162 41.066 22.5162C44.0993 22.5162 46.5489 20.0663 46.5489 17.033C46.5489 13.9997 44.0993 11.5498 41.066 11.5498Z" fill="#F3941F"/>
<path d="M103.015 122.731C108.426 122.731 112.814 118.343 112.814 112.931C112.814 107.518 108.426 103.131 103.015 103.131C97.602 103.131 93.2144 107.518 93.2144 112.931C93.2144 118.343 97.602 122.731 103.015 122.731Z" fill="#FCC821"/>
<path d="M103.014 120.281C99.0475 120.281 95.781 117.014 95.781 113.048C95.781 109.081 99.0475 105.814 103.014 105.814C106.981 105.814 110.247 109.081 110.247 113.048C110.247 117.014 106.981 120.281 103.014 120.281ZM103.014 107.564C99.9805 107.564 97.5309 110.015 97.5309 113.048C97.5309 116.081 99.9805 118.531 103.014 118.531C106.047 118.531 108.497 116.081 108.497 113.048C108.497 110.015 106.047 107.564 103.014 107.564Z" fill="#F3941F"/>
<path d="M98.1147 33.4831C98.348 34.533 97.4144 34.6497 96.9479 34.7663C95.8978 34.9997 95.3147 35.8163 94.731 36.5163C94.3811 36.8663 94.3811 37.333 94.3811 37.683C94.2645 38.383 93.9146 38.6163 93.0977 38.4996C92.5146 37.683 92.6312 36.3997 91.6983 35.583C90.8814 34.7663 89.5979 34.883 88.7816 34.0664C88.7816 33.2497 89.3647 33.1331 89.8312 33.0164C91.4644 32.5497 92.398 31.4998 92.8645 29.8665C92.9811 29.5165 93.2149 29.2832 93.6814 29.0498C94.4977 29.7498 94.2645 31.1498 95.0814 31.8497C96.0144 32.6664 97.0645 33.0164 98.1147 33.4831Z" fill="#FBB811"/>
<path d="M100.098 43.633C98.4647 43.633 97.1813 42.3497 97.1813 40.7164C97.1813 39.0831 98.4647 37.7998 100.098 37.7998C101.731 37.7998 103.015 39.0831 103.015 40.7164C103.015 42.3497 101.731 43.633 100.098 43.633ZM100.098 39.6664C99.5149 39.6664 98.9312 40.1331 98.9312 40.833C98.9312 41.533 99.3976 41.9997 100.098 41.9997C100.798 41.9997 101.265 41.533 101.265 40.833C101.265 40.1331 100.798 39.6664 100.098 39.6664Z" fill="#FBB811"/>
</svg>
