<svg width="74" height="88" viewBox="0 0 74 88" fill="none" xmlns="http://www.w3.org/2000/svg">
<path d="M7.06582 32.1701C7.06582 30.6738 8.46222 30.759 10.0262 30.7311C11.5902 30.7033 13.0983 30.7311 13.4055 30.7311L46.5283 30.9818H52.7283C52.7283 30.9818 55.0463 30.9818 55.0463 29.3384C55.0463 27.695 53.0914 27.89 51.8626 27.89H2.79281C2.05211 27.89 1.34179 28.1835 0.818037 28.7058C0.294283 29.2282 0 29.9367 0 30.6754V78.863C0 79.6018 0.294283 80.3102 0.818037 80.8326C1.34179 81.355 2.05211 81.6484 2.79281 81.6484H59.9338C60.6745 81.6484 61.3849 81.355 61.9086 80.8326C62.4324 80.3102 62.7266 79.6018 62.7266 78.863V37.3047C62.7266 36.5659 62.4324 35.8575 61.9086 35.3351C61.3849 34.8127 60.6745 34.5193 59.9338 34.5193H13.0912H9.57894C7.48433 34.5193 7.06582 33.8597 7.06582 32.7446" fill="#D5F2FF"/>
<g filter="url(#filter0_b_227_13301)">
<rect x="16.2927" y="1" width="40.7315" height="33.3999" fill="#AACCFF" fill-opacity="0.3"/>
</g>
<g filter="url(#filter1_b_227_13301)">
<circle cx="60.2827" cy="75.1311" r="12.2195" fill="#AACCFF" fill-opacity="0.5"/>
</g>
<ellipse cx="61.0973" cy="75.5385" rx="11.4048" ry="10.9975" stroke="#285292" stroke-width="2"/>
<path fill-rule="evenodd" clip-rule="evenodd" d="M67.0275 71.144C67.2477 70.9704 67.5316 71.0682 67.6615 71.3626C68.1492 72.4679 68.4289 73.7569 68.4289 75.1313C68.4289 76.5057 68.1492 77.7946 67.6615 78.8999C67.5316 79.1943 67.2477 79.2921 67.0275 79.1185C66.8073 78.9448 66.7341 78.5653 66.864 78.2709C67.2699 77.351 67.503 76.2784 67.503 75.1313C67.503 73.9841 67.2699 72.9115 66.864 71.9916C66.7341 71.6972 66.8073 71.3177 67.0275 71.144Z" fill="#285292"/>
<path d="M23.6244 58.0429L27.1177 56.7845C27.4043 58.0954 27.9417 59.1004 28.73 59.7995C29.5182 60.4812 30.5035 60.822 31.6858 60.822C32.8144 60.822 33.7012 60.5948 34.3461 60.1404C35.009 59.6859 35.3404 59.0829 35.3404 58.3313C35.3404 57.1253 33.9789 56.3824 31.2559 56.1028C26.8311 55.6833 24.6186 53.7694 24.6186 50.361C24.6186 49.1026 25.0755 48.0276 25.9891 47.1362C26.9206 46.2273 28.1478 45.6331 29.6705 45.3534V43.3608H33.4325V45.4321C34.7223 45.7292 35.8151 46.3147 36.7108 47.1887C37.6244 48.0451 38.2335 49.0938 38.5381 50.3348L34.991 51.7768C34.7402 50.833 34.2924 50.0901 33.6475 49.5483C33.0205 49.0064 32.286 48.7355 31.444 48.7355C30.5304 48.7355 29.7869 48.9016 29.2137 49.2337C28.6583 49.5483 28.3806 49.959 28.3806 50.4659C28.3806 51.0602 28.6225 51.5146 29.1062 51.8293C29.6078 52.1264 30.4677 52.3361 31.6858 52.4585C34.1759 52.7032 36.0301 53.2975 37.2482 54.2413C38.4843 55.1852 39.1024 56.5135 39.1024 58.2264C39.1024 59.782 38.5918 61.0929 37.5707 62.1591C36.5675 63.2253 35.1881 63.907 33.4325 64.2042V66.1705H29.6705V64.1517C28.0761 63.8196 26.7504 63.1292 25.6935 62.0805C24.6545 61.0143 23.9648 59.6684 23.6244 58.0429Z" fill="#3485FF"/>
<mask id="mask0_227_13301" style="mask-type:alpha" maskUnits="userSpaceOnUse" x="16" y="1" width="41" height="34">
<rect x="16.4095" y="1" width="40.3182" height="33.334" fill="#EFE7E3"/>
</mask>
<g mask="url(#mask0_227_13301)">
<circle cx="36.7274" cy="31.7943" r="12.3812" fill="#3485FF"/>
</g>
<path d="M52.1364 1H56.0241C56.5764 1 57.0241 1.44772 57.0241 2V9.14631" stroke="#285292" stroke-width="2" stroke-linecap="round" stroke-linejoin="round"/>
<defs>
<filter id="filter0_b_227_13301" x="10.2927" y="-5" width="52.7316" height="45.3999" filterUnits="userSpaceOnUse" color-interpolation-filters="sRGB">
<feFlood flood-opacity="0" result="BackgroundImageFix"/>
<feGaussianBlur in="BackgroundImage" stdDeviation="3"/>
<feComposite in2="SourceAlpha" operator="in" result="effect1_backgroundBlur_227_13301"/>
<feBlend mode="normal" in="SourceGraphic" in2="effect1_backgroundBlur_227_13301" result="shape"/>
</filter>
<filter id="filter1_b_227_13301" x="42.0632" y="56.9116" width="36.439" height="36.439" filterUnits="userSpaceOnUse" color-interpolation-filters="sRGB">
<feFlood flood-opacity="0" result="BackgroundImageFix"/>
<feGaussianBlur in="BackgroundImage" stdDeviation="3"/>
<feComposite in2="SourceAlpha" operator="in" result="effect1_backgroundBlur_227_13301"/>
<feBlend mode="normal" in="SourceGraphic" in2="effect1_backgroundBlur_227_13301" result="shape"/>
</filter>
</defs>
</svg>
